solid untitled
facet normal -0.707106781186549 0.707106781186546 0.0
outer loop
vertex 63.2322330470336 -26.414861204409 15.0
vertex 63.75 -26.0175646479142 5.0
vertex 63.2322330470336 -26.414861204409 5.0
endloop
endfacet
facet normal -0.499999999999997 0.86602540378444 0.0
outer loop
vertex 63.75 -26.0175646479142 5.0
vertex 63.2322330470336 -26.414861204409 15.0
vertex 63.75 -26.0175646479142 15.0
endloop
endfacet
facet normal 0.70710678118655 0.707106781186545 0.0
outer loop
vertex 66.7677669529664 -26.414861204409 5.0
vertex 67.1650635094611 -26.9326281573753 15.0
vertex 67.1650635094611 -26.9326281573753 5.0
endloop
endfacet
facet normal 0.866025403784439 0.5 0.0
outer loop
vertex 67.1650635094611 -26.9326281573753 15.0
vertex 66.7677669529664 -26.414861204409 5.0
vertex 66.7677669529664 -26.414861204409 15.0
endloop
endfacet
facet normal -0.499999999999997 0.86602540378444 0.0
outer loop
vertex 63.75 -26.0175646479142 15.0
vertex 64.3529523872437 -25.7678135916527 5.0
vertex 63.75 -26.0175646479142 5.0
endloop
endfacet
facet normal -0.258819045102519 0.965925826289069 0.0
outer loop
vertex 64.3529523872437 -25.7678135916527 5.0
vertex 63.75 -26.0175646479142 15.0
vertex 64.3529523872437 -25.7678135916527 15.0
endloop
endfacet
facet normal -0.866025403784438 -0.500000000000001 0.0
outer loop
vertex 62.8349364905389 -29.4326281573753 15.0
vertex 63.2322330470336 -29.9503951103417 5.0
vertex 63.2322330470336 -29.9503951103417 15.0
endloop
endfacet
facet normal -0.707106781186549 -0.707106781186546 0.0
outer loop
vertex 63.2322330470336 -29.9503951103417 5.0
vertex 62.8349364905389 -29.4326281573753 15.0
vertex 62.8349364905389 -29.4326281573753 5.0
endloop
endfacet
facet normal 0.499999999999997 -0.86602540378444 0.0
outer loop
vertex 66.25 -30.3476916668364 15.0
vertex 65.6470476127563 -30.597442723098 5.0
vertex 66.25 -30.3476916668364 5.0
endloop
endfacet
facet normal 0.258819045102519 -0.965925826289069 0.0
outer loop
vertex 65.6470476127563 -30.597442723098 5.0
vertex 66.25 -30.3476916668364 15.0
vertex 65.6470476127563 -30.597442723098 15.0
endloop
endfacet
facet normal 0.0 1.0 0.0
outer loop
vertex 65.0 -25.6826281573753 15.0
vertex 65.6470476127563 -25.7678135916527 5.0
vertex 65.0 -25.6826281573753 5.0
endloop
endfacet
facet normal 0.258819045102519 0.965925826289069 0.0
outer loop
vertex 65.6470476127563 -25.7678135916527 5.0
vertex 65.0 -25.6826281573753 15.0
vertex 65.6470476127563 -25.7678135916527 15.0
endloop
endfacet
facet normal 0.965925826289069 -0.258819045102518 0.0
outer loop
vertex 67.4148145657227 -28.8296757701316 5.0
vertex 67.1650635094611 -29.4326281573753 15.0
vertex 67.1650635094611 -29.4326281573753 5.0
endloop
endfacet
facet normal 0.866025403784437 -0.500000000000002 0.0
outer loop
vertex 67.1650635094611 -29.4326281573753 15.0
vertex 67.4148145657227 -28.8296757701316 5.0
vertex 67.4148145657227 -28.8296757701316 15.0
endloop
endfacet
facet normal -0.499999999999997 -0.86602540378444 0.0
outer loop
vertex 63.75 -30.3476916668364 15.0
vertex 63.2322330470336 -29.9503951103417 5.0
vertex 63.75 -30.3476916668364 5.0
endloop
endfacet
facet normal -0.707106781186549 -0.707106781186546 0.0
outer loop
vertex 63.2322330470336 -29.9503951103417 5.0
vertex 63.75 -30.3476916668364 15.0
vertex 63.2322330470336 -29.9503951103417 15.0
endloop
endfacet
facet normal 0.866025403784437 -0.500000000000002 0.0
outer loop
vertex 67.1650635094611 -29.4326281573753 5.0
vertex 66.7677669529664 -29.9503951103417 15.0
vertex 66.7677669529664 -29.9503951103417 5.0
endloop
endfacet
facet normal 0.707106781186549 -0.707106781186546 0.0
outer loop
vertex 66.7677669529664 -29.9503951103417 15.0
vertex 67.1650635094611 -29.4326281573753 5.0
vertex 67.1650635094611 -29.4326281573753 15.0
endloop
endfacet
facet normal 0.499999999999997 0.86602540378444 0.0
outer loop
vertex 66.25 -26.0175646479142 15.0
vertex 66.7677669529664 -26.414861204409 5.0
vertex 66.25 -26.0175646479142 5.0
endloop
endfacet
facet normal 0.70710678118655 0.707106781186545 0.0
outer loop
vertex 66.7677669529664 -26.414861204409 5.0
vertex 66.25 -26.0175646479142 15.0
vertex 66.7677669529664 -26.414861204409 15.0
endloop
endfacet
facet normal -1.0 1.78222197912938e-017 0.0
outer loop
vertex 62.5 -28.1826281573753 15.0
vertex 62.5851854342773 -28.8296757701316 5.0
vertex 62.5851854342773 -28.8296757701316 15.0
endloop
endfacet
facet normal -0.965925826289069 -0.258819045102517 0.0
outer loop
vertex 62.5851854342773 -28.8296757701316 5.0
vertex 62.5 -28.1826281573753 15.0
vertex 62.5 -28.1826281573753 5.0
endloop
endfacet
facet normal 0.707106781186549 -0.707106781186546 0.0
outer loop
vertex 66.7677669529664 -29.9503951103417 15.0
vertex 66.25 -30.3476916668364 5.0
vertex 66.7677669529664 -29.9503951103417 5.0
endloop
endfacet
facet normal 0.499999999999997 -0.86602540378444 0.0
outer loop
vertex 66.25 -30.3476916668364 5.0
vertex 66.7677669529664 -29.9503951103417 15.0
vertex 66.25 -30.3476916668364 15.0
endloop
endfacet
facet normal -1.22620972916716e-047 -5.30147397512904e-032 1.0
outer loop
vertex 62.5851854342773 -28.8296757701316 15.0
vertex 62.5851854342773 -27.535580544619 15.0
vertex 62.5 -28.1826281573753 15.0
endloop
endfacet
facet normal -1.22620972916716e-047 -5.30147397512904e-032 1.0
outer loop
vertex 62.5851854342773 -27.535580544619 15.0
vertex 62.5851854342773 -28.8296757701316 15.0
vertex 62.8349364905389 -29.4326281573753 15.0
endloop
endfacet
facet normal -1.22620972916716e-047 -5.30147397512904e-032 1.0
outer loop
vertex 62.5851854342773 -27.535580544619 15.0
vertex 62.8349364905389 -29.4326281573753 15.0
vertex 62.8349364905389 -26.9326281573753 15.0
endloop
endfacet
facet normal -1.22620972916716e-047 -5.30147397512904e-032 1.0
outer loop
vertex 62.8349364905389 -26.9326281573753 15.0
vertex 62.8349364905389 -29.4326281573753 15.0
vertex 63.2322330470336 -29.9503951103417 15.0
endloop
endfacet
facet normal -1.22620972916716e-047 -5.30147397512904e-032 1.0
outer loop
vertex 62.8349364905389 -26.9326281573753 15.0
vertex 63.2322330470336 -29.9503951103417 15.0
vertex 63.2322330470336 -26.414861204409 15.0
endloop
endfacet
facet normal -1.22620972916716e-047 -5.30147397512904e-032 1.0
outer loop
vertex 63.2322330470336 -26.414861204409 15.0
vertex 63.2322330470336 -29.9503951103417 15.0
vertex 63.75 -30.3476916668364 15.0
endloop
endfacet
facet normal -1.22620972916716e-047 -5.30147397512904e-032 1.0
outer loop
vertex 63.2322330470336 -26.414861204409 15.0
vertex 63.75 -30.3476916668364 15.0
vertex 63.75 -26.0175646479142 15.0
endloop
endfacet
facet normal -1.22620972916716e-047 -5.30147397512904e-032 1.0
outer loop
vertex 63.75 -26.0175646479142 15.0
vertex 63.75 -30.3476916668364 15.0
vertex 64.3529523872437 -30.597442723098 15.0
endloop
endfacet
facet normal -1.22620972916716e-047 -5.30147397512904e-032 1.0
outer loop
vertex 63.75 -26.0175646479142 15.0
vertex 64.3529523872437 -30.597442723098 15.0
vertex 64.3529523872437 -25.7678135916527 15.0
endloop
endfacet
facet normal -1.22620972916716e-047 -5.30147397512904e-032 1.0
outer loop
vertex 64.3529523872437 -25.7678135916527 15.0
vertex 64.3529523872437 -30.597442723098 15.0
vertex 65.0 -30.6826281573753 15.0
endloop
endfacet
facet normal -1.22620972916716e-047 -5.30147397512904e-032 1.0
outer loop
vertex 64.3529523872437 -25.7678135916527 15.0
vertex 65.0 -30.6826281573753 15.0
vertex 65.0 -25.6826281573753 15.0
endloop
endfacet
facet normal -1.22620972916716e-047 -5.30147397512904e-032 1.0
outer loop
vertex 65.0 -25.6826281573753 15.0
vertex 65.0 -30.6826281573753 15.0
vertex 65.6470476127563 -30.597442723098 15.0
endloop
endfacet
facet normal -1.22620972916716e-047 -5.30147397512904e-032 1.0
outer loop
vertex 65.0 -25.6826281573753 15.0
vertex 65.6470476127563 -30.597442723098 15.0
vertex 65.6470476127563 -25.7678135916527 15.0
endloop
endfacet
facet normal -1.22620972916716e-047 -5.30147397512904e-032 1.0
outer loop
vertex 65.6470476127563 -25.7678135916527 15.0
vertex 65.6470476127563 -30.597442723098 15.0
vertex 66.25 -30.3476916668364 15.0
endloop
endfacet
facet normal -1.22620972916716e-047 -5.30147397512904e-032 1.0
outer loop
vertex 65.6470476127563 -25.7678135916527 15.0
vertex 66.25 -30.3476916668364 15.0
vertex 66.25 -26.0175646479142 15.0
endloop
endfacet
facet normal -1.22620972916716e-047 -5.30147397512904e-032 1.0
outer loop
vertex 66.25 -26.0175646479142 15.0
vertex 66.25 -30.3476916668364 15.0
vertex 66.7677669529664 -29.9503951103417 15.0
endloop
endfacet
facet normal -1.22620972916716e-047 -5.30147397512904e-032 1.0
outer loop
vertex 66.25 -26.0175646479142 15.0
vertex 66.7677669529664 -29.9503951103417 15.0
vertex 66.7677669529664 -26.414861204409 15.0
endloop
endfacet
facet normal -1.22620972916716e-047 -5.30147397512904e-032 1.0
outer loop
vertex 66.7677669529664 -26.414861204409 15.0
vertex 66.7677669529664 -29.9503951103417 15.0
vertex 67.1650635094611 -29.4326281573753 15.0
endloop
endfacet
facet normal -1.22620972916716e-047 -5.30147397512904e-032 1.0
outer loop
vertex 66.7677669529664 -26.414861204409 15.0
vertex 67.1650635094611 -29.4326281573753 15.0
vertex 67.1650635094611 -26.9326281573753 15.0
endloop
endfacet
facet normal -1.22620972916716e-047 -5.30147397512904e-032 1.0
outer loop
vertex 67.1650635094611 -26.9326281573753 15.0
vertex 67.1650635094611 -29.4326281573753 15.0
vertex 67.4148145657227 -28.8296757701316 15.0
endloop
endfacet
facet normal -1.22620972916716e-047 -5.30147397512904e-032 1.0
outer loop
vertex 67.1650635094611 -26.9326281573753 15.0
vertex 67.4148145657227 -28.8296757701316 15.0
vertex 67.4148145657227 -27.535580544619 15.0
endloop
endfacet
facet normal -1.22620972916716e-047 -5.30147397512904e-032 1.0
outer loop
vertex 67.4148145657227 -27.535580544619 15.0
vertex 67.4148145657227 -28.8296757701316 15.0
vertex 67.5 -28.1826281573753 15.0
endloop
endfacet
facet normal -0.258819045102519 -0.965925826289069 0.0
outer loop
vertex 64.3529523872437 -30.597442723098 15.0
vertex 63.75 -30.3476916668364 5.0
vertex 64.3529523872437 -30.597442723098 5.0
endloop
endfacet
facet normal -0.499999999999997 -0.86602540378444 0.0
outer loop
vertex 63.75 -30.3476916668364 5.0
vertex 64.3529523872437 -30.597442723098 15.0
vertex 63.75 -30.3476916668364 15.0
endloop
endfacet
facet normal -0.707106781186547 0.707106781186548 0.0
outer loop
vertex 54.3933982822018 -17.5760264395771 5.0
vertex 52.0096189432334 -20.6826281573753 0.0
vertex 52.0096189432334 -20.6826281573753 5.0
endloop
endfacet
facet normal -0.866025403784439 0.5 0.0
outer loop
vertex 52.0096189432334 -20.6826281573753 0.0
vertex 54.3933982822018 -17.5760264395771 5.0
vertex 54.3933982822018 -17.5760264395771 0.0
endloop
endfacet
facet normal -0.707106781186547 0.707106781186548 0.0
outer loop
vertex 54.3933982822018 -17.5760264395771 5.0
vertex 57.5 -15.1922471006087 0.0
vertex 54.3933982822018 -17.5760264395771 0.0
endloop
endfacet
facet normal -0.499999999999999 0.866025403784439 0.0
outer loop
vertex 57.5 -15.1922471006087 0.0
vertex 54.3933982822018 -17.5760264395771 5.0
vertex 57.5 -15.1922471006087 5.0
endloop
endfacet
facet normal 0.0 0.0 -1.0
outer loop
vertex 50.511112605664 -24.3003424808375 0.0
vertex 50.511112605664 -32.0649138339131 0.0
vertex 50.0 -28.1826281573753 0.0
endloop
endfacet
facet normal 0.0 0.0 -1.0
outer loop
vertex 50.511112605664 -32.0649138339131 0.0
vertex 50.511112605664 -24.3003424808375 0.0
vertex 52.0096189432334 -20.6826281573753 0.0
endloop
endfacet
facet normal 0.0 0.0 -1.0
outer loop
vertex 50.511112605664 -32.0649138339131 0.0
vertex 52.0096189432334 -20.6826281573753 0.0
vertex 52.0096189432334 -35.6826281573753 0.0
endloop
endfacet
facet normal 0.0 0.0 -1.0
outer loop
vertex 52.0096189432334 -35.6826281573753 0.0
vertex 52.0096189432334 -20.6826281573753 0.0
vertex 54.3933982822018 -38.7892298751735 0.0
endloop
endfacet
facet normal 0.0 0.0 -1.0
outer loop
vertex 54.3933982822018 -38.7892298751735 0.0
vertex 52.0096189432334 -20.6826281573753 0.0
vertex 54.3933982822018 -17.5760264395771 0.0
endloop
endfacet
facet normal 0.0 0.0 -1.0
outer loop
vertex 54.3933982822018 -38.7892298751735 0.0
vertex 54.3933982822018 -17.5760264395771 0.0
vertex 57.5 -15.1922471006087 0.0
endloop
endfacet
facet normal 0.0 0.0 -1.0
outer loop
vertex 54.3933982822018 -38.7892298751735 0.0
vertex 57.5 -15.1922471006087 0.0
vertex 57.5 -41.1730092141419 0.0
endloop
endfacet
facet normal 0.0 0.0 -1.0
outer loop
vertex 57.5 -41.1730092141419 0.0
vertex 57.5 -15.1922471006087 0.0
vertex 61.1177143234622 -42.6715155517114 0.0
endloop
endfacet
facet normal 0.0 0.0 -1.0
outer loop
vertex 61.1177143234622 -42.6715155517114 0.0
vertex 57.5 -15.1922471006087 0.0
vertex 61.1177143234622 -13.6937407630393 0.0
endloop
endfacet
facet normal 0.0 0.0 -1.0
outer loop
vertex 61.1177143234622 -42.6715155517114 0.0
vertex 61.1177143234622 -13.6937407630393 0.0
vertex 65.0 -43.1826281573753 0.0
endloop
endfacet
facet normal 0.0 0.0 -1.0
outer loop
vertex 65.0 -43.1826281573753 0.0
vertex 61.1177143234622 -13.6937407630393 0.0
vertex 65.0 -13.1826281573753 0.0
endloop
endfacet
facet normal 0.0 0.0 -1.0
outer loop
vertex 65.0 -43.1826281573753 0.0
vertex 65.0 -13.1826281573753 0.0
vertex 68.8822856765378 -13.6937407630393 0.0
endloop
endfacet
facet normal 0.0 0.0 -1.0
outer loop
vertex 65.0 -43.1826281573753 0.0
vertex 68.8822856765378 -13.6937407630393 0.0
vertex 68.8822856765378 -42.6715155517114 0.0
endloop
endfacet
facet normal 0.0 0.0 -1.0
outer loop
vertex 68.8822856765378 -42.6715155517114 0.0
vertex 68.8822856765378 -13.6937407630393 0.0
vertex 72.5 -41.1730092141419 0.0
endloop
endfacet
facet normal 0.0 0.0 -1.0
outer loop
vertex 72.5 -41.1730092141419 0.0
vertex 68.8822856765378 -13.6937407630393 0.0
vertex 72.5 -15.1922471006088 0.0
endloop
endfacet
facet normal 0.0 0.0 -1.0
outer loop
vertex 72.5 -41.1730092141419 0.0
vertex 72.5 -15.1922471006088 0.0
vertex 75.6066017177982 -38.7892298751735 0.0
endloop
endfacet
facet normal 0.0 0.0 -1.0
outer loop
vertex 75.6066017177982 -38.7892298751735 0.0
vertex 72.5 -15.1922471006088 0.0
vertex 75.6066017177982 -17.5760264395771 0.0
endloop
endfacet
facet normal 0.0 0.0 -1.0
outer loop
vertex 75.6066017177982 -38.7892298751735 0.0
vertex 75.6066017177982 -17.5760264395771 0.0
vertex 77.9903810567666 -20.6826281573753 0.0
endloop
endfacet
facet normal 0.0 0.0 -1.0
outer loop
vertex 75.6066017177982 -38.7892298751735 0.0
vertex 77.9903810567666 -20.6826281573753 0.0
vertex 77.9903810567666 -35.6826281573753 0.0
endloop
endfacet
facet normal 0.0 0.0 -1.0
outer loop
vertex 77.9903810567666 -35.6826281573753 0.0
vertex 77.9903810567666 -20.6826281573753 0.0
vertex 79.488887394336 -24.3003424808375 0.0
endloop
endfacet
facet normal 0.0 0.0 -1.0
outer loop
vertex 77.9903810567666 -35.6826281573753 0.0
vertex 79.488887394336 -24.3003424808375 0.0
vertex 79.488887394336 -32.0649138339131 0.0
endloop
endfacet
facet normal 0.0 0.0 -1.0
outer loop
vertex 79.488887394336 -32.0649138339131 0.0
vertex 79.488887394336 -24.3003424808375 0.0
vertex 80.0 -28.1826281573753 0.0
endloop
endfacet
facet normal -0.499999999999999 0.866025403784439 0.0
outer loop
vertex 57.5 -15.1922471006087 5.0
vertex 61.1177143234622 -13.6937407630393 0.0
vertex 57.5 -15.1922471006087 0.0
endloop
endfacet
facet normal -0.258819045102521 0.965925826289068 0.0
outer loop
vertex 61.1177143234622 -13.6937407630393 0.0
vertex 57.5 -15.1922471006087 5.0
vertex 61.1177143234622 -13.6937407630393 5.0
endloop
endfacet
facet normal 2.94526331951613e-032 7.36315829879033e-033 1.0
outer loop
vertex 50.511112605664 -32.0649138339131 5.0
vertex 50.511112605664 -24.3003424808375 5.0
vertex 50.0 -28.1826281573753 5.0
endloop
endfacet
facet normal 2.94526331951613e-032 7.36315829879033e-033 1.0
outer loop
vertex 50.511112605664 -24.3003424808375 5.0
vertex 50.511112605664 -32.0649138339131 5.0
vertex 52.0096189432334 -35.6826281573753 5.0
endloop
endfacet
facet normal 2.94526331951613e-032 7.36315829879033e-033 1.0
outer loop
vertex 50.511112605664 -24.3003424808375 5.0
vertex 52.0096189432334 -35.6826281573753 5.0
vertex 52.0096189432334 -20.6826281573753 5.0
endloop
endfacet
facet normal 2.94526331951613e-032 7.36315829879033e-033 1.0
outer loop
vertex 52.0096189432334 -20.6826281573753 5.0
vertex 52.0096189432334 -35.6826281573753 5.0
vertex 54.3933982822018 -38.7892298751735 5.0
endloop
endfacet
facet normal 2.94526331951613e-032 7.36315829879033e-033 1.0
outer loop
vertex 52.0096189432334 -20.6826281573753 5.0
vertex 54.3933982822018 -38.7892298751735 5.0
vertex 54.3933982822018 -17.5760264395771 5.0
endloop
endfacet
facet normal 2.94526331951613e-032 7.36315829879033e-033 1.0
outer loop
vertex 54.3933982822018 -17.5760264395771 5.0
vertex 54.3933982822018 -38.7892298751735 5.0
vertex 57.5 -41.1730092141419 5.0
endloop
endfacet
facet normal 2.94526331951613e-032 7.36315829879033e-033 1.0
outer loop
vertex 54.3933982822018 -17.5760264395771 5.0
vertex 57.5 -41.1730092141419 5.0
vertex 57.5 -15.1922471006087 5.0
endloop
endfacet
facet normal 2.94526331951613e-032 7.36315829879033e-033 1.0
outer loop
vertex 57.5 -15.1922471006087 5.0
vertex 57.5 -41.1730092141419 5.0
vertex 61.1177143234622 -42.6715155517114 5.0
endloop
endfacet
facet normal 2.94526331951613e-032 7.36315829879033e-033 1.0
outer loop
vertex 57.5 -15.1922471006087 5.0
vertex 61.1177143234622 -42.6715155517114 5.0
vertex 61.1177143234622 -13.6937407630393 5.0
endloop
endfacet
facet normal 2.94526331951613e-032 7.36315829879033e-033 1.0
outer loop
vertex 61.1177143234622 -13.6937407630393 5.0
vertex 61.1177143234622 -42.6715155517114 5.0
vertex 62.5 -28.1826281573753 5.0
endloop
endfacet
facet normal 2.94526331951613e-032 7.36315829879033e-033 1.0
outer loop
vertex 62.5 -28.1826281573753 5.0
vertex 61.1177143234622 -42.6715155517114 5.0
vertex 62.5851854342773 -28.8296757701316 5.0
endloop
endfacet
facet normal 2.94526331951613e-032 7.36315829879033e-033 1.0
outer loop
vertex 62.5851854342773 -28.8296757701316 5.0
vertex 61.1177143234622 -42.6715155517114 5.0
vertex 65.0 -43.1826281573753 5.0
endloop
endfacet
facet normal 2.94526331951613e-032 7.36315829879033e-033 1.0
outer loop
vertex 62.5851854342773 -28.8296757701316 5.0
vertex 65.0 -43.1826281573753 5.0
vertex 62.8349364905389 -29.4326281573753 5.0
endloop
endfacet
facet normal 2.94526331951613e-032 7.36315829879033e-033 1.0
outer loop
vertex 62.8349364905389 -29.4326281573753 5.0
vertex 65.0 -43.1826281573753 5.0
vertex 63.2322330470336 -29.9503951103417 5.0
endloop
endfacet
facet normal 2.94526331951613e-032 7.36315829879033e-033 1.0
outer loop
vertex 63.2322330470336 -29.9503951103417 5.0
vertex 65.0 -43.1826281573753 5.0
vertex 63.75 -30.3476916668364 5.0
endloop
endfacet
facet normal 2.94526331951613e-032 7.36315829879033e-033 1.0
outer loop
vertex 63.75 -30.3476916668364 5.0
vertex 65.0 -43.1826281573753 5.0
vertex 64.3529523872437 -30.597442723098 5.0
endloop
endfacet
facet normal 2.94526331951613e-032 7.36315829879033e-033 1.0
outer loop
vertex 64.3529523872437 -30.597442723098 5.0
vertex 65.0 -43.1826281573753 5.0
vertex 65.0 -30.6826281573753 5.0
endloop
endfacet
facet normal 2.94526331951613e-032 7.36315829879033e-033 1.0
outer loop
vertex 65.0 -30.6826281573753 5.0
vertex 65.0 -43.1826281573753 5.0
vertex 68.8822856765378 -42.6715155517114 5.0
endloop
endfacet
facet normal 2.94526331951613e-032 7.36315829879033e-033 1.0
outer loop
vertex 65.0 -30.6826281573753 5.0
vertex 68.8822856765378 -42.6715155517114 5.0
vertex 65.6470476127563 -30.597442723098 5.0
endloop
endfacet
facet normal 2.94526331951613e-032 7.36315829879033e-033 1.0
outer loop
vertex 65.6470476127563 -30.597442723098 5.0
vertex 68.8822856765378 -42.6715155517114 5.0
vertex 66.25 -30.3476916668364 5.0
endloop
endfacet
facet normal 2.94526331951613e-032 7.36315829879033e-033 1.0
outer loop
vertex 66.25 -30.3476916668364 5.0
vertex 68.8822856765378 -42.6715155517114 5.0
vertex 66.7677669529664 -29.9503951103417 5.0
endloop
endfacet
facet normal 2.94526331951613e-032 7.36315829879033e-033 1.0
outer loop
vertex 66.7677669529664 -29.9503951103417 5.0
vertex 68.8822856765378 -42.6715155517114 5.0
vertex 67.1650635094611 -29.4326281573753 5.0
endloop
endfacet
facet normal 2.94526331951613e-032 7.36315829879033e-033 1.0
outer loop
vertex 67.1650635094611 -29.4326281573753 5.0
vertex 68.8822856765378 -42.6715155517114 5.0
vertex 67.4148145657227 -28.8296757701316 5.0
endloop
endfacet
facet normal 2.94526331951613e-032 7.36315829879033e-033 1.0
outer loop
vertex 67.4148145657227 -28.8296757701316 5.0
vertex 68.8822856765378 -42.6715155517114 5.0
vertex 67.5 -28.1826281573753 5.0
endloop
endfacet
facet normal 2.94526331951613e-032 7.36315829879033e-033 1.0
outer loop
vertex 61.1177143234622 -13.6937407630393 5.0
vertex 62.5851854342773 -27.535580544619 5.0
vertex 65.0 -13.1826281573753 5.0
endloop
endfacet
facet normal 2.94526331951613e-032 7.36315829879033e-033 1.0
outer loop
vertex 62.5851854342773 -27.535580544619 5.0
vertex 61.1177143234622 -13.6937407630393 5.0
vertex 62.5 -28.1826281573753 5.0
endloop
endfacet
facet normal 2.94526331951613e-032 7.36315829879033e-033 1.0
outer loop
vertex 65.0 -13.1826281573753 5.0
vertex 62.5851854342773 -27.535580544619 5.0
vertex 62.8349364905389 -26.9326281573753 5.0
endloop
endfacet
facet normal 2.94526331951613e-032 7.36315829879033e-033 1.0
outer loop
vertex 65.0 -13.1826281573753 5.0
vertex 62.8349364905389 -26.9326281573753 5.0
vertex 63.2322330470336 -26.414861204409 5.0
endloop
endfacet
facet normal 2.94526331951613e-032 7.36315829879033e-033 1.0
outer loop
vertex 65.0 -13.1826281573753 5.0
vertex 63.2322330470336 -26.414861204409 5.0
vertex 63.75 -26.0175646479142 5.0
endloop
endfacet
facet normal 2.94526331951613e-032 7.36315829879033e-033 1.0
outer loop
vertex 65.0 -13.1826281573753 5.0
vertex 63.75 -26.0175646479142 5.0
vertex 64.3529523872437 -25.7678135916527 5.0
endloop
endfacet
facet normal 2.94526331951613e-032 7.36315829879033e-033 1.0
outer loop
vertex 65.0 -13.1826281573753 5.0
vertex 64.3529523872437 -25.7678135916527 5.0
vertex 65.0 -25.6826281573753 5.0
endloop
endfacet
facet normal 2.94526331951613e-032 7.36315829879033e-033 1.0
outer loop
vertex 65.0 -13.1826281573753 5.0
vertex 65.0 -25.6826281573753 5.0
vertex 65.6470476127563 -25.7678135916527 5.0
endloop
endfacet
facet normal 2.94526331951613e-032 7.36315829879033e-033 1.0
outer loop
vertex 65.0 -13.1826281573753 5.0
vertex 65.6470476127563 -25.7678135916527 5.0
vertex 68.8822856765378 -13.6937407630393 5.0
endloop
endfacet
facet normal 2.94526331951613e-032 7.36315829879033e-033 1.0
outer loop
vertex 68.8822856765378 -13.6937407630393 5.0
vertex 65.6470476127563 -25.7678135916527 5.0
vertex 66.25 -26.0175646479142 5.0
endloop
endfacet
facet normal 2.94526331951613e-032 7.36315829879033e-033 1.0
outer loop
vertex 68.8822856765378 -13.6937407630393 5.0
vertex 66.25 -26.0175646479142 5.0
vertex 66.7677669529664 -26.414861204409 5.0
endloop
endfacet
facet normal 2.94526331951613e-032 7.36315829879033e-033 1.0
outer loop
vertex 68.8822856765378 -13.6937407630393 5.0
vertex 66.7677669529664 -26.414861204409 5.0
vertex 67.1650635094611 -26.9326281573753 5.0
endloop
endfacet
facet normal 2.94526331951613e-032 7.36315829879033e-033 1.0
outer loop
vertex 68.8822856765378 -13.6937407630393 5.0
vertex 67.1650635094611 -26.9326281573753 5.0
vertex 67.4148145657227 -27.535580544619 5.0
endloop
endfacet
facet normal 2.94526331951613e-032 7.36315829879033e-033 1.0
outer loop
vertex 68.8822856765378 -13.6937407630393 5.0
vertex 67.4148145657227 -27.535580544619 5.0
vertex 67.5 -28.1826281573753 5.0
endloop
endfacet
facet normal 2.94526331951613e-032 7.36315829879033e-033 1.0
outer loop
vertex 68.8822856765378 -13.6937407630393 5.0
vertex 67.5 -28.1826281573753 5.0
vertex 68.8822856765378 -42.6715155517114 5.0
endloop
endfacet
facet normal 2.94526331951613e-032 7.36315829879033e-033 1.0
outer loop
vertex 68.8822856765378 -13.6937407630393 5.0
vertex 68.8822856765378 -42.6715155517114 5.0
vertex 72.5 -41.1730092141419 5.0
endloop
endfacet
facet normal 2.94526331951613e-032 7.36315829879033e-033 1.0
outer loop
vertex 68.8822856765378 -13.6937407630393 5.0
vertex 72.5 -41.1730092141419 5.0
vertex 72.5 -15.1922471006088 5.0
endloop
endfacet
facet normal 2.94526331951613e-032 7.36315829879033e-033 1.0
outer loop
vertex 72.5 -15.1922471006088 5.0
vertex 72.5 -41.1730092141419 5.0
vertex 75.6066017177982 -38.7892298751735 5.0
endloop
endfacet
facet normal 2.94526331951613e-032 7.36315829879033e-033 1.0
outer loop
vertex 72.5 -15.1922471006088 5.0
vertex 75.6066017177982 -38.7892298751735 5.0
vertex 75.6066017177982 -17.5760264395771 5.0
endloop
endfacet
facet normal 2.94526331951613e-032 7.36315829879033e-033 1.0
outer loop
vertex 75.6066017177982 -17.5760264395771 5.0
vertex 75.6066017177982 -38.7892298751735 5.0
vertex 77.9903810567666 -35.6826281573753 5.0
endloop
endfacet
facet normal 2.94526331951613e-032 7.36315829879033e-033 1.0
outer loop
vertex 75.6066017177982 -17.5760264395771 5.0
vertex 77.9903810567666 -35.6826281573753 5.0
vertex 77.9903810567666 -20.6826281573753 5.0
endloop
endfacet
facet normal 2.94526331951613e-032 7.36315829879033e-033 1.0
outer loop
vertex 77.9903810567666 -20.6826281573753 5.0
vertex 77.9903810567666 -35.6826281573753 5.0
vertex 79.488887394336 -32.0649138339131 5.0
endloop
endfacet
facet normal 2.94526331951613e-032 7.36315829879033e-033 1.0
outer loop
vertex 77.9903810567666 -20.6826281573753 5.0
vertex 79.488887394336 -32.0649138339131 5.0
vertex 79.488887394336 -24.3003424808375 5.0
endloop
endfacet
facet normal 2.94526331951613e-032 7.36315829879033e-033 1.0
outer loop
vertex 79.488887394336 -24.3003424808375 5.0
vertex 79.488887394336 -32.0649138339131 5.0
vertex 80.0 -28.1826281573753 5.0
endloop
endfacet
facet normal -1.96044417704232e-016 1.0 0.0
outer loop
vertex 65.0 -13.1826281573753 5.0
vertex 68.8822856765378 -13.6937407630393 0.0
vertex 65.0 -13.1826281573753 0.0
endloop
endfacet
facet normal 0.258819045102521 0.965925826289068 0.0
outer loop
vertex 68.8822856765378 -13.6937407630393 0.0
vertex 65.0 -13.1826281573753 5.0
vertex 68.8822856765378 -13.6937407630393 5.0
endloop
endfacet
facet normal 1.0 8.01999890608221e-017 0.0
outer loop
vertex 80.0 -28.1826281573753 0.0
vertex 79.488887394336 -32.0649138339131 5.0
vertex 79.488887394336 -32.0649138339131 0.0
endloop
endfacet
facet normal 0.965925826289069 -0.25881904510252 0.0
outer loop
vertex 79.488887394336 -32.0649138339131 5.0
vertex 80.0 -28.1826281573753 0.0
vertex 80.0 -28.1826281573753 5.0
endloop
endfacet
facet normal -0.5 -0.866025403784439 0.0
outer loop
vertex 57.5 -41.1730092141419 5.0
vertex 54.3933982822018 -38.7892298751735 0.0
vertex 57.5 -41.1730092141419 0.0
endloop
endfacet
facet normal -0.707106781186547 -0.707106781186548 0.0
outer loop
vertex 54.3933982822018 -38.7892298751735 0.0
vertex 57.5 -41.1730092141419 5.0
vertex 54.3933982822018 -38.7892298751735 5.0
endloop
endfacet
facet normal -0.965925826289068 0.258819045102522 0.0
outer loop
vertex 50.511112605664 -24.3003424808375 5.0
vertex 50.0 -28.1826281573753 0.0
vertex 50.0 -28.1826281573753 5.0
endloop
endfacet
facet normal -1.0 -2.31688857286819e-016 0.0
outer loop
vertex 50.0 -28.1826281573753 0.0
vertex 50.511112605664 -24.3003424808375 5.0
vertex 50.511112605664 -24.3003424808375 0.0
endloop
endfacet
facet normal -0.866025403784439 -0.5 0.0
outer loop
vertex 52.0096189432334 -35.6826281573753 5.0
vertex 54.3933982822018 -38.7892298751735 0.0
vertex 54.3933982822018 -38.7892298751735 5.0
endloop
endfacet
facet normal -0.707106781186547 -0.707106781186548 0.0
outer loop
vertex 54.3933982822018 -38.7892298751735 0.0
vertex 52.0096189432334 -35.6826281573753 5.0
vertex 52.0096189432334 -35.6826281573753 0.0
endloop
endfacet
facet normal -1.0 -2.31688857286819e-016 0.0
outer loop
vertex 50.0 -28.1826281573753 5.0
vertex 50.511112605664 -32.0649138339131 0.0
vertex 50.511112605664 -32.0649138339131 5.0
endloop
endfacet
facet normal -0.965925826289068 -0.258819045102521 0.0
outer loop
vertex 50.511112605664 -32.0649138339131 0.0
vertex 50.0 -28.1826281573753 5.0
vertex 50.0 -28.1826281573753 0.0
endloop
endfacet
facet normal 0.965925826289069 0.25881904510252 0.0
outer loop
vertex 79.488887394336 -24.3003424808375 0.0
vertex 80.0 -28.1826281573753 5.0
vertex 80.0 -28.1826281573753 0.0
endloop
endfacet
facet normal 1.0 8.01999890608221e-017 0.0
outer loop
vertex 80.0 -28.1826281573753 5.0
vertex 79.488887394336 -24.3003424808375 0.0
vertex 79.488887394336 -24.3003424808375 5.0
endloop
endfacet
facet normal 0.500000000000001 0.866025403784438 0.0
outer loop
vertex 72.5 -15.1922471006088 5.0
vertex 75.6066017177982 -17.5760264395771 0.0
vertex 72.5 -15.1922471006088 0.0
endloop
endfacet
facet normal 0.707106781186548 0.707106781186547 0.0
outer loop
vertex 75.6066017177982 -17.5760264395771 0.0
vertex 72.5 -15.1922471006088 5.0
vertex 75.6066017177982 -17.5760264395771 5.0
endloop
endfacet
facet normal 0.258819045102521 -0.965925826289068 0.0
outer loop
vertex 68.8822856765378 -42.6715155517114 5.0
vertex 65.0 -43.1826281573753 0.0
vertex 68.8822856765378 -42.6715155517114 0.0
endloop
endfacet
facet normal 1.96044417704232e-016 -1.0 0.0
outer loop
vertex 65.0 -43.1826281573753 0.0
vertex 68.8822856765378 -42.6715155517114 5.0
vertex 65.0 -43.1826281573753 5.0
endloop
endfacet
facet normal 0.499999999999999 -0.866025403784439 0.0
outer loop
vertex 72.5 -41.1730092141419 5.0
vertex 68.8822856765378 -42.6715155517114 0.0
vertex 72.5 -41.1730092141419 0.0
endloop
endfacet
facet normal 0.258819045102521 -0.965925826289068 0.0
outer loop
vertex 68.8822856765378 -42.6715155517114 0.0
vertex 72.5 -41.1730092141419 5.0
vertex 68.8822856765378 -42.6715155517114 5.0
endloop
endfacet
facet normal 0.965925826289069 -0.25881904510252 0.0
outer loop
vertex 79.488887394336 -32.0649138339131 0.0
vertex 77.9903810567666 -35.6826281573753 5.0
vertex 77.9903810567666 -35.6826281573753 0.0
endloop
endfacet
facet normal 0.866025403784439 -0.5 0.0
outer loop
vertex 77.9903810567666 -35.6826281573753 5.0
vertex 79.488887394336 -32.0649138339131 0.0
vertex 79.488887394336 -32.0649138339131 5.0
endloop
endfacet
facet normal 0.866025403784439 -0.5 0.0
outer loop
vertex 77.9903810567666 -35.6826281573753 0.0
vertex 75.6066017177982 -38.7892298751735 5.0
vertex 75.6066017177982 -38.7892298751735 0.0
endloop
endfacet
facet normal 0.707106781186547 -0.707106781186548 0.0
outer loop
vertex 75.6066017177982 -38.7892298751735 5.0
vertex 77.9903810567666 -35.6826281573753 0.0
vertex 77.9903810567666 -35.6826281573753 5.0
endloop
endfacet
facet normal -0.258819045102521 -0.965925826289068 0.0
outer loop
vertex 61.1177143234622 -42.6715155517114 5.0
vertex 57.5 -41.1730092141419 0.0
vertex 61.1177143234622 -42.6715155517114 0.0
endloop
endfacet
facet normal -0.5 -0.866025403784439 0.0
outer loop
vertex 57.5 -41.1730092141419 0.0
vertex 61.1177143234622 -42.6715155517114 5.0
vertex 57.5 -41.1730092141419 5.0
endloop
endfacet
facet normal -0.965925826289068 -0.258819045102521 0.0
outer loop
vertex 50.511112605664 -32.0649138339131 5.0
vertex 52.0096189432334 -35.6826281573753 0.0
vertex 52.0096189432334 -35.6826281573753 5.0
endloop
endfacet
facet normal -0.866025403784439 -0.5 0.0
outer loop
vertex 52.0096189432334 -35.6826281573753 0.0
vertex 50.511112605664 -32.0649138339131 5.0
vertex 50.511112605664 -32.0649138339131 0.0
endloop
endfacet
facet normal -0.866025403784439 0.5 0.0
outer loop
vertex 52.0096189432334 -20.6826281573753 5.0
vertex 50.511112605664 -24.3003424808375 0.0
vertex 50.511112605664 -24.3003424808375 5.0
endloop
endfacet
facet normal -0.965925826289068 0.258819045102522 0.0
outer loop
vertex 50.511112605664 -24.3003424808375 0.0
vertex 52.0096189432334 -20.6826281573753 5.0
vertex 52.0096189432334 -20.6826281573753 0.0
endloop
endfacet
facet normal 0.707106781186548 0.707106781186547 0.0
outer loop
vertex 75.6066017177982 -17.5760264395771 0.0
vertex 77.9903810567666 -20.6826281573753 5.0
vertex 77.9903810567666 -20.6826281573753 0.0
endloop
endfacet
facet normal 0.866025403784439 0.5 0.0
outer loop
vertex 77.9903810567666 -20.6826281573753 5.0
vertex 75.6066017177982 -17.5760264395771 0.0
vertex 75.6066017177982 -17.5760264395771 5.0
endloop
endfacet
facet normal 0.258819045102521 0.965925826289068 0.0
outer loop
vertex 68.8822856765378 -13.6937407630393 5.0
vertex 72.5 -15.1922471006088 0.0
vertex 68.8822856765378 -13.6937407630393 0.0
endloop
endfacet
facet normal 0.500000000000001 0.866025403784438 0.0
outer loop
vertex 72.5 -15.1922471006088 0.0
vertex 68.8822856765378 -13.6937407630393 5.0
vertex 72.5 -15.1922471006088 5.0
endloop
endfacet
facet normal -0.258819045102521 0.965925826289068 0.0
outer loop
vertex 61.1177143234622 -13.6937407630393 5.0
vertex 65.0 -13.1826281573753 0.0
vertex 61.1177143234622 -13.6937407630393 0.0
endloop
endfacet
facet normal -1.96044417704232e-016 1.0 0.0
outer loop
vertex 65.0 -13.1826281573753 0.0
vertex 61.1177143234622 -13.6937407630393 5.0
vertex 65.0 -13.1826281573753 5.0
endloop
endfacet
facet normal 0.866025403784439 0.5 0.0
outer loop
vertex 77.9903810567666 -20.6826281573753 0.0
vertex 79.488887394336 -24.3003424808375 5.0
vertex 79.488887394336 -24.3003424808375 0.0
endloop
endfacet
facet normal 0.965925826289069 0.25881904510252 0.0
outer loop
vertex 79.488887394336 -24.3003424808375 5.0
vertex 77.9903810567666 -20.6826281573753 0.0
vertex 77.9903810567666 -20.6826281573753 5.0
endloop
endfacet
facet normal 0.707106781186547 -0.707106781186548 0.0
outer loop
vertex 75.6066017177982 -38.7892298751735 5.0
vertex 72.5 -41.1730092141419 0.0
vertex 75.6066017177982 -38.7892298751735 0.0
endloop
endfacet
facet normal 0.499999999999999 -0.866025403784439 0.0
outer loop
vertex 72.5 -41.1730092141419 0.0
vertex 75.6066017177982 -38.7892298751735 5.0
vertex 72.5 -41.1730092141419 5.0
endloop
endfacet
facet normal 1.96044417704232e-016 -1.0 0.0
outer loop
vertex 65.0 -43.1826281573753 5.0
vertex 61.1177143234622 -42.6715155517114 0.0
vertex 65.0 -43.1826281573753 0.0
endloop
endfacet
facet normal -0.258819045102521 -0.965925826289068 0.0
outer loop
vertex 61.1177143234622 -42.6715155517114 0.0
vertex 65.0 -43.1826281573753 5.0
vertex 61.1177143234622 -42.6715155517114 5.0
endloop
endfacet
facet normal -0.258819045102519 0.965925826289069 0.0
outer loop
vertex 64.3529523872437 -25.7678135916527 15.0
vertex 65.0 -25.6826281573753 5.0
vertex 64.3529523872437 -25.7678135916527 5.0
endloop
endfacet
facet normal 0.0 1.0 0.0
outer loop
vertex 65.0 -25.6826281573753 5.0
vertex 64.3529523872437 -25.7678135916527 15.0
vertex 65.0 -25.6826281573753 15.0
endloop
endfacet
facet normal -0.965925826289069 -0.258819045102517 0.0
outer loop
vertex 62.5851854342773 -28.8296757701316 15.0
vertex 62.8349364905389 -29.4326281573753 5.0
vertex 62.8349364905389 -29.4326281573753 15.0
endloop
endfacet
facet normal -0.866025403784438 -0.500000000000001 0.0
outer loop
vertex 62.8349364905389 -29.4326281573753 5.0
vertex 62.5851854342773 -28.8296757701316 15.0
vertex 62.5851854342773 -28.8296757701316 5.0
endloop
endfacet
facet normal -0.866025403784438 0.500000000000001 0.0
outer loop
vertex 62.8349364905389 -26.9326281573753 15.0
vertex 62.5851854342773 -27.535580544619 5.0
vertex 62.5851854342773 -27.535580544619 15.0
endloop
endfacet
facet normal -0.965925826289069 0.258819045102517 0.0
outer loop
vertex 62.5851854342773 -27.535580544619 5.0
vertex 62.8349364905389 -26.9326281573753 15.0
vertex 62.8349364905389 -26.9326281573753 5.0
endloop
endfacet
facet normal 0.866025403784439 0.5 0.0
outer loop
vertex 67.1650635094611 -26.9326281573753 5.0
vertex 67.4148145657227 -27.535580544619 15.0
vertex 67.4148145657227 -27.535580544619 5.0
endloop
endfacet
facet normal 0.965925826289069 0.258819045102519 0.0
outer loop
vertex 67.4148145657227 -27.535580544619 15.0
vertex 67.1650635094611 -26.9326281573753 5.0
vertex 67.1650635094611 -26.9326281573753 15.0
endloop
endfacet
facet normal 0.258819045102519 -0.965925826289069 0.0
outer loop
vertex 65.6470476127563 -30.597442723098 15.0
vertex 65.0 -30.6826281573753 5.0
vertex 65.6470476127563 -30.597442723098 5.0
endloop
endfacet
facet normal 0.0 -1.0 0.0
outer loop
vertex 65.0 -30.6826281573753 5.0
vertex 65.6470476127563 -30.597442723098 15.0
vertex 65.0 -30.6826281573753 15.0
endloop
endfacet
facet normal -0.965925826289069 0.258819045102517 0.0
outer loop
vertex 62.5851854342773 -27.535580544619 15.0
vertex 62.5 -28.1826281573753 5.0
vertex 62.5 -28.1826281573753 15.0
endloop
endfacet
facet normal -1.0 1.78222197912938e-017 0.0
outer loop
vertex 62.5 -28.1826281573753 5.0
vertex 62.5851854342773 -27.535580544619 15.0
vertex 62.5851854342773 -27.535580544619 5.0
endloop
endfacet
facet normal 0.258819045102519 0.965925826289069 0.0
outer loop
vertex 65.6470476127563 -25.7678135916527 15.0
vertex 66.25 -26.0175646479142 5.0
vertex 65.6470476127563 -25.7678135916527 5.0
endloop
endfacet
facet normal 0.499999999999997 0.86602540378444 0.0
outer loop
vertex 66.25 -26.0175646479142 5.0
vertex 65.6470476127563 -25.7678135916527 15.0
vertex 66.25 -26.0175646479142 15.0
endloop
endfacet
facet normal 0.965925826289069 0.258819045102519 0.0
outer loop
vertex 67.4148145657227 -27.535580544619 5.0
vertex 67.5 -28.1826281573753 15.0
vertex 67.5 -28.1826281573753 5.0
endloop
endfacet
facet normal 1.0 5.70311033321401e-016 0.0
outer loop
vertex 67.5 -28.1826281573753 15.0
vertex 67.4148145657227 -27.535580544619 5.0
vertex 67.4148145657227 -27.535580544619 15.0
endloop
endfacet
facet normal 1.0 5.70311033321401e-016 0.0
outer loop
vertex 67.5 -28.1826281573753 5.0
vertex 67.4148145657227 -28.8296757701316 15.0
vertex 67.4148145657227 -28.8296757701316 5.0
endloop
endfacet
facet normal 0.965925826289069 -0.258819045102518 0.0
outer loop
vertex 67.4148145657227 -28.8296757701316 15.0
vertex 67.5 -28.1826281573753 5.0
vertex 67.5 -28.1826281573753 15.0
endloop
endfacet
facet normal -0.707106781186549 0.707106781186546 0.0
outer loop
vertex 63.2322330470336 -26.414861204409 15.0
vertex 62.8349364905389 -26.9326281573753 5.0
vertex 62.8349364905389 -26.9326281573753 15.0
endloop
endfacet
facet normal -0.866025403784438 0.500000000000001 0.0
outer loop
vertex 62.8349364905389 -26.9326281573753 5.0
vertex 63.2322330470336 -26.414861204409 15.0
vertex 63.2322330470336 -26.414861204409 5.0
endloop
endfacet
facet normal 0.0 -1.0 0.0
outer loop
vertex 65.0 -30.6826281573753 15.0
vertex 64.3529523872437 -30.597442723098 5.0
vertex 65.0 -30.6826281573753 5.0
endloop
endfacet
facet normal -0.258819045102519 -0.965925826289069 0.0
outer loop
vertex 64.3529523872437 -30.597442723098 5.0
vertex 65.0 -30.6826281573753 15.0
vertex 64.3529523872437 -30.597442723098 15.0
endloop
endfacet
endsolid untitled
