solid untitled
facet normal 2.94526331951613e-032 4.4178949792742e-033 1.0
outer loop
vertex 50.511112605664 16.1177143234622 5.0
vertex 50.511112605664 23.8822856765378 5.0
vertex 50.0 20.0 5.0
endloop
endfacet
facet normal 2.94526331951613e-032 4.4178949792742e-033 1.0
outer loop
vertex 50.511112605664 23.8822856765378 5.0
vertex 50.511112605664 16.1177143234622 5.0
vertex 52.0096189432334 12.5 5.0
endloop
endfacet
facet normal 2.94526331951613e-032 4.4178949792742e-033 1.0
outer loop
vertex 50.511112605664 23.8822856765378 5.0
vertex 52.0096189432334 12.5 5.0
vertex 52.0096189432334 27.5 5.0
endloop
endfacet
facet normal 2.94526331951613e-032 4.4178949792742e-033 1.0
outer loop
vertex 52.0096189432334 27.5 5.0
vertex 52.0096189432334 12.5 5.0
vertex 54.3933982822018 9.39339828220179 5.0
endloop
endfacet
facet normal 2.94526331951613e-032 4.4178949792742e-033 1.0
outer loop
vertex 52.0096189432334 27.5 5.0
vertex 54.3933982822018 9.39339828220179 5.0
vertex 54.3933982822018 30.6066017177982 5.0
endloop
endfacet
facet normal 2.94526331951613e-032 4.4178949792742e-033 1.0
outer loop
vertex 54.3933982822018 30.6066017177982 5.0
vertex 54.3933982822018 9.39339828220179 5.0
vertex 57.5 7.00961894323342 5.0
endloop
endfacet
facet normal 2.94526331951613e-032 4.4178949792742e-033 1.0
outer loop
vertex 54.3933982822018 30.6066017177982 5.0
vertex 57.5 7.00961894323342 5.0
vertex 57.5 32.9903810567666 5.0
endloop
endfacet
facet normal 2.94526331951613e-032 4.4178949792742e-033 1.0
outer loop
vertex 57.5 32.9903810567666 5.0
vertex 57.5 7.00961894323342 5.0
vertex 61.1177143234622 5.51111260566397 5.0
endloop
endfacet
facet normal 2.94526331951613e-032 4.4178949792742e-033 1.0
outer loop
vertex 57.5 32.9903810567666 5.0
vertex 61.1177143234622 5.51111260566397 5.0
vertex 61.1177143234622 34.488887394336 5.0
endloop
endfacet
facet normal 2.94526331951613e-032 4.4178949792742e-033 1.0
outer loop
vertex 61.1177143234622 34.488887394336 5.0
vertex 61.1177143234622 5.51111260566397 5.0
vertex 62.5 20.0 5.0
endloop
endfacet
facet normal 2.94526331951613e-032 4.4178949792742e-033 1.0
outer loop
vertex 62.5 20.0 5.0
vertex 61.1177143234622 5.51111260566397 5.0
vertex 62.5851854342773 19.3529523872437 5.0
endloop
endfacet
facet normal 2.94526331951613e-032 4.4178949792742e-033 1.0
outer loop
vertex 62.5851854342773 19.3529523872437 5.0
vertex 61.1177143234622 5.51111260566397 5.0
vertex 65.0 5.0 5.0
endloop
endfacet
facet normal 2.94526331951613e-032 4.4178949792742e-033 1.0
outer loop
vertex 62.5851854342773 19.3529523872437 5.0
vertex 65.0 5.0 5.0
vertex 62.8349364905389 18.75 5.0
endloop
endfacet
facet normal 2.94526331951613e-032 4.4178949792742e-033 1.0
outer loop
vertex 62.8349364905389 18.75 5.0
vertex 65.0 5.0 5.0
vertex 63.2322330470336 18.2322330470336 5.0
endloop
endfacet
facet normal 2.94526331951613e-032 4.4178949792742e-033 1.0
outer loop
vertex 63.2322330470336 18.2322330470336 5.0
vertex 65.0 5.0 5.0
vertex 63.75 17.8349364905389 5.0
endloop
endfacet
facet normal 2.94526331951613e-032 4.4178949792742e-033 1.0
outer loop
vertex 63.75 17.8349364905389 5.0
vertex 65.0 5.0 5.0
vertex 64.3529523872437 17.5851854342773 5.0
endloop
endfacet
facet normal 2.94526331951613e-032 4.4178949792742e-033 1.0
outer loop
vertex 64.3529523872437 17.5851854342773 5.0
vertex 65.0 5.0 5.0
vertex 65.0 17.5 5.0
endloop
endfacet
facet normal 2.94526331951613e-032 4.4178949792742e-033 1.0
outer loop
vertex 65.0 17.5 5.0
vertex 65.0 5.0 5.0
vertex 68.8822856765378 5.51111260566397 5.0
endloop
endfacet
facet normal 2.94526331951613e-032 4.4178949792742e-033 1.0
outer loop
vertex 65.0 17.5 5.0
vertex 68.8822856765378 5.51111260566397 5.0
vertex 65.6470476127563 17.5851854342773 5.0
endloop
endfacet
facet normal 2.94526331951613e-032 4.4178949792742e-033 1.0
outer loop
vertex 65.6470476127563 17.5851854342773 5.0
vertex 68.8822856765378 5.51111260566397 5.0
vertex 66.25 17.8349364905389 5.0
endloop
endfacet
facet normal 2.94526331951613e-032 4.4178949792742e-033 1.0
outer loop
vertex 66.25 17.8349364905389 5.0
vertex 68.8822856765378 5.51111260566397 5.0
vertex 66.7677669529664 18.2322330470336 5.0
endloop
endfacet
facet normal 2.94526331951613e-032 4.4178949792742e-033 1.0
outer loop
vertex 66.7677669529664 18.2322330470336 5.0
vertex 68.8822856765378 5.51111260566397 5.0
vertex 67.1650635094611 18.75 5.0
endloop
endfacet
facet normal 2.94526331951613e-032 4.4178949792742e-033 1.0
outer loop
vertex 67.1650635094611 18.75 5.0
vertex 68.8822856765378 5.51111260566397 5.0
vertex 67.4148145657227 19.3529523872437 5.0
endloop
endfacet
facet normal 2.94526331951613e-032 4.4178949792742e-033 1.0
outer loop
vertex 67.4148145657227 19.3529523872437 5.0
vertex 68.8822856765378 5.51111260566397 5.0
vertex 67.5 20.0 5.0
endloop
endfacet
facet normal 2.94526331951613e-032 4.4178949792742e-033 1.0
outer loop
vertex 61.1177143234622 34.488887394336 5.0
vertex 62.5851854342773 20.6470476127563 5.0
vertex 65.0 35.0 5.0
endloop
endfacet
facet normal 2.94526331951613e-032 4.4178949792742e-033 1.0
outer loop
vertex 62.5851854342773 20.6470476127563 5.0
vertex 61.1177143234622 34.488887394336 5.0
vertex 62.5 20.0 5.0
endloop
endfacet
facet normal 2.94526331951613e-032 4.4178949792742e-033 1.0
outer loop
vertex 65.0 35.0 5.0
vertex 62.5851854342773 20.6470476127563 5.0
vertex 62.8349364905389 21.25 5.0
endloop
endfacet
facet normal 2.94526331951613e-032 4.4178949792742e-033 1.0
outer loop
vertex 65.0 35.0 5.0
vertex 62.8349364905389 21.25 5.0
vertex 63.2322330470336 21.7677669529664 5.0
endloop
endfacet
facet normal 2.94526331951613e-032 4.4178949792742e-033 1.0
outer loop
vertex 65.0 35.0 5.0
vertex 63.2322330470336 21.7677669529664 5.0
vertex 63.75 22.1650635094611 5.0
endloop
endfacet
facet normal 2.94526331951613e-032 4.4178949792742e-033 1.0
outer loop
vertex 65.0 35.0 5.0
vertex 63.75 22.1650635094611 5.0
vertex 64.3529523872437 22.4148145657227 5.0
endloop
endfacet
facet normal 2.94526331951613e-032 4.4178949792742e-033 1.0
outer loop
vertex 65.0 35.0 5.0
vertex 64.3529523872437 22.4148145657227 5.0
vertex 65.0 22.5 5.0
endloop
endfacet
facet normal 2.94526331951613e-032 4.4178949792742e-033 1.0
outer loop
vertex 65.0 35.0 5.0
vertex 65.0 22.5 5.0
vertex 65.6470476127563 22.4148145657227 5.0
endloop
endfacet
facet normal 2.94526331951613e-032 4.4178949792742e-033 1.0
outer loop
vertex 65.0 35.0 5.0
vertex 65.6470476127563 22.4148145657227 5.0
vertex 68.8822856765378 34.488887394336 5.0
endloop
endfacet
facet normal 2.94526331951613e-032 4.4178949792742e-033 1.0
outer loop
vertex 68.8822856765378 34.488887394336 5.0
vertex 65.6470476127563 22.4148145657227 5.0
vertex 66.25 22.1650635094611 5.0
endloop
endfacet
facet normal 2.94526331951613e-032 4.4178949792742e-033 1.0
outer loop
vertex 68.8822856765378 34.488887394336 5.0
vertex 66.25 22.1650635094611 5.0
vertex 66.7677669529664 21.7677669529664 5.0
endloop
endfacet
facet normal 2.94526331951613e-032 4.4178949792742e-033 1.0
outer loop
vertex 68.8822856765378 34.488887394336 5.0
vertex 66.7677669529664 21.7677669529664 5.0
vertex 67.1650635094611 21.25 5.0
endloop
endfacet
facet normal 2.94526331951613e-032 4.4178949792742e-033 1.0
outer loop
vertex 68.8822856765378 34.488887394336 5.0
vertex 67.1650635094611 21.25 5.0
vertex 67.4148145657227 20.6470476127563 5.0
endloop
endfacet
facet normal 2.94526331951613e-032 4.4178949792742e-033 1.0
outer loop
vertex 68.8822856765378 34.488887394336 5.0
vertex 67.4148145657227 20.6470476127563 5.0
vertex 67.5 20.0 5.0
endloop
endfacet
facet normal 2.94526331951613e-032 4.4178949792742e-033 1.0
outer loop
vertex 68.8822856765378 34.488887394336 5.0
vertex 67.5 20.0 5.0
vertex 68.8822856765378 5.51111260566397 5.0
endloop
endfacet
facet normal 2.94526331951613e-032 4.4178949792742e-033 1.0
outer loop
vertex 68.8822856765378 34.488887394336 5.0
vertex 68.8822856765378 5.51111260566397 5.0
vertex 72.5 7.00961894323342 5.0
endloop
endfacet
facet normal 2.94526331951613e-032 4.4178949792742e-033 1.0
outer loop
vertex 68.8822856765378 34.488887394336 5.0
vertex 72.5 7.00961894323342 5.0
vertex 72.5 32.9903810567666 5.0
endloop
endfacet
facet normal 2.94526331951613e-032 4.4178949792742e-033 1.0
outer loop
vertex 72.5 32.9903810567666 5.0
vertex 72.5 7.00961894323342 5.0
vertex 75.6066017177982 9.39339828220178 5.0
endloop
endfacet
facet normal 2.94526331951613e-032 4.4178949792742e-033 1.0
outer loop
vertex 72.5 32.9903810567666 5.0
vertex 75.6066017177982 9.39339828220178 5.0
vertex 75.6066017177982 30.6066017177982 5.0
endloop
endfacet
facet normal 2.94526331951613e-032 4.4178949792742e-033 1.0
outer loop
vertex 75.6066017177982 30.6066017177982 5.0
vertex 75.6066017177982 9.39339828220178 5.0
vertex 77.9903810567666 12.5 5.0
endloop
endfacet
facet normal 2.94526331951613e-032 4.4178949792742e-033 1.0
outer loop
vertex 75.6066017177982 30.6066017177982 5.0
vertex 77.9903810567666 12.5 5.0
vertex 77.9903810567666 27.5 5.0
endloop
endfacet
facet normal 2.94526331951613e-032 4.4178949792742e-033 1.0
outer loop
vertex 77.9903810567666 27.5 5.0
vertex 77.9903810567666 12.5 5.0
vertex 79.488887394336 16.1177143234622 5.0
endloop
endfacet
facet normal 2.94526331951613e-032 4.4178949792742e-033 1.0
outer loop
vertex 77.9903810567666 27.5 5.0
vertex 79.488887394336 16.1177143234622 5.0
vertex 79.488887394336 23.8822856765378 5.0
endloop
endfacet
facet normal 2.94526331951613e-032 4.4178949792742e-033 1.0
outer loop
vertex 79.488887394336 23.8822856765378 5.0
vertex 79.488887394336 16.1177143234622 5.0
vertex 80.0 20.0 5.0
endloop
endfacet
facet normal -0.707106781186547 0.707106781186547 0.0
outer loop
vertex 54.3933982822018 30.6066017177982 5.0
vertex 52.0096189432334 27.5 0.0
vertex 52.0096189432334 27.5 5.0
endloop
endfacet
facet normal -0.866025403784438 0.5 0.0
outer loop
vertex 52.0096189432334 27.5 0.0
vertex 54.3933982822018 30.6066017177982 5.0
vertex 54.3933982822018 30.6066017177982 0.0
endloop
endfacet
facet normal -0.707106781186547 0.707106781186547 0.0
outer loop
vertex 54.3933982822018 30.6066017177982 5.0
vertex 57.5 32.9903810567666 0.0
vertex 54.3933982822018 30.6066017177982 0.0
endloop
endfacet
facet normal -0.499999999999999 0.866025403784439 0.0
outer loop
vertex 57.5 32.9903810567666 0.0
vertex 54.3933982822018 30.6066017177982 5.0
vertex 57.5 32.9903810567666 5.0
endloop
endfacet
facet normal 0.0 0.0 -1.0
outer loop
vertex 50.511112605664 23.8822856765378 0.0
vertex 50.511112605664 16.1177143234622 0.0
vertex 50.0 20.0 0.0
endloop
endfacet
facet normal 0.0 0.0 -1.0
outer loop
vertex 50.511112605664 16.1177143234622 0.0
vertex 50.511112605664 23.8822856765378 0.0
vertex 52.0096189432334 27.5 0.0
endloop
endfacet
facet normal 0.0 0.0 -1.0
outer loop
vertex 50.511112605664 16.1177143234622 0.0
vertex 52.0096189432334 27.5 0.0
vertex 52.0096189432334 12.5 0.0
endloop
endfacet
facet normal 0.0 0.0 -1.0
outer loop
vertex 52.0096189432334 12.5 0.0
vertex 52.0096189432334 27.5 0.0
vertex 54.3933982822018 9.39339828220179 0.0
endloop
endfacet
facet normal 0.0 0.0 -1.0
outer loop
vertex 54.3933982822018 9.39339828220179 0.0
vertex 52.0096189432334 27.5 0.0
vertex 54.3933982822018 30.6066017177982 0.0
endloop
endfacet
facet normal 0.0 0.0 -1.0
outer loop
vertex 54.3933982822018 9.39339828220179 0.0
vertex 54.3933982822018 30.6066017177982 0.0
vertex 57.5 32.9903810567666 0.0
endloop
endfacet
facet normal 0.0 0.0 -1.0
outer loop
vertex 54.3933982822018 9.39339828220179 0.0
vertex 57.5 32.9903810567666 0.0
vertex 57.5 7.00961894323342 0.0
endloop
endfacet
facet normal 0.0 0.0 -1.0
outer loop
vertex 57.5 7.00961894323342 0.0
vertex 57.5 32.9903810567666 0.0
vertex 61.1177143234622 5.51111260566397 0.0
endloop
endfacet
facet normal 0.0 0.0 -1.0
outer loop
vertex 61.1177143234622 5.51111260566397 0.0
vertex 57.5 32.9903810567666 0.0
vertex 61.1177143234622 34.488887394336 0.0
endloop
endfacet
facet normal 0.0 0.0 -1.0
outer loop
vertex 61.1177143234622 5.51111260566397 0.0
vertex 61.1177143234622 34.488887394336 0.0
vertex 65.0 5.0 0.0
endloop
endfacet
facet normal 0.0 0.0 -1.0
outer loop
vertex 65.0 5.0 0.0
vertex 61.1177143234622 34.488887394336 0.0
vertex 65.0 35.0 0.0
endloop
endfacet
facet normal 0.0 0.0 -1.0
outer loop
vertex 65.0 5.0 0.0
vertex 65.0 35.0 0.0
vertex 68.8822856765378 34.488887394336 0.0
endloop
endfacet
facet normal 0.0 0.0 -1.0
outer loop
vertex 65.0 5.0 0.0
vertex 68.8822856765378 34.488887394336 0.0
vertex 68.8822856765378 5.51111260566397 0.0
endloop
endfacet
facet normal 0.0 0.0 -1.0
outer loop
vertex 68.8822856765378 5.51111260566397 0.0
vertex 68.8822856765378 34.488887394336 0.0
vertex 72.5 7.00961894323342 0.0
endloop
endfacet
facet normal 0.0 0.0 -1.0
outer loop
vertex 72.5 7.00961894323342 0.0
vertex 68.8822856765378 34.488887394336 0.0
vertex 72.5 32.9903810567666 0.0
endloop
endfacet
facet normal 0.0 0.0 -1.0
outer loop
vertex 72.5 7.00961894323342 0.0
vertex 72.5 32.9903810567666 0.0
vertex 75.6066017177982 9.39339828220178 0.0
endloop
endfacet
facet normal 0.0 0.0 -1.0
outer loop
vertex 75.6066017177982 9.39339828220178 0.0
vertex 72.5 32.9903810567666 0.0
vertex 75.6066017177982 30.6066017177982 0.0
endloop
endfacet
facet normal 0.0 0.0 -1.0
outer loop
vertex 75.6066017177982 9.39339828220178 0.0
vertex 75.6066017177982 30.6066017177982 0.0
vertex 77.9903810567666 27.5 0.0
endloop
endfacet
facet normal 0.0 0.0 -1.0
outer loop
vertex 75.6066017177982 9.39339828220178 0.0
vertex 77.9903810567666 27.5 0.0
vertex 77.9903810567666 12.5 0.0
endloop
endfacet
facet normal 0.0 0.0 -1.0
outer loop
vertex 77.9903810567666 12.5 0.0
vertex 77.9903810567666 27.5 0.0
vertex 79.488887394336 23.8822856765378 0.0
endloop
endfacet
facet normal 0.0 0.0 -1.0
outer loop
vertex 77.9903810567666 12.5 0.0
vertex 79.488887394336 23.8822856765378 0.0
vertex 79.488887394336 16.1177143234622 0.0
endloop
endfacet
facet normal 0.0 0.0 -1.0
outer loop
vertex 79.488887394336 16.1177143234622 0.0
vertex 79.488887394336 23.8822856765378 0.0
vertex 80.0 20.0 0.0
endloop
endfacet
facet normal -0.499999999999999 0.866025403784439 0.0
outer loop
vertex 57.5 32.9903810567666 5.0
vertex 61.1177143234622 34.488887394336 0.0
vertex 57.5 32.9903810567666 0.0
endloop
endfacet
facet normal -0.258819045102521 0.965925826289068 0.0
outer loop
vertex 61.1177143234622 34.488887394336 0.0
vertex 57.5 32.9903810567666 5.0
vertex 61.1177143234622 34.488887394336 5.0
endloop
endfacet
facet normal -1.96044417704232e-016 1.0 0.0
outer loop
vertex 65.0 35.0 5.0
vertex 68.8822856765378 34.488887394336 0.0
vertex 65.0 35.0 0.0
endloop
endfacet
facet normal 0.258819045102521 0.965925826289068 0.0
outer loop
vertex 68.8822856765378 34.488887394336 0.0
vertex 65.0 35.0 5.0
vertex 68.8822856765378 34.488887394336 5.0
endloop
endfacet
facet normal 0.258819045102521 0.965925826289068 0.0
outer loop
vertex 68.8822856765378 34.488887394336 5.0
vertex 72.5 32.9903810567666 0.0
vertex 68.8822856765378 34.488887394336 0.0
endloop
endfacet
facet normal 0.500000000000001 0.866025403784438 0.0
outer loop
vertex 72.5 32.9903810567666 0.0
vertex 68.8822856765378 34.488887394336 5.0
vertex 72.5 32.9903810567666 5.0
endloop
endfacet
facet normal 0.707106781186548 0.707106781186547 0.0
outer loop
vertex 75.6066017177982 30.6066017177982 0.0
vertex 77.9903810567666 27.5 5.0
vertex 77.9903810567666 27.5 0.0
endloop
endfacet
facet normal 0.866025403784439 0.5 0.0
outer loop
vertex 77.9903810567666 27.5 5.0
vertex 75.6066017177982 30.6066017177982 0.0
vertex 75.6066017177982 30.6066017177982 5.0
endloop
endfacet
facet normal -0.258819045102521 0.965925826289068 0.0
outer loop
vertex 61.1177143234622 34.488887394336 5.0
vertex 65.0 35.0 0.0
vertex 61.1177143234622 34.488887394336 0.0
endloop
endfacet
facet normal -1.96044417704232e-016 1.0 0.0
outer loop
vertex 65.0 35.0 0.0
vertex 61.1177143234622 34.488887394336 5.0
vertex 65.0 35.0 5.0
endloop
endfacet
facet normal 0.500000000000001 0.866025403784438 0.0
outer loop
vertex 72.5 32.9903810567666 5.0
vertex 75.6066017177982 30.6066017177982 0.0
vertex 72.5 32.9903810567666 0.0
endloop
endfacet
facet normal 0.707106781186548 0.707106781186547 0.0
outer loop
vertex 75.6066017177982 30.6066017177982 0.0
vertex 72.5 32.9903810567666 5.0
vertex 75.6066017177982 30.6066017177982 5.0
endloop
endfacet
facet normal 0.866025403784439 0.5 0.0
outer loop
vertex 77.9903810567666 27.5 0.0
vertex 79.488887394336 23.8822856765378 5.0
vertex 79.488887394336 23.8822856765378 0.0
endloop
endfacet
facet normal 0.965925826289069 0.25881904510252 0.0
outer loop
vertex 79.488887394336 23.8822856765378 5.0
vertex 77.9903810567666 27.5 0.0
vertex 77.9903810567666 27.5 5.0
endloop
endfacet
facet normal 0.866025403784439 -0.5 0.0
outer loop
vertex 77.9903810567666 12.5 0.0
vertex 75.6066017177982 9.39339828220178 5.0
vertex 75.6066017177982 9.39339828220178 0.0
endloop
endfacet
facet normal 0.707106781186547 -0.707106781186548 0.0
outer loop
vertex 75.6066017177982 9.39339828220178 5.0
vertex 77.9903810567666 12.5 0.0
vertex 77.9903810567666 12.5 5.0
endloop
endfacet
facet normal 0.258819045102521 -0.965925826289068 0.0
outer loop
vertex 68.8822856765378 5.51111260566397 5.0
vertex 65.0 5.0 0.0
vertex 68.8822856765378 5.51111260566397 0.0
endloop
endfacet
facet normal 1.96044417704232e-016 -1.0 0.0
outer loop
vertex 65.0 5.0 0.0
vertex 68.8822856765378 5.51111260566397 5.0
vertex 65.0 5.0 5.0
endloop
endfacet
facet normal 1.0 8.01999890608221e-017 0.0
outer loop
vertex 80.0 20.0 0.0
vertex 79.488887394336 16.1177143234622 5.0
vertex 79.488887394336 16.1177143234622 0.0
endloop
endfacet
facet normal 0.965925826289069 -0.25881904510252 0.0
outer loop
vertex 79.488887394336 16.1177143234622 5.0
vertex 80.0 20.0 0.0
vertex 80.0 20.0 5.0
endloop
endfacet
facet normal -0.5 -0.866025403784439 0.0
outer loop
vertex 57.5 7.00961894323342 5.0
vertex 54.3933982822018 9.39339828220179 0.0
vertex 57.5 7.00961894323342 0.0
endloop
endfacet
facet normal -0.707106781186547 -0.707106781186548 0.0
outer loop
vertex 54.3933982822018 9.39339828220179 0.0
vertex 57.5 7.00961894323342 5.0
vertex 54.3933982822018 9.39339828220179 5.0
endloop
endfacet
facet normal -0.965925826289068 -0.258819045102521 0.0
outer loop
vertex 50.511112605664 16.1177143234622 5.0
vertex 52.0096189432334 12.5 0.0
vertex 52.0096189432334 12.5 5.0
endloop
endfacet
facet normal -0.866025403784439 -0.5 0.0
outer loop
vertex 52.0096189432334 12.5 0.0
vertex 50.511112605664 16.1177143234622 5.0
vertex 50.511112605664 16.1177143234622 0.0
endloop
endfacet
facet normal -0.965925826289068 0.258819045102522 0.0
outer loop
vertex 50.511112605664 23.8822856765378 5.0
vertex 50.0 20.0 0.0
vertex 50.0 20.0 5.0
endloop
endfacet
facet normal -1.0 -2.40599967182466e-016 0.0
outer loop
vertex 50.0 20.0 0.0
vertex 50.511112605664 23.8822856765378 5.0
vertex 50.511112605664 23.8822856765378 0.0
endloop
endfacet
facet normal -0.866025403784438 0.5 0.0
outer loop
vertex 52.0096189432334 27.5 5.0
vertex 50.511112605664 23.8822856765378 0.0
vertex 50.511112605664 23.8822856765378 5.0
endloop
endfacet
facet normal -0.965925826289068 0.258819045102522 0.0
outer loop
vertex 50.511112605664 23.8822856765378 0.0
vertex 52.0096189432334 27.5 5.0
vertex 52.0096189432334 27.5 0.0
endloop
endfacet
facet normal 0.499999999999999 -0.866025403784439 0.0
outer loop
vertex 72.5 7.00961894323342 5.0
vertex 68.8822856765378 5.51111260566397 0.0
vertex 72.5 7.00961894323342 0.0
endloop
endfacet
facet normal 0.258819045102521 -0.965925826289068 0.0
outer loop
vertex 68.8822856765378 5.51111260566397 0.0
vertex 72.5 7.00961894323342 5.0
vertex 68.8822856765378 5.51111260566397 5.0
endloop
endfacet
facet normal -0.866025403784439 -0.5 0.0
outer loop
vertex 52.0096189432334 12.5 5.0
vertex 54.3933982822018 9.39339828220179 0.0
vertex 54.3933982822018 9.39339828220179 5.0
endloop
endfacet
facet normal -0.707106781186547 -0.707106781186548 0.0
outer loop
vertex 54.3933982822018 9.39339828220179 0.0
vertex 52.0096189432334 12.5 5.0
vertex 52.0096189432334 12.5 0.0
endloop
endfacet
facet normal -1.0 -2.40599967182466e-016 0.0
outer loop
vertex 50.0 20.0 5.0
vertex 50.511112605664 16.1177143234622 0.0
vertex 50.511112605664 16.1177143234622 5.0
endloop
endfacet
facet normal -0.965925826289068 -0.258819045102521 0.0
outer loop
vertex 50.511112605664 16.1177143234622 0.0
vertex 50.0 20.0 5.0
vertex 50.0 20.0 0.0
endloop
endfacet
facet normal -0.258819045102521 -0.965925826289068 0.0
outer loop
vertex 61.1177143234622 5.51111260566397 5.0
vertex 57.5 7.00961894323342 0.0
vertex 61.1177143234622 5.51111260566397 0.0
endloop
endfacet
facet normal -0.5 -0.866025403784439 0.0
outer loop
vertex 57.5 7.00961894323342 0.0
vertex 61.1177143234622 5.51111260566397 5.0
vertex 57.5 7.00961894323342 5.0
endloop
endfacet
facet normal 0.965925826289069 0.25881904510252 0.0
outer loop
vertex 79.488887394336 23.8822856765378 0.0
vertex 80.0 20.0 5.0
vertex 80.0 20.0 0.0
endloop
endfacet
facet normal 1.0 8.01999890608221e-017 0.0
outer loop
vertex 80.0 20.0 5.0
vertex 79.488887394336 23.8822856765378 0.0
vertex 79.488887394336 23.8822856765378 5.0
endloop
endfacet
facet normal 0.965925826289069 -0.25881904510252 0.0
outer loop
vertex 79.488887394336 16.1177143234622 0.0
vertex 77.9903810567666 12.5 5.0
vertex 77.9903810567666 12.5 0.0
endloop
endfacet
facet normal 0.866025403784439 -0.5 0.0
outer loop
vertex 77.9903810567666 12.5 5.0
vertex 79.488887394336 16.1177143234622 0.0
vertex 79.488887394336 16.1177143234622 5.0
endloop
endfacet
facet normal 0.707106781186547 -0.707106781186548 0.0
outer loop
vertex 75.6066017177982 9.39339828220178 5.0
vertex 72.5 7.00961894323342 0.0
vertex 75.6066017177982 9.39339828220178 0.0
endloop
endfacet
facet normal 0.499999999999999 -0.866025403784439 0.0
outer loop
vertex 72.5 7.00961894323342 0.0
vertex 75.6066017177982 9.39339828220178 5.0
vertex 72.5 7.00961894323342 5.0
endloop
endfacet
facet normal 1.96044417704232e-016 -1.0 0.0
outer loop
vertex 65.0 5.0 5.0
vertex 61.1177143234622 5.51111260566397 0.0
vertex 65.0 5.0 0.0
endloop
endfacet
facet normal -0.258819045102521 -0.965925826289068 0.0
outer loop
vertex 61.1177143234622 5.51111260566397 0.0
vertex 65.0 5.0 5.0
vertex 61.1177143234622 5.51111260566397 5.0
endloop
endfacet
facet normal -0.965925826289069 -0.258819045102518 0.0
outer loop
vertex 62.5851854342773 19.3529523872437 10.0
vertex 62.8349364905389 18.75 5.0
vertex 62.8349364905389 18.75 10.0
endloop
endfacet
facet normal -0.866025403784439 -0.499999999999999 0.0
outer loop
vertex 62.8349364905389 18.75 5.0
vertex 62.5851854342773 19.3529523872437 10.0
vertex 62.5851854342773 19.3529523872437 5.0
endloop
endfacet
facet normal -0.258819045102521 0.965925826289068 0.0
outer loop
vertex 64.3529523872437 22.4148145657227 10.0
vertex 65.0 22.5 5.0
vertex 64.3529523872437 22.4148145657227 5.0
endloop
endfacet
facet normal 0.0 1.0 0.0
outer loop
vertex 65.0 22.5 5.0
vertex 64.3529523872437 22.4148145657227 10.0
vertex 65.0 22.5 10.0
endloop
endfacet
facet normal 0.866025403784439 0.5 0.0
outer loop
vertex 67.1650635094611 21.25 5.0
vertex 67.4148145657227 20.6470476127563 10.0
vertex 67.4148145657227 20.6470476127563 5.0
endloop
endfacet
facet normal 0.965925826289069 0.258819045102519 0.0
outer loop
vertex 67.4148145657227 20.6470476127563 10.0
vertex 67.1650635094611 21.25 5.0
vertex 67.1650635094611 21.25 10.0
endloop
endfacet
facet normal 0.258819045102521 -0.965925826289068 0.0
outer loop
vertex 65.6470476127563 17.5851854342773 10.0
vertex 65.0 17.5 5.0
vertex 65.6470476127563 17.5851854342773 5.0
endloop
endfacet
facet normal 0.0 -1.0 0.0
outer loop
vertex 65.0 17.5 5.0
vertex 65.6470476127563 17.5851854342773 10.0
vertex 65.0 17.5 10.0
endloop
endfacet
facet normal -0.866025403784439 0.499999999999999 0.0
outer loop
vertex 62.8349364905389 21.25 10.0
vertex 62.5851854342773 20.6470476127563 5.0
vertex 62.5851854342773 20.6470476127563 10.0
endloop
endfacet
facet normal -0.965925826289069 0.258819045102518 0.0
outer loop
vertex 62.5851854342773 20.6470476127563 5.0
vertex 62.8349364905389 21.25 10.0
vertex 62.8349364905389 21.25 5.0
endloop
endfacet
facet normal -0.965925826289069 0.258819045102518 0.0
outer loop
vertex 62.5851854342773 20.6470476127563 10.0
vertex 62.5 20.0 5.0
vertex 62.5 20.0 10.0
endloop
endfacet
facet normal -1.0 1.78222197912938e-017 0.0
outer loop
vertex 62.5 20.0 5.0
vertex 62.5851854342773 20.6470476127563 10.0
vertex 62.5851854342773 20.6470476127563 5.0
endloop
endfacet
facet normal -0.707106781186548 0.707106781186547 0.0
outer loop
vertex 63.2322330470336 21.7677669529664 10.0
vertex 62.8349364905389 21.25 5.0
vertex 62.8349364905389 21.25 10.0
endloop
endfacet
facet normal -0.866025403784439 0.499999999999999 0.0
outer loop
vertex 62.8349364905389 21.25 5.0
vertex 63.2322330470336 21.7677669529664 10.0
vertex 63.2322330470336 21.7677669529664 5.0
endloop
endfacet
facet normal 0.258819045102521 0.965925826289068 0.0
outer loop
vertex 65.6470476127563 22.4148145657227 10.0
vertex 66.25 22.1650635094611 5.0
vertex 65.6470476127563 22.4148145657227 5.0
endloop
endfacet
facet normal 0.499999999999999 0.866025403784439 0.0
outer loop
vertex 66.25 22.1650635094611 5.0
vertex 65.6470476127563 22.4148145657227 10.0
vertex 66.25 22.1650635094611 10.0
endloop
endfacet
facet normal 0.965925826289069 0.258819045102519 0.0
outer loop
vertex 67.4148145657227 20.6470476127563 5.0
vertex 67.5 20.0 10.0
vertex 67.5 20.0 5.0
endloop
endfacet
facet normal 1.0 2.94066626556347e-016 0.0
outer loop
vertex 67.5 20.0 10.0
vertex 67.4148145657227 20.6470476127563 5.0
vertex 67.4148145657227 20.6470476127563 10.0
endloop
endfacet
facet normal 1.0 2.94066626556347e-016 0.0
outer loop
vertex 67.5 20.0 5.0
vertex 67.4148145657227 19.3529523872437 10.0
vertex 67.4148145657227 19.3529523872437 5.0
endloop
endfacet
facet normal 0.965925826289069 -0.258819045102519 0.0
outer loop
vertex 67.4148145657227 19.3529523872437 10.0
vertex 67.5 20.0 5.0
vertex 67.5 20.0 10.0
endloop
endfacet
facet normal 0.0 -1.0 0.0
outer loop
vertex 65.0 17.5 10.0
vertex 64.3529523872437 17.5851854342773 5.0
vertex 65.0 17.5 5.0
endloop
endfacet
facet normal -0.258819045102521 -0.965925826289068 0.0
outer loop
vertex 64.3529523872437 17.5851854342773 5.0
vertex 65.0 17.5 10.0
vertex 64.3529523872437 17.5851854342773 10.0
endloop
endfacet
facet normal -0.499999999999997 -0.86602540378444 0.0
outer loop
vertex 63.75 17.8349364905389 10.0
vertex 63.2322330470336 18.2322330470336 5.0
vertex 63.75 17.8349364905389 5.0
endloop
endfacet
facet normal -0.707106781186548 -0.707106781186547 0.0
outer loop
vertex 63.2322330470336 18.2322330470336 5.0
vertex 63.75 17.8349364905389 10.0
vertex 63.2322330470336 18.2322330470336 10.0
endloop
endfacet
facet normal -0.866025403784439 -0.499999999999999 0.0
outer loop
vertex 62.8349364905389 18.75 10.0
vertex 63.2322330470336 18.2322330470336 5.0
vertex 63.2322330470336 18.2322330470336 10.0
endloop
endfacet
facet normal -0.707106781186548 -0.707106781186547 0.0
outer loop
vertex 63.2322330470336 18.2322330470336 5.0
vertex 62.8349364905389 18.75 10.0
vertex 62.8349364905389 18.75 5.0
endloop
endfacet
facet normal -0.258819045102521 -0.965925826289068 0.0
outer loop
vertex 64.3529523872437 17.5851854342773 10.0
vertex 63.75 17.8349364905389 5.0
vertex 64.3529523872437 17.5851854342773 5.0
endloop
endfacet
facet normal -0.499999999999997 -0.86602540378444 0.0
outer loop
vertex 63.75 17.8349364905389 5.0
vertex 64.3529523872437 17.5851854342773 10.0
vertex 63.75 17.8349364905389 10.0
endloop
endfacet
facet normal 0.499999999999999 0.866025403784439 0.0
outer loop
vertex 66.25 22.1650635094611 10.0
vertex 66.7677669529664 21.7677669529664 5.0
vertex 66.25 22.1650635094611 5.0
endloop
endfacet
facet normal 0.707106781186549 0.707106781186546 0.0
outer loop
vertex 66.7677669529664 21.7677669529664 5.0
vertex 66.25 22.1650635094611 10.0
vertex 66.7677669529664 21.7677669529664 10.0
endloop
endfacet
facet normal -1.22620972916716e-047 -5.30147397512904e-032 1.0
outer loop
vertex 62.5851854342773 19.3529523872437 10.0
vertex 62.5851854342773 20.6470476127563 10.0
vertex 62.5 20.0 10.0
endloop
endfacet
facet normal -1.22620972916716e-047 -5.30147397512904e-032 1.0
outer loop
vertex 62.5851854342773 20.6470476127563 10.0
vertex 62.5851854342773 19.3529523872437 10.0
vertex 62.8349364905389 18.75 10.0
endloop
endfacet
facet normal -1.22620972916716e-047 -5.30147397512904e-032 1.0
outer loop
vertex 62.5851854342773 20.6470476127563 10.0
vertex 62.8349364905389 18.75 10.0
vertex 62.8349364905389 21.25 10.0
endloop
endfacet
facet normal -1.22620972916716e-047 -5.30147397512904e-032 1.0
outer loop
vertex 62.8349364905389 21.25 10.0
vertex 62.8349364905389 18.75 10.0
vertex 63.2322330470336 18.2322330470336 10.0
endloop
endfacet
facet normal -1.22620972916716e-047 -5.30147397512904e-032 1.0
outer loop
vertex 62.8349364905389 21.25 10.0
vertex 63.2322330470336 18.2322330470336 10.0
vertex 63.2322330470336 21.7677669529664 10.0
endloop
endfacet
facet normal -1.22620972916716e-047 -5.30147397512904e-032 1.0
outer loop
vertex 63.2322330470336 21.7677669529664 10.0
vertex 63.2322330470336 18.2322330470336 10.0
vertex 63.75 17.8349364905389 10.0
endloop
endfacet
facet normal -1.22620972916716e-047 -5.30147397512904e-032 1.0
outer loop
vertex 63.2322330470336 21.7677669529664 10.0
vertex 63.75 17.8349364905389 10.0
vertex 63.75 22.1650635094611 10.0
endloop
endfacet
facet normal -1.22620972916716e-047 -5.30147397512904e-032 1.0
outer loop
vertex 63.75 22.1650635094611 10.0
vertex 63.75 17.8349364905389 10.0
vertex 64.3529523872437 17.5851854342773 10.0
endloop
endfacet
facet normal -1.22620972916716e-047 -5.30147397512904e-032 1.0
outer loop
vertex 63.75 22.1650635094611 10.0
vertex 64.3529523872437 17.5851854342773 10.0
vertex 64.3529523872437 22.4148145657227 10.0
endloop
endfacet
facet normal -1.22620972916716e-047 -5.30147397512904e-032 1.0
outer loop
vertex 64.3529523872437 22.4148145657227 10.0
vertex 64.3529523872437 17.5851854342773 10.0
vertex 65.0 17.5 10.0
endloop
endfacet
facet normal -1.22620972916716e-047 -5.30147397512904e-032 1.0
outer loop
vertex 64.3529523872437 22.4148145657227 10.0
vertex 65.0 17.5 10.0
vertex 65.0 22.5 10.0
endloop
endfacet
facet normal -1.22620972916716e-047 -5.30147397512904e-032 1.0
outer loop
vertex 65.0 22.5 10.0
vertex 65.0 17.5 10.0
vertex 65.6470476127563 17.5851854342773 10.0
endloop
endfacet
facet normal -1.22620972916716e-047 -5.30147397512904e-032 1.0
outer loop
vertex 65.0 22.5 10.0
vertex 65.6470476127563 17.5851854342773 10.0
vertex 65.6470476127563 22.4148145657227 10.0
endloop
endfacet
facet normal -1.22620972916716e-047 -5.30147397512904e-032 1.0
outer loop
vertex 65.6470476127563 22.4148145657227 10.0
vertex 65.6470476127563 17.5851854342773 10.0
vertex 66.25 17.8349364905389 10.0
endloop
endfacet
facet normal -1.22620972916716e-047 -5.30147397512904e-032 1.0
outer loop
vertex 65.6470476127563 22.4148145657227 10.0
vertex 66.25 17.8349364905389 10.0
vertex 66.25 22.1650635094611 10.0
endloop
endfacet
facet normal -1.22620972916716e-047 -5.30147397512904e-032 1.0
outer loop
vertex 66.25 22.1650635094611 10.0
vertex 66.25 17.8349364905389 10.0
vertex 66.7677669529664 18.2322330470336 10.0
endloop
endfacet
facet normal -1.22620972916716e-047 -5.30147397512904e-032 1.0
outer loop
vertex 66.25 22.1650635094611 10.0
vertex 66.7677669529664 18.2322330470336 10.0
vertex 66.7677669529664 21.7677669529664 10.0
endloop
endfacet
facet normal -1.22620972916716e-047 -5.30147397512904e-032 1.0
outer loop
vertex 66.7677669529664 21.7677669529664 10.0
vertex 66.7677669529664 18.2322330470336 10.0
vertex 67.1650635094611 18.75 10.0
endloop
endfacet
facet normal -1.22620972916716e-047 -5.30147397512904e-032 1.0
outer loop
vertex 66.7677669529664 21.7677669529664 10.0
vertex 67.1650635094611 18.75 10.0
vertex 67.1650635094611 21.25 10.0
endloop
endfacet
facet normal -1.22620972916716e-047 -5.30147397512904e-032 1.0
outer loop
vertex 67.1650635094611 21.25 10.0
vertex 67.1650635094611 18.75 10.0
vertex 67.4148145657227 19.3529523872437 10.0
endloop
endfacet
facet normal -1.22620972916716e-047 -5.30147397512904e-032 1.0
outer loop
vertex 67.1650635094611 21.25 10.0
vertex 67.4148145657227 19.3529523872437 10.0
vertex 67.4148145657227 20.6470476127563 10.0
endloop
endfacet
facet normal -1.22620972916716e-047 -5.30147397512904e-032 1.0
outer loop
vertex 67.4148145657227 20.6470476127563 10.0
vertex 67.4148145657227 19.3529523872437 10.0
vertex 67.5 20.0 10.0
endloop
endfacet
facet normal 0.499999999999997 -0.86602540378444 0.0
outer loop
vertex 66.25 17.8349364905389 10.0
vertex 65.6470476127563 17.5851854342773 5.0
vertex 66.25 17.8349364905389 5.0
endloop
endfacet
facet normal 0.258819045102521 -0.965925826289068 0.0
outer loop
vertex 65.6470476127563 17.5851854342773 5.0
vertex 66.25 17.8349364905389 10.0
vertex 65.6470476127563 17.5851854342773 10.0
endloop
endfacet
facet normal -0.707106781186548 0.707106781186547 0.0
outer loop
vertex 63.2322330470336 21.7677669529664 10.0
vertex 63.75 22.1650635094611 5.0
vertex 63.2322330470336 21.7677669529664 5.0
endloop
endfacet
facet normal -0.499999999999997 0.86602540378444 0.0
outer loop
vertex 63.75 22.1650635094611 5.0
vertex 63.2322330470336 21.7677669529664 10.0
vertex 63.75 22.1650635094611 10.0
endloop
endfacet
facet normal -1.0 1.78222197912938e-017 0.0
outer loop
vertex 62.5 20.0 10.0
vertex 62.5851854342773 19.3529523872437 5.0
vertex 62.5851854342773 19.3529523872437 10.0
endloop
endfacet
facet normal -0.965925826289069 -0.258819045102518 0.0
outer loop
vertex 62.5851854342773 19.3529523872437 5.0
vertex 62.5 20.0 10.0
vertex 62.5 20.0 5.0
endloop
endfacet
facet normal 0.707106781186549 0.707106781186546 0.0
outer loop
vertex 66.7677669529664 21.7677669529664 5.0
vertex 67.1650635094611 21.25 10.0
vertex 67.1650635094611 21.25 5.0
endloop
endfacet
facet normal 0.866025403784439 0.5 0.0
outer loop
vertex 67.1650635094611 21.25 10.0
vertex 66.7677669529664 21.7677669529664 5.0
vertex 66.7677669529664 21.7677669529664 10.0
endloop
endfacet
facet normal 0.866025403784439 -0.5 0.0
outer loop
vertex 67.1650635094611 18.75 5.0
vertex 66.7677669529664 18.2322330470336 10.0
vertex 66.7677669529664 18.2322330470336 5.0
endloop
endfacet
facet normal 0.707106781186548 -0.707106781186547 0.0
outer loop
vertex 66.7677669529664 18.2322330470336 10.0
vertex 67.1650635094611 18.75 5.0
vertex 67.1650635094611 18.75 10.0
endloop
endfacet
facet normal 0.965925826289069 -0.258819045102519 0.0
outer loop
vertex 67.4148145657227 19.3529523872437 5.0
vertex 67.1650635094611 18.75 10.0
vertex 67.1650635094611 18.75 5.0
endloop
endfacet
facet normal 0.866025403784439 -0.5 0.0
outer loop
vertex 67.1650635094611 18.75 10.0
vertex 67.4148145657227 19.3529523872437 5.0
vertex 67.4148145657227 19.3529523872437 10.0
endloop
endfacet
facet normal -0.499999999999997 0.86602540378444 0.0
outer loop
vertex 63.75 22.1650635094611 10.0
vertex 64.3529523872437 22.4148145657227 5.0
vertex 63.75 22.1650635094611 5.0
endloop
endfacet
facet normal -0.258819045102521 0.965925826289068 0.0
outer loop
vertex 64.3529523872437 22.4148145657227 5.0
vertex 63.75 22.1650635094611 10.0
vertex 64.3529523872437 22.4148145657227 10.0
endloop
endfacet
facet normal 0.707106781186548 -0.707106781186547 0.0
outer loop
vertex 66.7677669529664 18.2322330470336 10.0
vertex 66.25 17.8349364905389 5.0
vertex 66.7677669529664 18.2322330470336 5.0
endloop
endfacet
facet normal 0.499999999999997 -0.86602540378444 0.0
outer loop
vertex 66.25 17.8349364905389 5.0
vertex 66.7677669529664 18.2322330470336 10.0
vertex 66.25 17.8349364905389 10.0
endloop
endfacet
facet normal 0.0 1.0 0.0
outer loop
vertex 65.0 22.5 10.0
vertex 65.6470476127563 22.4148145657227 5.0
vertex 65.0 22.5 5.0
endloop
endfacet
facet normal 0.258819045102521 0.965925826289068 0.0
outer loop
vertex 65.6470476127563 22.4148145657227 5.0
vertex 65.0 22.5 10.0
vertex 65.6470476127563 22.4148145657227 10.0
endloop
endfacet
endsolid untitled
