solid untitled
facet normal 0.0 0.0 -1.0
outer loop
vertex 0.857864376269054 29.1421356237309 0.0
vertex 0.0 15.0 0.0
vertex -2.32050807568877 25.0 0.0
endloop
endfacet
facet normal 0.0 0.0 -1.0
outer loop
vertex 0.0 15.0 0.0
vertex 0.857864376269054 29.1421356237309 0.0
vertex 0.511112605663976 18.8822856765378 0.0
endloop
endfacet
facet normal 0.0 0.0 -1.0
outer loop
vertex 0.511112605663976 18.8822856765378 0.0
vertex 0.857864376269054 29.1421356237309 0.0
vertex 2.00961894323342 22.5 0.0
endloop
endfacet
facet normal 0.0 0.0 -1.0
outer loop
vertex 2.00961894323342 22.5 0.0
vertex 0.857864376269054 29.1421356237309 0.0
vertex 5.00000000000001 32.3205080756888 0.0
endloop
endfacet
facet normal 0.0 0.0 -1.0
outer loop
vertex 2.00961894323342 22.5 0.0
vertex 5.00000000000001 32.3205080756888 0.0
vertex 4.39339828220179 25.6066017177982 0.0
endloop
endfacet
facet normal 0.0 0.0 -1.0
outer loop
vertex 4.39339828220179 25.6066017177982 0.0
vertex 5.00000000000001 32.3205080756888 0.0
vertex 7.5 27.9903810567666 0.0
endloop
endfacet
facet normal 0.0 0.0 -1.0
outer loop
vertex 7.5 27.9903810567666 0.0
vertex 5.00000000000001 32.3205080756888 0.0
vertex 9.82361909794959 34.3185165257814 0.0
endloop
endfacet
facet normal 0.0 0.0 -1.0
outer loop
vertex 7.5 27.9903810567666 0.0
vertex 9.82361909794959 34.3185165257814 0.0
vertex 11.1177143234622 29.488887394336 0.0
endloop
endfacet
facet normal 0.0 0.0 -1.0
outer loop
vertex 11.1177143234622 29.488887394336 0.0
vertex 9.82361909794959 34.3185165257814 0.0
vertex 15.0 35.0 0.0
endloop
endfacet
facet normal 0.0 0.0 -1.0
outer loop
vertex 11.1177143234622 29.488887394336 0.0
vertex 15.0 35.0 0.0
vertex 15.0 30.0 0.0
endloop
endfacet
facet normal 0.0 0.0 -1.0
outer loop
vertex 15.0 30.0 0.0
vertex 15.0 35.0 0.0
vertex 18.8822856765378 29.488887394336 0.0
endloop
endfacet
facet normal 0.0 0.0 -1.0
outer loop
vertex 18.8822856765378 29.488887394336 0.0
vertex 15.0 35.0 0.0
vertex 20.1763809020504 34.3185165257814 0.0
endloop
endfacet
facet normal 0.0 0.0 -1.0
outer loop
vertex 18.8822856765378 29.488887394336 0.0
vertex 20.1763809020504 34.3185165257814 0.0
vertex 22.5 27.9903810567666 0.0
endloop
endfacet
facet normal 0.0 0.0 -1.0
outer loop
vertex 22.5 27.9903810567666 0.0
vertex 20.1763809020504 34.3185165257814 0.0
vertex 25.0 32.3205080756888 0.0
endloop
endfacet
facet normal 0.0 0.0 -1.0
outer loop
vertex 22.5 27.9903810567666 0.0
vertex 25.0 32.3205080756888 0.0
vertex 25.6066017177982 25.6066017177982 0.0
endloop
endfacet
facet normal 0.0 0.0 -1.0
outer loop
vertex 25.6066017177982 25.6066017177982 0.0
vertex 25.0 32.3205080756888 0.0
vertex 29.1421356237309 29.1421356237309 0.0
endloop
endfacet
facet normal 0.0 0.0 -1.0
outer loop
vertex 25.6066017177982 25.6066017177982 0.0
vertex 29.1421356237309 29.1421356237309 0.0
vertex 27.9903810567666 22.5 0.0
endloop
endfacet
facet normal 0.0 0.0 -1.0
outer loop
vertex 27.9903810567666 22.5 0.0
vertex 29.1421356237309 29.1421356237309 0.0
vertex 29.488887394336 18.8822856765378 0.0
endloop
endfacet
facet normal 0.0 0.0 -1.0
outer loop
vertex 29.488887394336 18.8822856765378 0.0
vertex 29.1421356237309 29.1421356237309 0.0
vertex 32.3205080756888 25.0 0.0
endloop
endfacet
facet normal 0.0 0.0 -1.0
outer loop
vertex 29.488887394336 18.8822856765378 0.0
vertex 32.3205080756888 25.0 0.0
vertex 30.0 15.0 0.0
endloop
endfacet
facet normal 0.0 0.0 -1.0
outer loop
vertex 30.0 15.0 0.0
vertex 32.3205080756888 25.0 0.0
vertex 32.3205080756888 4.99999999999999 0.0
endloop
endfacet
facet normal 0.0 0.0 -1.0
outer loop
vertex 32.3205080756888 4.99999999999999 0.0
vertex 32.3205080756888 25.0 0.0
vertex 34.3185165257814 9.82361909794957 0.0
endloop
endfacet
facet normal 0.0 0.0 -1.0
outer loop
vertex 34.3185165257814 9.82361909794957 0.0
vertex 32.3205080756888 25.0 0.0
vertex 34.3185165257814 20.1763809020504 0.0
endloop
endfacet
facet normal 0.0 0.0 -1.0
outer loop
vertex 34.3185165257814 9.82361909794957 0.0
vertex 34.3185165257814 20.1763809020504 0.0
vertex 35.0 15.0 0.0
endloop
endfacet
facet normal 0.0 0.0 -1.0
outer loop
vertex -4.31851652578136 20.1763809020504 0.0
vertex -4.31851652578136 9.82361909794959 0.0
vertex -5.0 15.0 0.0
endloop
endfacet
facet normal 0.0 0.0 -1.0
outer loop
vertex -4.31851652578136 9.82361909794959 0.0
vertex -4.31851652578136 20.1763809020504 0.0
vertex -2.32050807568877 5.00000000000001 0.0
endloop
endfacet
facet normal 0.0 0.0 -1.0
outer loop
vertex -2.32050807568877 5.00000000000001 0.0
vertex -4.31851652578136 20.1763809020504 0.0
vertex -2.32050807568877 25.0 0.0
endloop
endfacet
facet normal 0.0 0.0 -1.0
outer loop
vertex -2.32050807568877 5.00000000000001 0.0
vertex -2.32050807568877 25.0 0.0
vertex 0.857864376269049 0.857864376269054 0.0
endloop
endfacet
facet normal 0.0 0.0 -1.0
outer loop
vertex 0.857864376269049 0.857864376269054 0.0
vertex -2.32050807568877 25.0 0.0
vertex 0.0 15.0 0.0
endloop
endfacet
facet normal 0.0 0.0 -1.0
outer loop
vertex 0.857864376269049 0.857864376269054 0.0
vertex 0.0 15.0 0.0
vertex 0.511112605663976 11.1177143234622 0.0
endloop
endfacet
facet normal 0.0 0.0 -1.0
outer loop
vertex 0.857864376269049 0.857864376269054 0.0
vertex 0.511112605663976 11.1177143234622 0.0
vertex 2.00961894323342 7.5 0.0
endloop
endfacet
facet normal 0.0 0.0 -1.0
outer loop
vertex 0.857864376269049 0.857864376269054 0.0
vertex 2.00961894323342 7.5 0.0
vertex 4.99999999999999 -2.32050807568876 0.0
endloop
endfacet
facet normal 0.0 0.0 -1.0
outer loop
vertex 4.99999999999999 -2.32050807568876 0.0
vertex 2.00961894323342 7.5 0.0
vertex 4.39339828220179 4.39339828220179 0.0
endloop
endfacet
facet normal 0.0 0.0 -1.0
outer loop
vertex 4.99999999999999 -2.32050807568876 0.0
vertex 4.39339828220179 4.39339828220179 0.0
vertex 7.49999999999999 2.00961894323342 0.0
endloop
endfacet
facet normal 0.0 0.0 -1.0
outer loop
vertex 4.99999999999999 -2.32050807568876 0.0
vertex 7.49999999999999 2.00961894323342 0.0
vertex 9.82361909794958 -4.31851652578136 0.0
endloop
endfacet
facet normal 0.0 0.0 -1.0
outer loop
vertex 9.82361909794958 -4.31851652578136 0.0
vertex 7.49999999999999 2.00961894323342 0.0
vertex 11.1177143234622 0.511112605663976 0.0
endloop
endfacet
facet normal 0.0 0.0 -1.0
outer loop
vertex 9.82361909794958 -4.31851652578136 0.0
vertex 11.1177143234622 0.511112605663976 0.0
vertex 15.0 -5.0 0.0
endloop
endfacet
facet normal 0.0 0.0 -1.0
outer loop
vertex 15.0 -5.0 0.0
vertex 11.1177143234622 0.511112605663976 0.0
vertex 15.0 0.0 0.0
endloop
endfacet
facet normal 0.0 0.0 -1.0
outer loop
vertex 15.0 -5.0 0.0
vertex 15.0 0.0 0.0
vertex 20.1763809020504 -4.31851652578136 0.0
endloop
endfacet
facet normal 0.0 0.0 -1.0
outer loop
vertex 20.1763809020504 -4.31851652578136 0.0
vertex 15.0 0.0 0.0
vertex 18.8822856765378 0.511112605663973 0.0
endloop
endfacet
facet normal 0.0 0.0 -1.0
outer loop
vertex 20.1763809020504 -4.31851652578136 0.0
vertex 18.8822856765378 0.511112605663973 0.0
vertex 22.5 2.00961894323342 0.0
endloop
endfacet
facet normal 0.0 0.0 -1.0
outer loop
vertex 20.1763809020504 -4.31851652578136 0.0
vertex 22.5 2.00961894323342 0.0
vertex 25.0 -2.32050807568877 0.0
endloop
endfacet
facet normal 0.0 0.0 -1.0
outer loop
vertex 25.0 -2.32050807568877 0.0
vertex 22.5 2.00961894323342 0.0
vertex 25.6066017177982 4.39339828220178 0.0
endloop
endfacet
facet normal 0.0 0.0 -1.0
outer loop
vertex 25.0 -2.32050807568877 0.0
vertex 25.6066017177982 4.39339828220178 0.0
vertex 29.1421356237309 0.85786437626904 0.0
endloop
endfacet
facet normal 0.0 0.0 -1.0
outer loop
vertex 29.1421356237309 0.85786437626904 0.0
vertex 25.6066017177982 4.39339828220178 0.0
vertex 27.9903810567666 7.49999999999999 0.0
endloop
endfacet
facet normal 0.0 0.0 -1.0
outer loop
vertex 29.1421356237309 0.85786437626904 0.0
vertex 27.9903810567666 7.49999999999999 0.0
vertex 29.488887394336 11.1177143234622 0.0
endloop
endfacet
facet normal 0.0 0.0 -1.0
outer loop
vertex 29.1421356237309 0.85786437626904 0.0
vertex 29.488887394336 11.1177143234622 0.0
vertex 32.3205080756888 4.99999999999999 0.0
endloop
endfacet
facet normal 0.0 0.0 -1.0
outer loop
vertex 32.3205080756888 4.99999999999999 0.0
vertex 29.488887394336 11.1177143234622 0.0
vertex 30.0 15.0 0.0
endloop
endfacet
facet normal 0.866025403784438 -0.500000000000001 0.0
outer loop
vertex 32.3205080756888 4.99999999999999 0.0
vertex 29.1421356237309 0.85786437626904 30.5
vertex 29.1421356237309 0.85786437626904 0.0
endloop
endfacet
facet normal 0.707106781186547 -0.707106781186548 0.0
outer loop
vertex 29.1421356237309 0.85786437626904 30.5
vertex 32.3205080756888 4.99999999999999 0.0
vertex 32.3205080756888 4.99999999999999 30.5
endloop
endfacet
facet normal -1.0 -1.96044417704232e-016 2.61407863070974e-019
outer loop
vertex 30.0 15.0 30.5
vertex 29.488887394336 11.1177143234622 0.0
vertex 29.488887394336 11.1177143234622 30.5
endloop
endfacet
facet normal -0.965925826289068 0.258819045102521 -2.25778835328239e-019
outer loop
vertex 29.488887394336 11.1177143234622 0.0
vertex 30.0 15.0 30.5
vertex 30.0 15.0 0.0
endloop
endfacet
facet normal -0.965925826289068 0.258819045102521 -2.25778835328239e-019
outer loop
vertex 29.488887394336 11.1177143234622 30.5
vertex 27.9903810567666 7.49999999999999 0.0
vertex 27.9903810567666 7.49999999999999 30.5
endloop
endfacet
facet normal -0.866025403784438 0.500000000000001 1.54846078115236e-019
outer loop
vertex 27.9903810567666 7.49999999999999 0.0
vertex 29.488887394336 11.1177143234622 30.5
vertex 29.488887394336 11.1177143234622 0.0
endloop
endfacet
facet normal 1.87133307808585e-016 -1.0 1.36268780106386e-018
outer loop
vertex 15.0 30.0 30.5
vertex 11.1177143234622 29.488887394336 0.0
vertex 15.0 30.0 0.0
endloop
endfacet
facet normal 0.258819045102521 -0.965925826289068 6.34532705972315e-020
outer loop
vertex 11.1177143234622 29.488887394336 0.0
vertex 15.0 30.0 30.5
vertex 11.1177143234622 29.488887394336 30.5
endloop
endfacet
facet normal 2.76244406765054e-016 1.0 0.0
outer loop
vertex 15.0 0.0 30.5
vertex 18.8822856765378 0.511112605663973 0.0
vertex 15.0 0.0 0.0
endloop
endfacet
facet normal -0.258819045102521 0.965925826289068 0.0
outer loop
vertex 18.8822856765378 0.511112605663973 0.0
vertex 15.0 0.0 30.5
vertex 18.8822856765378 0.511112605663973 30.5
endloop
endfacet
facet normal 0.707106781186548 0.707106781186547 1.47874618106376e-018
outer loop
vertex 4.39339828220179 4.39339828220179 30.5
vertex 7.49999999999999 2.00961894323342 0.0
vertex 4.39339828220179 4.39339828220179 0.0
endloop
endfacet
facet normal 0.5 0.866025403784439 6.42032776514448e-019
outer loop
vertex 7.49999999999999 2.00961894323342 0.0
vertex 4.39339828220179 4.39339828220179 30.5
vertex 7.49999999999999 2.00961894323342 30.5
endloop
endfacet
facet normal -0.707106781186548 -0.707106781186547 0.0
outer loop
vertex 25.6066017177982 25.6066017177982 30.5
vertex 27.9903810567666 22.5 0.0
vertex 27.9903810567666 22.5 30.5
endloop
endfacet
facet normal -0.866025403784439 -0.499999999999999 -4.87186698399214e-019
outer loop
vertex 27.9903810567666 22.5 0.0
vertex 25.6066017177982 25.6066017177982 30.5
vertex 25.6066017177982 25.6066017177982 0.0
endloop
endfacet
facet normal -0.5 0.866025403784439 -8.36713404549315e-019
outer loop
vertex 22.5 2.00961894323342 30.5
vertex 25.6066017177982 4.39339828220178 0.0
vertex 22.5 2.00961894323342 0.0
endloop
endfacet
facet normal -0.707106781186547 0.707106781186548 -1.94680628034867e-019
outer loop
vertex 25.6066017177982 4.39339828220178 0.0
vertex 22.5 2.00961894323342 30.5
vertex 25.6066017177982 4.39339828220178 30.5
endloop
endfacet
facet normal 0.258819045102521 0.965925826289068 0.0
outer loop
vertex 11.1177143234622 0.511112605663976 30.5
vertex 15.0 0.0 0.0
vertex 11.1177143234622 0.511112605663976 0.0
endloop
endfacet
facet normal 2.76244406765054e-016 1.0 0.0
outer loop
vertex 15.0 0.0 0.0
vertex 11.1177143234622 0.511112605663976 30.5
vertex 15.0 0.0 30.5
endloop
endfacet
facet normal -0.258819045102521 -0.965925826289068 3.24861133668204e-019
outer loop
vertex 18.8822856765378 29.488887394336 30.5
vertex 15.0 30.0 0.0
vertex 18.8822856765378 29.488887394336 0.0
endloop
endfacet
facet normal 1.87133307808585e-016 -1.0 1.36268780106386e-018
outer loop
vertex 15.0 30.0 0.0
vertex 18.8822856765378 29.488887394336 30.5
vertex 15.0 30.0 30.5
endloop
endfacet
facet normal 1.0 8.91110989564691e-017 3.7099947679171e-034
outer loop
vertex 0.0 15.0 10.1666666666667
vertex 0.0 15.0 20.3333333333333
vertex 0.0 15.0 0.0
endloop
endfacet
facet normal 1.0 1.1584442864341e-016 4.94665969055613e-034
outer loop
vertex 0.0 15.0 0.0
vertex 0.511112605663976 11.1177143234622 30.5
vertex 0.511112605663976 11.1177143234622 0.0
endloop
endfacet
facet normal 0.965925826289068 0.258819045102521 7.62506682897436e-019
outer loop
vertex 0.511112605663976 11.1177143234622 30.5
vertex 0.0 15.0 0.0
vertex 0.0 15.0 30.5
endloop
endfacet
facet normal 1.0 8.91110989564691e-017 3.7099947679171e-034
outer loop
vertex 0.0 15.0 30.5
vertex 0.0 15.0 0.0
vertex 0.0 15.0 20.3333333333333
endloop
endfacet
facet normal 0.5 -0.866025403784439 -4.87186698399213e-019
outer loop
vertex 7.5 27.9903810567666 30.5
vertex 4.39339828220179 25.6066017177982 0.0
vertex 7.5 27.9903810567666 0.0
endloop
endfacet
facet normal 0.707106781186548 -0.707106781186548 0.0
outer loop
vertex 4.39339828220179 25.6066017177982 0.0
vertex 7.5 27.9903810567666 30.5
vertex 4.39339828220179 25.6066017177982 30.5
endloop
endfacet
facet normal 0.258819045102521 -0.965925826289068 6.34532705972315e-020
outer loop
vertex 11.1177143234622 29.488887394336 30.5
vertex 7.5 27.9903810567666 0.0
vertex 11.1177143234622 29.488887394336 0.0
endloop
endfacet
facet normal 0.5 -0.866025403784439 -4.87186698399213e-019
outer loop
vertex 7.5 27.9903810567666 0.0
vertex 11.1177143234622 29.488887394336 30.5
vertex 7.5 27.9903810567666 30.5
endloop
endfacet
facet normal -0.866025403784439 -0.499999999999999 -4.87186698399214e-019
outer loop
vertex 27.9903810567666 22.5 30.5
vertex 29.488887394336 18.8822856765378 0.0
vertex 29.488887394336 18.8822856765378 30.5
endloop
endfacet
facet normal -0.965925826289069 -0.25881904510252 -4.87186698399214e-019
outer loop
vertex 29.488887394336 18.8822856765378 0.0
vertex 27.9903810567666 22.5 30.5
vertex 27.9903810567666 22.5 0.0
endloop
endfacet
facet normal -0.866025403784438 0.500000000000001 1.54846078115236e-019
outer loop
vertex 27.9903810567666 7.49999999999999 30.5
vertex 25.6066017177982 4.39339828220178 0.0
vertex 25.6066017177982 4.39339828220178 30.5
endloop
endfacet
facet normal -0.707106781186547 0.707106781186548 -1.94680628034867e-019
outer loop
vertex 25.6066017177982 4.39339828220178 0.0
vertex 27.9903810567666 7.49999999999999 30.5
vertex 27.9903810567666 7.49999999999999 0.0
endloop
endfacet
facet normal -0.707106781186548 -0.707106781186547 0.0
outer loop
vertex 25.6066017177982 25.6066017177982 30.5
vertex 22.5 27.9903810567666 0.0
vertex 25.6066017177982 25.6066017177982 0.0
endloop
endfacet
facet normal -0.500000000000001 -0.866025403784438 -4.87186698399213e-019
outer loop
vertex 22.5 27.9903810567666 0.0
vertex 25.6066017177982 25.6066017177982 30.5
vertex 22.5 27.9903810567666 30.5
endloop
endfacet
facet normal 0.707106781186548 -0.707106781186548 0.0
outer loop
vertex 4.39339828220179 25.6066017177982 0.0
vertex 2.00961894323342 22.5 30.5
vertex 2.00961894323342 22.5 0.0
endloop
endfacet
facet normal 0.866025403784439 -0.5 0.0
outer loop
vertex 2.00961894323342 22.5 30.5
vertex 4.39339828220179 25.6066017177982 0.0
vertex 4.39339828220179 25.6066017177982 30.5
endloop
endfacet
facet normal 0.5 0.866025403784439 6.42032776514448e-019
outer loop
vertex 7.49999999999999 2.00961894323342 30.5
vertex 11.1177143234622 0.511112605663976 0.0
vertex 7.49999999999999 2.00961894323342 0.0
endloop
endfacet
facet normal 0.258819045102521 0.965925826289068 0.0
outer loop
vertex 11.1177143234622 0.511112605663976 0.0
vertex 7.49999999999999 2.00961894323342 30.5
vertex 11.1177143234622 0.511112605663976 30.5
endloop
endfacet
facet normal 0.866025403784439 0.5 1.32390010294853e-018
outer loop
vertex 2.00961894323342 7.5 0.0
vertex 4.39339828220179 4.39339828220179 30.5
vertex 4.39339828220179 4.39339828220179 0.0
endloop
endfacet
facet normal 0.707106781186548 0.707106781186547 1.47874618106376e-018
outer loop
vertex 4.39339828220179 4.39339828220179 30.5
vertex 2.00961894323342 7.5 0.0
vertex 2.00961894323342 7.5 30.5
endloop
endfacet
facet normal -0.500000000000001 -0.866025403784438 -4.87186698399213e-019
outer loop
vertex 22.5 27.9903810567666 30.5
vertex 18.8822856765378 29.488887394336 0.0
vertex 22.5 27.9903810567666 0.0
endloop
endfacet
facet normal -0.258819045102521 -0.965925826289068 3.24861133668204e-019
outer loop
vertex 18.8822856765378 29.488887394336 0.0
vertex 22.5 27.9903810567666 30.5
vertex 18.8822856765378 29.488887394336 30.5
endloop
endfacet
facet normal 0.965925826289068 -0.258819045102521 -2.75319984498222e-019
outer loop
vertex 0.511112605663976 18.8822856765378 0.0
vertex 0.0 15.0 10.1666666666667
vertex 0.0 15.0 0.0
endloop
endfacet
facet normal 1.0 8.91110989564691e-017 3.7099947679171e-034
outer loop
vertex 0.0 15.0 10.1666666666667
vertex 0.0 15.0 30.5
vertex 0.0 15.0 20.3333333333333
endloop
endfacet
facet normal 1.0 8.91110989564691e-017 3.7099947679171e-034
outer loop
vertex 0.0 15.0 30.5
vertex 0.0 15.0 10.1666666666667
vertex 0.511112605663976 18.8822856765378 30.5
endloop
endfacet
facet normal 0.965925826289068 -0.258819045102521 -2.75319984498222e-019
outer loop
vertex 0.511112605663976 18.8822856765378 30.5
vertex 0.0 15.0 10.1666666666667
vertex 0.511112605663976 18.8822856765378 0.0
endloop
endfacet
facet normal 0.965925826289068 0.258819045102521 7.62506682897436e-019
outer loop
vertex 0.511112605663976 11.1177143234622 0.0
vertex 2.00961894323342 7.5 30.5
vertex 2.00961894323342 7.5 0.0
endloop
endfacet
facet normal 0.866025403784439 0.5 1.32390010294853e-018
outer loop
vertex 2.00961894323342 7.5 30.5
vertex 0.511112605663976 11.1177143234622 0.0
vertex 0.511112605663976 11.1177143234622 30.5
endloop
endfacet
facet normal 0.866025403784439 -0.5 0.0
outer loop
vertex 2.00961894323342 22.5 0.0
vertex 0.511112605663976 18.8822856765378 30.5
vertex 0.511112605663976 18.8822856765378 0.0
endloop
endfacet
facet normal 0.965925826289068 -0.258819045102521 -2.75319984498222e-019
outer loop
vertex 0.511112605663976 18.8822856765378 30.5
vertex 2.00961894323342 22.5 0.0
vertex 2.00961894323342 22.5 30.5
endloop
endfacet
facet normal -0.258819045102521 0.965925826289068 0.0
outer loop
vertex 18.8822856765378 0.511112605663973 30.5
vertex 22.5 2.00961894323342 0.0
vertex 18.8822856765378 0.511112605663973 0.0
endloop
endfacet
facet normal -0.5 0.866025403784439 -8.36713404549315e-019
outer loop
vertex 22.5 2.00961894323342 0.0
vertex 18.8822856765378 0.511112605663973 30.5
vertex 22.5 2.00961894323342 30.5
endloop
endfacet
facet normal -0.965925826289069 -0.25881904510252 -4.87186698399214e-019
outer loop
vertex 29.488887394336 18.8822856765378 30.5
vertex 30.0 15.0 0.0
vertex 30.0 15.0 30.5
endloop
endfacet
facet normal -1.0 -1.96044417704232e-016 2.61407863070974e-019
outer loop
vertex 30.0 15.0 0.0
vertex 29.488887394336 18.8822856765378 30.5
vertex 29.488887394336 18.8822856765378 0.0
endloop
endfacet
facet normal 0.499999999999999 -0.866025403784439 0.0
outer loop
vertex 25.0 -2.32050807568877 30.5
vertex 20.1763809020504 -4.31851652578136 0.0
vertex 25.0 -2.32050807568877 0.0
endloop
endfacet
facet normal 0.25881904510252 -0.965925826289068 0.0
outer loop
vertex 20.1763809020504 -4.31851652578136 0.0
vertex 25.0 -2.32050807568877 30.5
vertex 20.1763809020504 -4.31851652578136 30.5
endloop
endfacet
facet normal 0.25881904510252 -0.965925826289068 0.0
outer loop
vertex 20.1763809020504 -4.31851652578136 30.5
vertex 15.0 -5.0 0.0
vertex 20.1763809020504 -4.31851652578136 0.0
endloop
endfacet
facet normal -1.51488868225997e-016 -1.0 0.0
outer loop
vertex 15.0 -5.0 0.0
vertex 20.1763809020504 -4.31851652578136 30.5
vertex 15.0 -5.0 30.5
endloop
endfacet
facet normal -1.51488868225997e-016 -1.0 0.0
outer loop
vertex 15.0 -5.0 30.5
vertex 9.82361909794958 -4.31851652578136 0.0
vertex 15.0 -5.0 0.0
endloop
endfacet
facet normal -0.258819045102521 -0.965925826289068 0.0
outer loop
vertex 9.82361909794958 -4.31851652578136 0.0
vertex 15.0 -5.0 30.5
vertex 9.82361909794958 -4.31851652578136 30.5
endloop
endfacet
facet normal -0.258819045102521 -0.965925826289068 0.0
outer loop
vertex 9.82361909794958 -4.31851652578136 30.5
vertex 4.99999999999999 -2.32050807568876 0.0
vertex 9.82361909794958 -4.31851652578136 0.0
endloop
endfacet
facet normal -0.5 -0.866025403784438 0.0
outer loop
vertex 4.99999999999999 -2.32050807568876 0.0
vertex 9.82361909794958 -4.31851652578136 30.5
vertex 4.99999999999999 -2.32050807568876 30.5
endloop
endfacet
facet normal -0.5 -0.866025403784438 0.0
outer loop
vertex 4.99999999999999 -2.32050807568876 30.5
vertex 0.857864376269049 0.857864376269054 0.0
vertex 4.99999999999999 -2.32050807568876 0.0
endloop
endfacet
facet normal -0.707106781186548 -0.707106781186547 0.0
outer loop
vertex 0.857864376269049 0.857864376269054 0.0
vertex 4.99999999999999 -2.32050807568876 30.5
vertex 0.857864376269049 0.857864376269054 30.5
endloop
endfacet
facet normal 0.707106781186547 -0.707106781186548 0.0
outer loop
vertex 29.1421356237309 0.85786437626904 30.5
vertex 25.0 -2.32050807568877 0.0
vertex 29.1421356237309 0.85786437626904 0.0
endloop
endfacet
facet normal 0.499999999999999 -0.866025403784439 0.0
outer loop
vertex 25.0 -2.32050807568877 0.0
vertex 29.1421356237309 0.85786437626904 30.5
vertex 25.0 -2.32050807568877 30.5
endloop
endfacet
facet normal -0.866025403784439 -0.5 0.0
outer loop
vertex -2.32050807568877 5.00000000000001 30.5
vertex 0.857864376269049 0.857864376269054 0.0
vertex 0.857864376269049 0.857864376269054 30.5
endloop
endfacet
facet normal -0.707106781186548 -0.707106781186547 0.0
outer loop
vertex 0.857864376269049 0.857864376269054 0.0
vertex -2.32050807568877 5.00000000000001 30.5
vertex -2.32050807568877 5.00000000000001 0.0
endloop
endfacet
facet normal -0.965925826289068 -0.258819045102521 0.0
outer loop
vertex -4.31851652578136 9.82361909794959 30.5
vertex -2.32050807568877 5.00000000000001 0.0
vertex -2.32050807568877 5.00000000000001 30.5
endloop
endfacet
facet normal -0.866025403784439 -0.5 0.0
outer loop
vertex -2.32050807568877 5.00000000000001 0.0
vertex -4.31851652578136 9.82361909794959 30.5
vertex -4.31851652578136 9.82361909794959 0.0
endloop
endfacet
facet normal -1.0 1.51488868225997e-016 0.0
outer loop
vertex -5.0 15.0 30.5
vertex -4.31851652578136 9.82361909794959 0.0
vertex -4.31851652578136 9.82361909794959 30.5
endloop
endfacet
facet normal -0.965925826289068 -0.258819045102521 0.0
outer loop
vertex -4.31851652578136 9.82361909794959 0.0
vertex -5.0 15.0 30.5
vertex -5.0 15.0 0.0
endloop
endfacet
facet normal -0.965925826289068 0.258819045102521 0.0
outer loop
vertex -4.31851652578136 20.1763809020504 30.5
vertex -5.0 15.0 0.0
vertex -5.0 15.0 30.5
endloop
endfacet
facet normal -1.0 1.51488868225997e-016 0.0
outer loop
vertex -5.0 15.0 0.0
vertex -4.31851652578136 20.1763809020504 30.5
vertex -4.31851652578136 20.1763809020504 0.0
endloop
endfacet
facet normal -0.866025403784439 0.5 0.0
outer loop
vertex -2.32050807568877 25.0 30.5
vertex -4.31851652578136 20.1763809020504 0.0
vertex -4.31851652578136 20.1763809020504 30.5
endloop
endfacet
facet normal -0.965925826289068 0.258819045102521 0.0
outer loop
vertex -4.31851652578136 20.1763809020504 0.0
vertex -2.32050807568877 25.0 30.5
vertex -2.32050807568877 25.0 0.0
endloop
endfacet
facet normal -0.258819045102521 0.965925826289068 0.0
outer loop
vertex 9.82361909794959 34.3185165257814 30.5
vertex 15.0 35.0 0.0
vertex 9.82361909794959 34.3185165257814 0.0
endloop
endfacet
facet normal -1.96044417704232e-016 1.0 0.0
outer loop
vertex 15.0 35.0 0.0
vertex 9.82361909794959 34.3185165257814 30.5
vertex 15.0 35.0 30.5
endloop
endfacet
facet normal -0.5 0.866025403784439 0.0
outer loop
vertex 5.00000000000001 32.3205080756888 30.5
vertex 9.82361909794959 34.3185165257814 0.0
vertex 5.00000000000001 32.3205080756888 0.0
endloop
endfacet
facet normal -0.258819045102521 0.965925826289068 0.0
outer loop
vertex 9.82361909794959 34.3185165257814 0.0
vertex 5.00000000000001 32.3205080756888 30.5
vertex 9.82361909794959 34.3185165257814 30.5
endloop
endfacet
facet normal -1.96044417704232e-016 1.0 0.0
outer loop
vertex 15.0 35.0 30.5
vertex 20.1763809020504 34.3185165257814 0.0
vertex 15.0 35.0 0.0
endloop
endfacet
facet normal 0.258819045102522 0.965925826289068 0.0
outer loop
vertex 20.1763809020504 34.3185165257814 0.0
vertex 15.0 35.0 30.5
vertex 20.1763809020504 34.3185165257814 30.5
endloop
endfacet
facet normal 0.707106781186548 0.707106781186547 0.0
outer loop
vertex 29.1421356237309 29.1421356237309 0.0
vertex 32.3205080756888 25.0 30.5
vertex 32.3205080756888 25.0 0.0
endloop
endfacet
facet normal 0.866025403784439 0.5 0.0
outer loop
vertex 32.3205080756888 25.0 30.5
vertex 29.1421356237309 29.1421356237309 0.0
vertex 29.1421356237309 29.1421356237309 30.5
endloop
endfacet
facet normal 0.866025403784439 0.5 0.0
outer loop
vertex 32.3205080756888 25.0 0.0
vertex 34.3185165257814 20.1763809020504 30.5
vertex 34.3185165257814 20.1763809020504 0.0
endloop
endfacet
facet normal 0.965925826289068 0.25881904510252 0.0
outer loop
vertex 34.3185165257814 20.1763809020504 30.5
vertex 32.3205080756888 25.0 0.0
vertex 32.3205080756888 25.0 30.5
endloop
endfacet
facet normal 1.0 2.22777747391173e-016 0.0
outer loop
vertex 35.0 15.0 0.0
vertex 34.3185165257814 9.82361909794957 30.5
vertex 34.3185165257814 9.82361909794957 0.0
endloop
endfacet
facet normal 0.965925826289068 -0.258819045102522 0.0
outer loop
vertex 34.3185165257814 9.82361909794957 30.5
vertex 35.0 15.0 0.0
vertex 35.0 15.0 30.5
endloop
endfacet
facet normal -0.707106781186547 0.707106781186548 0.0
outer loop
vertex 0.857864376269054 29.1421356237309 30.5
vertex 5.00000000000001 32.3205080756888 0.0
vertex 0.857864376269054 29.1421356237309 0.0
endloop
endfacet
facet normal -0.5 0.866025403784439 0.0
outer loop
vertex 5.00000000000001 32.3205080756888 0.0
vertex 0.857864376269054 29.1421356237309 30.5
vertex 5.00000000000001 32.3205080756888 30.5
endloop
endfacet
facet normal 0.965925826289068 0.25881904510252 0.0
outer loop
vertex 34.3185165257814 20.1763809020504 0.0
vertex 35.0 15.0 30.5
vertex 35.0 15.0 0.0
endloop
endfacet
facet normal 1.0 2.22777747391173e-016 0.0
outer loop
vertex 35.0 15.0 30.5
vertex 34.3185165257814 20.1763809020504 0.0
vertex 34.3185165257814 20.1763809020504 30.5
endloop
endfacet
facet normal 0.965925826289068 -0.258819045102522 0.0
outer loop
vertex 34.3185165257814 9.82361909794957 0.0
vertex 32.3205080756888 4.99999999999999 30.5
vertex 32.3205080756888 4.99999999999999 0.0
endloop
endfacet
facet normal 0.866025403784438 -0.500000000000001 0.0
outer loop
vertex 32.3205080756888 4.99999999999999 30.5
vertex 34.3185165257814 9.82361909794957 0.0
vertex 34.3185165257814 9.82361909794957 30.5
endloop
endfacet
facet normal -0.707106781186547 0.707106781186548 0.0
outer loop
vertex 0.857864376269054 29.1421356237309 30.5
vertex -2.32050807568877 25.0 0.0
vertex -2.32050807568877 25.0 30.5
endloop
endfacet
facet normal -0.866025403784439 0.5 0.0
outer loop
vertex -2.32050807568877 25.0 0.0
vertex 0.857864376269054 29.1421356237309 30.5
vertex 0.857864376269054 29.1421356237309 0.0
endloop
endfacet
facet normal 0.258819045102522 0.965925826289068 0.0
outer loop
vertex 20.1763809020504 34.3185165257814 30.5
vertex 25.0 32.3205080756888 0.0
vertex 20.1763809020504 34.3185165257814 0.0
endloop
endfacet
facet normal 0.500000000000001 0.866025403784438 0.0
outer loop
vertex 25.0 32.3205080756888 0.0
vertex 20.1763809020504 34.3185165257814 30.5
vertex 25.0 32.3205080756888 30.5
endloop
endfacet
facet normal 0.500000000000001 0.866025403784438 0.0
outer loop
vertex 25.0 32.3205080756888 30.5
vertex 29.1421356237309 29.1421356237309 0.0
vertex 25.0 32.3205080756888 0.0
endloop
endfacet
facet normal 0.707106781186548 0.707106781186547 0.0
outer loop
vertex 29.1421356237309 29.1421356237309 0.0
vertex 25.0 32.3205080756888 30.5
vertex 29.1421356237309 29.1421356237309 30.5
endloop
endfacet
facet normal 0.0 0.0 1.0
outer loop
vertex -4.31851652578136 9.82361909794959 30.5
vertex -4.31851652578136 20.1763809020504 30.5
vertex -5.0 15.0 30.5
endloop
endfacet
facet normal 0.0 0.0 1.0
outer loop
vertex -4.31851652578136 20.1763809020504 30.5
vertex -4.31851652578136 9.82361909794959 30.5
vertex -2.32050807568877 5.00000000000001 30.5
endloop
endfacet
facet normal 0.0 0.0 1.0
outer loop
vertex -4.31851652578136 20.1763809020504 30.5
vertex -2.32050807568877 5.00000000000001 30.5
vertex -2.32050807568877 25.0 30.5
endloop
endfacet
facet normal 0.0 0.0 1.0
outer loop
vertex -2.32050807568877 25.0 30.5
vertex -2.32050807568877 5.00000000000001 30.5
vertex 0.857864376269049 0.857864376269054 30.5
endloop
endfacet
facet normal 0.0 0.0 1.0
outer loop
vertex -2.32050807568877 25.0 30.5
vertex 0.857864376269049 0.857864376269054 30.5
vertex 0.0 15.0 30.5
endloop
endfacet
facet normal 0.0 0.0 1.0
outer loop
vertex 0.0 15.0 30.5
vertex 0.857864376269049 0.857864376269054 30.5
vertex 0.511112605663976 11.1177143234622 30.5
endloop
endfacet
facet normal 0.0 0.0 1.0
outer loop
vertex 0.511112605663976 11.1177143234622 30.5
vertex 0.857864376269049 0.857864376269054 30.5
vertex 2.00961894323342 7.5 30.5
endloop
endfacet
facet normal 0.0 0.0 1.0
outer loop
vertex 2.00961894323342 7.5 30.5
vertex 0.857864376269049 0.857864376269054 30.5
vertex 4.99999999999999 -2.32050807568876 30.5
endloop
endfacet
facet normal 0.0 0.0 1.0
outer loop
vertex 2.00961894323342 7.5 30.5
vertex 4.99999999999999 -2.32050807568876 30.5
vertex 4.39339828220179 4.39339828220179 30.5
endloop
endfacet
facet normal 0.0 0.0 1.0
outer loop
vertex 4.39339828220179 4.39339828220179 30.5
vertex 4.99999999999999 -2.32050807568876 30.5
vertex 7.49999999999999 2.00961894323342 30.5
endloop
endfacet
facet normal 0.0 0.0 1.0
outer loop
vertex 7.49999999999999 2.00961894323342 30.5
vertex 4.99999999999999 -2.32050807568876 30.5
vertex 9.82361909794958 -4.31851652578136 30.5
endloop
endfacet
facet normal 0.0 0.0 1.0
outer loop
vertex 7.49999999999999 2.00961894323342 30.5
vertex 9.82361909794958 -4.31851652578136 30.5
vertex 11.1177143234622 0.511112605663976 30.5
endloop
endfacet
facet normal 0.0 0.0 1.0
outer loop
vertex 11.1177143234622 0.511112605663976 30.5
vertex 9.82361909794958 -4.31851652578136 30.5
vertex 15.0 -5.0 30.5
endloop
endfacet
facet normal 0.0 0.0 1.0
outer loop
vertex 11.1177143234622 0.511112605663976 30.5
vertex 15.0 -5.0 30.5
vertex 15.0 0.0 30.5
endloop
endfacet
facet normal 0.0 0.0 1.0
outer loop
vertex 15.0 0.0 30.5
vertex 15.0 -5.0 30.5
vertex 20.1763809020504 -4.31851652578136 30.5
endloop
endfacet
facet normal 0.0 0.0 1.0
outer loop
vertex 15.0 0.0 30.5
vertex 20.1763809020504 -4.31851652578136 30.5
vertex 18.8822856765378 0.511112605663973 30.5
endloop
endfacet
facet normal 0.0 0.0 1.0
outer loop
vertex 18.8822856765378 0.511112605663973 30.5
vertex 20.1763809020504 -4.31851652578136 30.5
vertex 22.5 2.00961894323342 30.5
endloop
endfacet
facet normal 0.0 0.0 1.0
outer loop
vertex 22.5 2.00961894323342 30.5
vertex 20.1763809020504 -4.31851652578136 30.5
vertex 25.0 -2.32050807568877 30.5
endloop
endfacet
facet normal 0.0 0.0 1.0
outer loop
vertex 22.5 2.00961894323342 30.5
vertex 25.0 -2.32050807568877 30.5
vertex 25.6066017177982 4.39339828220178 30.5
endloop
endfacet
facet normal 0.0 0.0 1.0
outer loop
vertex 25.6066017177982 4.39339828220178 30.5
vertex 25.0 -2.32050807568877 30.5
vertex 29.1421356237309 0.85786437626904 30.5
endloop
endfacet
facet normal 0.0 0.0 1.0
outer loop
vertex 25.6066017177982 4.39339828220178 30.5
vertex 29.1421356237309 0.85786437626904 30.5
vertex 27.9903810567666 7.49999999999999 30.5
endloop
endfacet
facet normal 0.0 0.0 1.0
outer loop
vertex 27.9903810567666 7.49999999999999 30.5
vertex 29.1421356237309 0.85786437626904 30.5
vertex 29.488887394336 11.1177143234622 30.5
endloop
endfacet
facet normal 0.0 0.0 1.0
outer loop
vertex 29.488887394336 11.1177143234622 30.5
vertex 29.1421356237309 0.85786437626904 30.5
vertex 32.3205080756888 4.99999999999999 30.5
endloop
endfacet
facet normal 0.0 0.0 1.0
outer loop
vertex 29.488887394336 11.1177143234622 30.5
vertex 32.3205080756888 4.99999999999999 30.5
vertex 30.0 15.0 30.5
endloop
endfacet
facet normal 0.0 0.0 1.0
outer loop
vertex 0.0 15.0 30.5
vertex 0.857864376269054 29.1421356237309 30.5
vertex -2.32050807568877 25.0 30.5
endloop
endfacet
facet normal 0.0 0.0 1.0
outer loop
vertex 0.857864376269054 29.1421356237309 30.5
vertex 0.0 15.0 30.5
vertex 0.511112605663976 18.8822856765378 30.5
endloop
endfacet
facet normal 0.0 0.0 1.0
outer loop
vertex 0.857864376269054 29.1421356237309 30.5
vertex 0.511112605663976 18.8822856765378 30.5
vertex 2.00961894323342 22.5 30.5
endloop
endfacet
facet normal 0.0 0.0 1.0
outer loop
vertex 0.857864376269054 29.1421356237309 30.5
vertex 2.00961894323342 22.5 30.5
vertex 5.00000000000001 32.3205080756888 30.5
endloop
endfacet
facet normal 0.0 0.0 1.0
outer loop
vertex 5.00000000000001 32.3205080756888 30.5
vertex 2.00961894323342 22.5 30.5
vertex 4.39339828220179 25.6066017177982 30.5
endloop
endfacet
facet normal 0.0 0.0 1.0
outer loop
vertex 5.00000000000001 32.3205080756888 30.5
vertex 4.39339828220179 25.6066017177982 30.5
vertex 7.5 27.9903810567666 30.5
endloop
endfacet
facet normal 0.0 0.0 1.0
outer loop
vertex 5.00000000000001 32.3205080756888 30.5
vertex 7.5 27.9903810567666 30.5
vertex 9.82361909794959 34.3185165257814 30.5
endloop
endfacet
facet normal 0.0 0.0 1.0
outer loop
vertex 9.82361909794959 34.3185165257814 30.5
vertex 7.5 27.9903810567666 30.5
vertex 11.1177143234622 29.488887394336 30.5
endloop
endfacet
facet normal 0.0 0.0 1.0
outer loop
vertex 9.82361909794959 34.3185165257814 30.5
vertex 11.1177143234622 29.488887394336 30.5
vertex 15.0 35.0 30.5
endloop
endfacet
facet normal 0.0 0.0 1.0
outer loop
vertex 15.0 35.0 30.5
vertex 11.1177143234622 29.488887394336 30.5
vertex 15.0 30.0 30.5
endloop
endfacet
facet normal 0.0 0.0 1.0
outer loop
vertex 15.0 35.0 30.5
vertex 15.0 30.0 30.5
vertex 18.8822856765378 29.488887394336 30.5
endloop
endfacet
facet normal 0.0 0.0 1.0
outer loop
vertex 15.0 35.0 30.5
vertex 18.8822856765378 29.488887394336 30.5
vertex 20.1763809020504 34.3185165257814 30.5
endloop
endfacet
facet normal 0.0 0.0 1.0
outer loop
vertex 20.1763809020504 34.3185165257814 30.5
vertex 18.8822856765378 29.488887394336 30.5
vertex 22.5 27.9903810567666 30.5
endloop
endfacet
facet normal 0.0 0.0 1.0
outer loop
vertex 20.1763809020504 34.3185165257814 30.5
vertex 22.5 27.9903810567666 30.5
vertex 25.0 32.3205080756888 30.5
endloop
endfacet
facet normal 0.0 0.0 1.0
outer loop
vertex 25.0 32.3205080756888 30.5
vertex 22.5 27.9903810567666 30.5
vertex 25.6066017177982 25.6066017177982 30.5
endloop
endfacet
facet normal 0.0 0.0 1.0
outer loop
vertex 25.0 32.3205080756888 30.5
vertex 25.6066017177982 25.6066017177982 30.5
vertex 29.1421356237309 29.1421356237309 30.5
endloop
endfacet
facet normal 0.0 0.0 1.0
outer loop
vertex 29.1421356237309 29.1421356237309 30.5
vertex 25.6066017177982 25.6066017177982 30.5
vertex 27.9903810567666 22.5 30.5
endloop
endfacet
facet normal 0.0 0.0 1.0
outer loop
vertex 29.1421356237309 29.1421356237309 30.5
vertex 27.9903810567666 22.5 30.5
vertex 29.488887394336 18.8822856765378 30.5
endloop
endfacet
facet normal 0.0 0.0 1.0
outer loop
vertex 29.1421356237309 29.1421356237309 30.5
vertex 29.488887394336 18.8822856765378 30.5
vertex 32.3205080756888 25.0 30.5
endloop
endfacet
facet normal 0.0 0.0 1.0
outer loop
vertex 32.3205080756888 25.0 30.5
vertex 29.488887394336 18.8822856765378 30.5
vertex 30.0 15.0 30.5
endloop
endfacet
facet normal 0.0 0.0 1.0
outer loop
vertex 32.3205080756888 25.0 30.5
vertex 30.0 15.0 30.5
vertex 32.3205080756888 4.99999999999999 30.5
endloop
endfacet
facet normal 0.0 0.0 1.0
outer loop
vertex 32.3205080756888 25.0 30.5
vertex 32.3205080756888 4.99999999999999 30.5
vertex 34.3185165257814 9.82361909794957 30.5
endloop
endfacet
facet normal 0.0 0.0 1.0
outer loop
vertex 32.3205080756888 25.0 30.5
vertex 34.3185165257814 9.82361909794957 30.5
vertex 34.3185165257814 20.1763809020504 30.5
endloop
endfacet
facet normal 0.0 0.0 1.0
outer loop
vertex 34.3185165257814 20.1763809020504 30.5
vertex 34.3185165257814 9.82361909794957 30.5
vertex 35.0 15.0 30.5
endloop
endfacet
endsolid untitled
