solid untitled
facet normal -0.866025403784443 -0.499999999999992 0.0
outer loop
vertex 102.165063509461 21.25 15.0
vertex 102.414814565723 20.6470476127563 0.0
vertex 102.414814565723 20.6470476127563 15.0
endloop
endfacet
facet normal -0.965925826289071 -0.258819045102512 0.0
outer loop
vertex 102.414814565723 20.6470476127563 0.0
vertex 102.165063509461 21.25 15.0
vertex 102.165063509461 21.25 0.0
endloop
endfacet
facet normal -0.707106781186544 -0.707106781186551 0.0
outer loop
vertex 101.767766952966 21.7677669529664 15.0
vertex 102.165063509461 21.25 0.0
vertex 102.165063509461 21.25 15.0
endloop
endfacet
facet normal -0.866025403784443 -0.499999999999992 0.0
outer loop
vertex 102.165063509461 21.25 0.0
vertex 101.767766952966 21.7677669529664 15.0
vertex 101.767766952966 21.7677669529664 0.0
endloop
endfacet
facet normal -0.707106781186544 -0.707106781186551 0.0
outer loop
vertex 101.767766952966 21.7677669529664 15.0
vertex 101.25 22.1650635094611 0.0
vertex 101.767766952966 21.7677669529664 0.0
endloop
endfacet
facet normal -0.499999999999999 -0.866025403784439 0.0
outer loop
vertex 101.25 22.1650635094611 0.0
vertex 101.767766952966 21.7677669529664 15.0
vertex 101.25 22.1650635094611 15.0
endloop
endfacet
facet normal -0.258819045102521 -0.965925826289068 0.0
outer loop
vertex 100.647047612756 22.4148145657227 15.0
vertex 100.0 22.5 0.0
vertex 100.647047612756 22.4148145657227 0.0
endloop
endfacet
facet normal 0.0 -1.0 0.0
outer loop
vertex 100.0 22.5 0.0
vertex 100.647047612756 22.4148145657227 15.0
vertex 100.0 22.5 15.0
endloop
endfacet
facet normal 0.0 -1.0 0.0
outer loop
vertex 100.0 22.5 15.0
vertex 99.3529523872437 22.4148145657227 0.0
vertex 100.0 22.5 0.0
endloop
endfacet
facet normal 0.258819045102521 -0.965925826289068 0.0
outer loop
vertex 99.3529523872437 22.4148145657227 0.0
vertex 100.0 22.5 15.0
vertex 99.3529523872437 22.4148145657227 15.0
endloop
endfacet
facet normal 0.258819045102521 -0.965925826289068 0.0
outer loop
vertex 99.3529523872437 22.4148145657227 15.0
vertex 98.75 22.1650635094611 0.0
vertex 99.3529523872437 22.4148145657227 0.0
endloop
endfacet
facet normal 0.499999999999997 -0.86602540378444 0.0
outer loop
vertex 98.75 22.1650635094611 0.0
vertex 99.3529523872437 22.4148145657227 15.0
vertex 98.75 22.1650635094611 15.0
endloop
endfacet
facet normal 0.499999999999997 -0.86602540378444 0.0
outer loop
vertex 98.75 22.1650635094611 15.0
vertex 98.2322330470336 21.7677669529664 0.0
vertex 98.75 22.1650635094611 0.0
endloop
endfacet
facet normal 0.707106781186548 -0.707106781186547 0.0
outer loop
vertex 98.2322330470336 21.7677669529664 0.0
vertex 98.75 22.1650635094611 15.0
vertex 98.2322330470336 21.7677669529664 15.0
endloop
endfacet
facet normal -0.499999999999999 -0.866025403784439 0.0
outer loop
vertex 101.25 22.1650635094611 15.0
vertex 100.647047612756 22.4148145657227 0.0
vertex 101.25 22.1650635094611 0.0
endloop
endfacet
facet normal -0.258819045102521 -0.965925826289068 0.0
outer loop
vertex 100.647047612756 22.4148145657227 0.0
vertex 101.25 22.1650635094611 15.0
vertex 100.647047612756 22.4148145657227 15.0
endloop
endfacet
facet normal 0.707106781186548 -0.707106781186547 0.0
outer loop
vertex 98.2322330470336 21.7677669529664 0.0
vertex 97.8349364905389 21.25 15.0
vertex 97.8349364905389 21.25 0.0
endloop
endfacet
facet normal 0.866025403784439 -0.499999999999999 0.0
outer loop
vertex 97.8349364905389 21.25 15.0
vertex 98.2322330470336 21.7677669529664 0.0
vertex 98.2322330470336 21.7677669529664 15.0
endloop
endfacet
facet normal 0.866025403784439 -0.499999999999999 0.0
outer loop
vertex 97.8349364905389 21.25 0.0
vertex 97.5851854342773 20.6470476127563 15.0
vertex 97.5851854342773 20.6470476127563 0.0
endloop
endfacet
facet normal 0.965925826289069 -0.258819045102518 0.0
outer loop
vertex 97.5851854342773 20.6470476127563 15.0
vertex 97.8349364905389 21.25 0.0
vertex 97.8349364905389 21.25 15.0
endloop
endfacet
facet normal 0.965925826289069 -0.258819045102518 0.0
outer loop
vertex 97.5851854342773 20.6470476127563 0.0
vertex 97.5 20.0 15.0
vertex 97.5 20.0 0.0
endloop
endfacet
facet normal 1.0 0.0 0.0
outer loop
vertex 97.5 20.0 15.0
vertex 97.5851854342773 20.6470476127563 0.0
vertex 97.5851854342773 20.6470476127563 15.0
endloop
endfacet
facet normal 1.0 0.0 0.0
outer loop
vertex 97.5 20.0 0.0
vertex 97.5851854342773 19.3529523872437 15.0
vertex 97.5851854342773 19.3529523872437 0.0
endloop
endfacet
facet normal 0.965925826289069 0.258819045102518 0.0
outer loop
vertex 97.5851854342773 19.3529523872437 15.0
vertex 97.5 20.0 0.0
vertex 97.5 20.0 15.0
endloop
endfacet
facet normal 0.0 0.0 -1.0
outer loop
vertex 90.3407417371093 22.5881904510252 0.0
vertex 90.3407417371093 17.4118095489748 0.0
vertex 90.0 20.0 0.0
endloop
endfacet
facet normal 0.0 0.0 -1.0
outer loop
vertex 90.3407417371093 17.4118095489748 0.0
vertex 90.3407417371093 22.5881904510252 0.0
vertex 91.3397459621556 25.0 0.0
endloop
endfacet
facet normal 0.0 0.0 -1.0
outer loop
vertex 90.3407417371093 17.4118095489748 0.0
vertex 91.3397459621556 25.0 0.0
vertex 91.3397459621556 15.0 0.0
endloop
endfacet
facet normal 0.0 0.0 -1.0
outer loop
vertex 91.3397459621556 15.0 0.0
vertex 91.3397459621556 25.0 0.0
vertex 92.9289321881345 27.0710678118655 0.0
endloop
endfacet
facet normal 0.0 0.0 -1.0
outer loop
vertex 91.3397459621556 15.0 0.0
vertex 92.9289321881345 27.0710678118655 0.0
vertex 92.9289321881345 12.9289321881345 0.0
endloop
endfacet
facet normal 0.0 0.0 -1.0
outer loop
vertex 92.9289321881345 12.9289321881345 0.0
vertex 92.9289321881345 27.0710678118655 0.0
vertex 95.0 11.3397459621556 0.0
endloop
endfacet
facet normal 0.0 0.0 -1.0
outer loop
vertex 95.0 11.3397459621556 0.0
vertex 92.9289321881345 27.0710678118655 0.0
vertex 95.0 28.6602540378444 0.0
endloop
endfacet
facet normal 0.0 0.0 -1.0
outer loop
vertex 95.0 11.3397459621556 0.0
vertex 95.0 28.6602540378444 0.0
vertex 97.4118095489748 10.3407417371093 0.0
endloop
endfacet
facet normal 0.0 0.0 -1.0
outer loop
vertex 97.4118095489748 10.3407417371093 0.0
vertex 95.0 28.6602540378444 0.0
vertex 97.4118095489748 29.6592582628907 0.0
endloop
endfacet
facet normal 0.0 0.0 -1.0
outer loop
vertex 97.4118095489748 10.3407417371093 0.0
vertex 97.4118095489748 29.6592582628907 0.0
vertex 97.5 20.0 0.0
endloop
endfacet
facet normal 0.0 0.0 -1.0
outer loop
vertex 97.5 20.0 0.0
vertex 97.4118095489748 29.6592582628907 0.0
vertex 97.5851854342773 20.6470476127563 0.0
endloop
endfacet
facet normal 0.0 0.0 -1.0
outer loop
vertex 97.5851854342773 20.6470476127563 0.0
vertex 97.4118095489748 29.6592582628907 0.0
vertex 100.0 30.0 0.0
endloop
endfacet
facet normal 0.0 0.0 -1.0
outer loop
vertex 97.5851854342773 20.6470476127563 0.0
vertex 100.0 30.0 0.0
vertex 97.8349364905389 21.25 0.0
endloop
endfacet
facet normal 0.0 0.0 -1.0
outer loop
vertex 97.8349364905389 21.25 0.0
vertex 100.0 30.0 0.0
vertex 98.2322330470336 21.7677669529664 0.0
endloop
endfacet
facet normal 0.0 0.0 -1.0
outer loop
vertex 98.2322330470336 21.7677669529664 0.0
vertex 100.0 30.0 0.0
vertex 98.75 22.1650635094611 0.0
endloop
endfacet
facet normal 0.0 0.0 -1.0
outer loop
vertex 98.75 22.1650635094611 0.0
vertex 100.0 30.0 0.0
vertex 99.3529523872437 22.4148145657227 0.0
endloop
endfacet
facet normal 0.0 0.0 -1.0
outer loop
vertex 99.3529523872437 22.4148145657227 0.0
vertex 100.0 30.0 0.0
vertex 100.0 22.5 0.0
endloop
endfacet
facet normal 0.0 0.0 -1.0
outer loop
vertex 100.0 22.5 0.0
vertex 100.0 30.0 0.0
vertex 102.588190451025 29.6592582628907 0.0
endloop
endfacet
facet normal 0.0 0.0 -1.0
outer loop
vertex 100.0 22.5 0.0
vertex 102.588190451025 29.6592582628907 0.0
vertex 100.647047612756 22.4148145657227 0.0
endloop
endfacet
facet normal 0.0 0.0 -1.0
outer loop
vertex 100.647047612756 22.4148145657227 0.0
vertex 102.588190451025 29.6592582628907 0.0
vertex 101.25 22.1650635094611 0.0
endloop
endfacet
facet normal 0.0 0.0 -1.0
outer loop
vertex 101.25 22.1650635094611 0.0
vertex 102.588190451025 29.6592582628907 0.0
vertex 101.767766952966 21.7677669529664 0.0
endloop
endfacet
facet normal 0.0 0.0 -1.0
outer loop
vertex 101.767766952966 21.7677669529664 0.0
vertex 102.588190451025 29.6592582628907 0.0
vertex 102.165063509461 21.25 0.0
endloop
endfacet
facet normal 0.0 0.0 -1.0
outer loop
vertex 102.165063509461 21.25 0.0
vertex 102.588190451025 29.6592582628907 0.0
vertex 102.414814565723 20.6470476127563 0.0
endloop
endfacet
facet normal 0.0 0.0 -1.0
outer loop
vertex 102.414814565723 20.6470476127563 0.0
vertex 102.588190451025 29.6592582628907 0.0
vertex 102.5 20.0 0.0
endloop
endfacet
facet normal 0.0 0.0 -1.0
outer loop
vertex 97.4118095489748 10.3407417371093 0.0
vertex 97.5851854342773 19.3529523872437 0.0
vertex 100.0 9.99999999999999 0.0
endloop
endfacet
facet normal 0.0 0.0 -1.0
outer loop
vertex 97.5851854342773 19.3529523872437 0.0
vertex 97.4118095489748 10.3407417371093 0.0
vertex 97.5 20.0 0.0
endloop
endfacet
facet normal 0.0 0.0 -1.0
outer loop
vertex 100.0 9.99999999999999 0.0
vertex 97.5851854342773 19.3529523872437 0.0
vertex 97.8349364905389 18.75 0.0
endloop
endfacet
facet normal 0.0 0.0 -1.0
outer loop
vertex 100.0 9.99999999999999 0.0
vertex 97.8349364905389 18.75 0.0
vertex 98.2322330470336 18.2322330470336 0.0
endloop
endfacet
facet normal 0.0 0.0 -1.0
outer loop
vertex 100.0 9.99999999999999 0.0
vertex 98.2322330470336 18.2322330470336 0.0
vertex 98.75 17.8349364905389 0.0
endloop
endfacet
facet normal 0.0 0.0 -1.0
outer loop
vertex 100.0 9.99999999999999 0.0
vertex 98.75 17.8349364905389 0.0
vertex 99.3529523872437 17.5851854342773 0.0
endloop
endfacet
facet normal 0.0 0.0 -1.0
outer loop
vertex 100.0 9.99999999999999 0.0
vertex 99.3529523872437 17.5851854342773 0.0
vertex 100.0 17.5 0.0
endloop
endfacet
facet normal 0.0 0.0 -1.0
outer loop
vertex 100.0 9.99999999999999 0.0
vertex 100.0 17.5 0.0
vertex 100.647047612756 17.5851854342773 0.0
endloop
endfacet
facet normal 0.0 0.0 -1.0
outer loop
vertex 100.0 9.99999999999999 0.0
vertex 100.647047612756 17.5851854342773 0.0
vertex 102.588190451025 10.3407417371093 0.0
endloop
endfacet
facet normal 0.0 0.0 -1.0
outer loop
vertex 102.588190451025 10.3407417371093 0.0
vertex 100.647047612756 17.5851854342773 0.0
vertex 101.25 17.8349364905389 0.0
endloop
endfacet
facet normal 0.0 0.0 -1.0
outer loop
vertex 102.588190451025 10.3407417371093 0.0
vertex 101.25 17.8349364905389 0.0
vertex 101.767766952966 18.2322330470336 0.0
endloop
endfacet
facet normal 0.0 0.0 -1.0
outer loop
vertex 102.588190451025 10.3407417371093 0.0
vertex 101.767766952966 18.2322330470336 0.0
vertex 102.165063509461 18.75 0.0
endloop
endfacet
facet normal 0.0 0.0 -1.0
outer loop
vertex 102.588190451025 10.3407417371093 0.0
vertex 102.165063509461 18.75 0.0
vertex 102.414814565723 19.3529523872437 0.0
endloop
endfacet
facet normal 0.0 0.0 -1.0
outer loop
vertex 102.588190451025 10.3407417371093 0.0
vertex 102.414814565723 19.3529523872437 0.0
vertex 102.5 20.0 0.0
endloop
endfacet
facet normal 0.0 0.0 -1.0
outer loop
vertex 102.588190451025 10.3407417371093 0.0
vertex 102.5 20.0 0.0
vertex 102.588190451025 29.6592582628907 0.0
endloop
endfacet
facet normal 0.0 0.0 -1.0
outer loop
vertex 102.588190451025 10.3407417371093 0.0
vertex 102.588190451025 29.6592582628907 0.0
vertex 105.0 28.6602540378444 0.0
endloop
endfacet
facet normal 0.0 0.0 -1.0
outer loop
vertex 102.588190451025 10.3407417371093 0.0
vertex 105.0 28.6602540378444 0.0
vertex 105.0 11.3397459621556 0.0
endloop
endfacet
facet normal 0.0 0.0 -1.0
outer loop
vertex 105.0 11.3397459621556 0.0
vertex 105.0 28.6602540378444 0.0
vertex 107.071067811865 12.9289321881345 0.0
endloop
endfacet
facet normal 0.0 0.0 -1.0
outer loop
vertex 107.071067811865 12.9289321881345 0.0
vertex 105.0 28.6602540378444 0.0
vertex 107.071067811865 27.0710678118655 0.0
endloop
endfacet
facet normal 0.0 0.0 -1.0
outer loop
vertex 107.071067811865 12.9289321881345 0.0
vertex 107.071067811865 27.0710678118655 0.0
vertex 108.660254037844 15.0 0.0
endloop
endfacet
facet normal 0.0 0.0 -1.0
outer loop
vertex 108.660254037844 15.0 0.0
vertex 107.071067811865 27.0710678118655 0.0
vertex 108.660254037844 25.0 0.0
endloop
endfacet
facet normal 0.0 0.0 -1.0
outer loop
vertex 108.660254037844 15.0 0.0
vertex 108.660254037844 25.0 0.0
vertex 109.659258262891 22.5881904510252 0.0
endloop
endfacet
facet normal 0.0 0.0 -1.0
outer loop
vertex 108.660254037844 15.0 0.0
vertex 109.659258262891 22.5881904510252 0.0
vertex 109.659258262891 17.4118095489748 0.0
endloop
endfacet
facet normal 0.0 0.0 -1.0
outer loop
vertex 109.659258262891 17.4118095489748 0.0
vertex 109.659258262891 22.5881904510252 0.0
vertex 110.0 20.0 0.0
endloop
endfacet
facet normal 0.707106781186547 -0.707106781186548 0.0
outer loop
vertex 107.071067811865 12.9289321881345 15.0
vertex 105.0 11.3397459621556 0.0
vertex 107.071067811865 12.9289321881345 0.0
endloop
endfacet
facet normal 0.5 -0.866025403784439 0.0
outer loop
vertex 105.0 11.3397459621556 0.0
vertex 107.071067811865 12.9289321881345 15.0
vertex 105.0 11.3397459621556 15.0
endloop
endfacet
facet normal 1.0 1.60399978121644e-016 0.0
outer loop
vertex 110.0 20.0 0.0
vertex 109.659258262891 17.4118095489748 15.0
vertex 109.659258262891 17.4118095489748 0.0
endloop
endfacet
facet normal 0.965925826289068 -0.258819045102522 0.0
outer loop
vertex 109.659258262891 17.4118095489748 15.0
vertex 110.0 20.0 0.0
vertex 110.0 20.0 15.0
endloop
endfacet
facet normal 0.5 -0.866025403784439 0.0
outer loop
vertex 105.0 11.3397459621556 15.0
vertex 102.588190451025 10.3407417371093 0.0
vertex 105.0 11.3397459621556 0.0
endloop
endfacet
facet normal 0.258819045102521 -0.965925826289068 8.90186269036404e-018
outer loop
vertex 102.588190451025 10.3407417371093 0.0
vertex 105.0 11.3397459621556 15.0
vertex 102.588190451025 10.3407417371093 15.0
endloop
endfacet
facet normal -0.5 -0.866025403784439 0.0
outer loop
vertex 95.0 11.3397459621556 15.0
vertex 92.9289321881345 12.9289321881345 0.0
vertex 95.0 11.3397459621556 0.0
endloop
endfacet
facet normal -0.707106781186548 -0.707106781186548 0.0
outer loop
vertex 92.9289321881345 12.9289321881345 0.0
vertex 95.0 11.3397459621556 15.0
vertex 92.9289321881345 12.9289321881345 15.0
endloop
endfacet
facet normal 0.0 0.0 1.0
outer loop
vertex 90.3407417371093 17.4118095489748 15.0
vertex 90.3407417371093 22.5881904510252 15.0
vertex 90.0 20.0 15.0
endloop
endfacet
facet normal 0.0 0.0 1.0
outer loop
vertex 90.3407417371093 22.5881904510252 15.0
vertex 90.3407417371093 17.4118095489748 15.0
vertex 91.3397459621556 15.0 15.0
endloop
endfacet
facet normal 0.0 0.0 1.0
outer loop
vertex 90.3407417371093 22.5881904510252 15.0
vertex 91.3397459621556 15.0 15.0
vertex 91.3397459621556 25.0 15.0
endloop
endfacet
facet normal 0.0 0.0 1.0
outer loop
vertex 91.3397459621556 25.0 15.0
vertex 91.3397459621556 15.0 15.0
vertex 92.9289321881345 12.9289321881345 15.0
endloop
endfacet
facet normal 0.0 0.0 1.0
outer loop
vertex 91.3397459621556 25.0 15.0
vertex 92.9289321881345 12.9289321881345 15.0
vertex 92.9289321881345 27.0710678118655 15.0
endloop
endfacet
facet normal 0.0 0.0 1.0
outer loop
vertex 92.9289321881345 27.0710678118655 15.0
vertex 92.9289321881345 12.9289321881345 15.0
vertex 95.0 11.3397459621556 15.0
endloop
endfacet
facet normal 0.0 0.0 1.0
outer loop
vertex 92.9289321881345 27.0710678118655 15.0
vertex 95.0 11.3397459621556 15.0
vertex 95.0 28.6602540378444 15.0
endloop
endfacet
facet normal 0.0 0.0 1.0
outer loop
vertex 95.0 28.6602540378444 15.0
vertex 95.0 11.3397459621556 15.0
vertex 97.4118095489748 10.3407417371093 15.0
endloop
endfacet
facet normal 0.0 0.0 1.0
outer loop
vertex 95.0 28.6602540378444 15.0
vertex 97.4118095489748 10.3407417371093 15.0
vertex 97.4118095489748 29.6592582628907 15.0
endloop
endfacet
facet normal 0.0 0.0 1.0
outer loop
vertex 97.4118095489748 29.6592582628907 15.0
vertex 97.4118095489748 10.3407417371093 15.0
vertex 97.5 20.0 15.0
endloop
endfacet
facet normal 0.0 0.0 1.0
outer loop
vertex 97.5 20.0 15.0
vertex 97.4118095489748 10.3407417371093 15.0
vertex 97.5851854342773 19.3529523872437 15.0
endloop
endfacet
facet normal 0.0 0.0 1.0
outer loop
vertex 97.5851854342773 19.3529523872437 15.0
vertex 97.4118095489748 10.3407417371093 15.0
vertex 100.0 9.99999999999999 15.0
endloop
endfacet
facet normal 0.0 0.0 1.0
outer loop
vertex 97.5851854342773 19.3529523872437 15.0
vertex 100.0 9.99999999999999 15.0
vertex 97.8349364905389 18.75 15.0
endloop
endfacet
facet normal 0.0 0.0 1.0
outer loop
vertex 97.8349364905389 18.75 15.0
vertex 100.0 9.99999999999999 15.0
vertex 98.2322330470336 18.2322330470336 15.0
endloop
endfacet
facet normal 0.0 0.0 1.0
outer loop
vertex 98.2322330470336 18.2322330470336 15.0
vertex 100.0 9.99999999999999 15.0
vertex 98.75 17.8349364905389 15.0
endloop
endfacet
facet normal 0.0 0.0 1.0
outer loop
vertex 98.75 17.8349364905389 15.0
vertex 100.0 9.99999999999999 15.0
vertex 99.3529523872437 17.5851854342773 15.0
endloop
endfacet
facet normal 0.0 0.0 1.0
outer loop
vertex 99.3529523872437 17.5851854342773 15.0
vertex 100.0 9.99999999999999 15.0
vertex 100.0 17.5 15.0
endloop
endfacet
facet normal 0.0 0.0 1.0
outer loop
vertex 100.0 17.5 15.0
vertex 100.0 9.99999999999999 15.0
vertex 102.588190451025 10.3407417371093 15.0
endloop
endfacet
facet normal 0.0 0.0 1.0
outer loop
vertex 100.0 17.5 15.0
vertex 102.588190451025 10.3407417371093 15.0
vertex 100.647047612756 17.5851854342773 15.0
endloop
endfacet
facet normal 0.0 0.0 1.0
outer loop
vertex 100.647047612756 17.5851854342773 15.0
vertex 102.588190451025 10.3407417371093 15.0
vertex 101.25 17.8349364905389 15.0
endloop
endfacet
facet normal 0.0 0.0 1.0
outer loop
vertex 101.25 17.8349364905389 15.0
vertex 102.588190451025 10.3407417371093 15.0
vertex 101.767766952966 18.2322330470336 15.0
endloop
endfacet
facet normal 0.0 0.0 1.0
outer loop
vertex 101.767766952966 18.2322330470336 15.0
vertex 102.588190451025 10.3407417371093 15.0
vertex 102.165063509461 18.75 15.0
endloop
endfacet
facet normal 0.0 0.0 1.0
outer loop
vertex 102.165063509461 18.75 15.0
vertex 102.588190451025 10.3407417371093 15.0
vertex 102.414814565723 19.3529523872437 15.0
endloop
endfacet
facet normal 0.0 0.0 1.0
outer loop
vertex 102.414814565723 19.3529523872437 15.0
vertex 102.588190451025 10.3407417371093 15.0
vertex 102.5 20.0 15.0
endloop
endfacet
facet normal 0.0 0.0 1.0
outer loop
vertex 97.4118095489748 29.6592582628907 15.0
vertex 97.5851854342773 20.6470476127563 15.0
vertex 100.0 30.0 15.0
endloop
endfacet
facet normal 0.0 0.0 1.0
outer loop
vertex 97.5851854342773 20.6470476127563 15.0
vertex 97.4118095489748 29.6592582628907 15.0
vertex 97.5 20.0 15.0
endloop
endfacet
facet normal 0.0 0.0 1.0
outer loop
vertex 100.0 30.0 15.0
vertex 97.5851854342773 20.6470476127563 15.0
vertex 97.8349364905389 21.25 15.0
endloop
endfacet
facet normal 0.0 0.0 1.0
outer loop
vertex 100.0 30.0 15.0
vertex 97.8349364905389 21.25 15.0
vertex 98.2322330470336 21.7677669529664 15.0
endloop
endfacet
facet normal 0.0 0.0 1.0
outer loop
vertex 100.0 30.0 15.0
vertex 98.2322330470336 21.7677669529664 15.0
vertex 98.75 22.1650635094611 15.0
endloop
endfacet
facet normal 0.0 0.0 1.0
outer loop
vertex 100.0 30.0 15.0
vertex 98.75 22.1650635094611 15.0
vertex 99.3529523872437 22.4148145657227 15.0
endloop
endfacet
facet normal 0.0 0.0 1.0
outer loop
vertex 100.0 30.0 15.0
vertex 99.3529523872437 22.4148145657227 15.0
vertex 100.0 22.5 15.0
endloop
endfacet
facet normal 0.0 0.0 1.0
outer loop
vertex 100.0 30.0 15.0
vertex 100.0 22.5 15.0
vertex 100.647047612756 22.4148145657227 15.0
endloop
endfacet
facet normal 0.0 0.0 1.0
outer loop
vertex 100.0 30.0 15.0
vertex 100.647047612756 22.4148145657227 15.0
vertex 102.588190451025 29.6592582628907 15.0
endloop
endfacet
facet normal 0.0 0.0 1.0
outer loop
vertex 102.588190451025 29.6592582628907 15.0
vertex 100.647047612756 22.4148145657227 15.0
vertex 101.25 22.1650635094611 15.0
endloop
endfacet
facet normal 0.0 0.0 1.0
outer loop
vertex 102.588190451025 29.6592582628907 15.0
vertex 101.25 22.1650635094611 15.0
vertex 101.767766952966 21.7677669529664 15.0
endloop
endfacet
facet normal 0.0 0.0 1.0
outer loop
vertex 102.588190451025 29.6592582628907 15.0
vertex 101.767766952966 21.7677669529664 15.0
vertex 102.165063509461 21.25 15.0
endloop
endfacet
facet normal 0.0 0.0 1.0
outer loop
vertex 102.588190451025 29.6592582628907 15.0
vertex 102.165063509461 21.25 15.0
vertex 102.414814565723 20.6470476127563 15.0
endloop
endfacet
facet normal 0.0 0.0 1.0
outer loop
vertex 102.588190451025 29.6592582628907 15.0
vertex 102.414814565723 20.6470476127563 15.0
vertex 102.5 20.0 15.0
endloop
endfacet
facet normal 0.0 0.0 1.0
outer loop
vertex 102.588190451025 29.6592582628907 15.0
vertex 102.5 20.0 15.0
vertex 102.588190451025 10.3407417371093 15.0
endloop
endfacet
facet normal 0.0 0.0 1.0
outer loop
vertex 102.588190451025 29.6592582628907 15.0
vertex 102.588190451025 10.3407417371093 15.0
vertex 105.0 11.3397459621556 15.0
endloop
endfacet
facet normal 0.0 0.0 1.0
outer loop
vertex 102.588190451025 29.6592582628907 15.0
vertex 105.0 11.3397459621556 15.0
vertex 105.0 28.6602540378444 15.0
endloop
endfacet
facet normal 0.0 0.0 1.0
outer loop
vertex 105.0 28.6602540378444 15.0
vertex 105.0 11.3397459621556 15.0
vertex 107.071067811865 12.9289321881345 15.0
endloop
endfacet
facet normal 0.0 0.0 1.0
outer loop
vertex 105.0 28.6602540378444 15.0
vertex 107.071067811865 12.9289321881345 15.0
vertex 107.071067811865 27.0710678118655 15.0
endloop
endfacet
facet normal 0.0 0.0 1.0
outer loop
vertex 107.071067811865 27.0710678118655 15.0
vertex 107.071067811865 12.9289321881345 15.0
vertex 108.660254037844 15.0 15.0
endloop
endfacet
facet normal 0.0 0.0 1.0
outer loop
vertex 107.071067811865 27.0710678118655 15.0
vertex 108.660254037844 15.0 15.0
vertex 108.660254037844 25.0 15.0
endloop
endfacet
facet normal 0.0 0.0 1.0
outer loop
vertex 108.660254037844 25.0 15.0
vertex 108.660254037844 15.0 15.0
vertex 109.659258262891 17.4118095489748 15.0
endloop
endfacet
facet normal 0.0 0.0 1.0
outer loop
vertex 108.660254037844 25.0 15.0
vertex 109.659258262891 17.4118095489748 15.0
vertex 109.659258262891 22.5881904510252 15.0
endloop
endfacet
facet normal 0.0 0.0 1.0
outer loop
vertex 109.659258262891 22.5881904510252 15.0
vertex 109.659258262891 17.4118095489748 15.0
vertex 110.0 20.0 15.0
endloop
endfacet
facet normal -0.25881904510252 -0.965925826289068 -9.45696464743113e-019
outer loop
vertex 97.4118095489748 10.3407417371093 15.0
vertex 95.0 11.3397459621556 0.0
vertex 97.4118095489748 10.3407417371093 0.0
endloop
endfacet
facet normal -0.5 -0.866025403784439 0.0
outer loop
vertex 95.0 11.3397459621556 0.0
vertex 97.4118095489748 10.3407417371093 15.0
vertex 95.0 11.3397459621556 15.0
endloop
endfacet
facet normal -0.866025403784439 -0.5 0.0
outer loop
vertex 91.3397459621556 15.0 15.0
vertex 92.9289321881345 12.9289321881345 0.0
vertex 92.9289321881345 12.9289321881345 15.0
endloop
endfacet
facet normal -0.707106781186548 -0.707106781186548 0.0
outer loop
vertex 92.9289321881345 12.9289321881345 0.0
vertex 91.3397459621556 15.0 15.0
vertex 91.3397459621556 15.0 0.0
endloop
endfacet
facet normal -0.965925826289068 -0.258819045102521 0.0
outer loop
vertex 90.3407417371093 17.4118095489748 15.0
vertex 91.3397459621556 15.0 0.0
vertex 91.3397459621556 15.0 15.0
endloop
endfacet
facet normal -0.866025403784439 -0.5 0.0
outer loop
vertex 91.3397459621556 15.0 0.0
vertex 90.3407417371093 17.4118095489748 15.0
vertex 90.3407417371093 17.4118095489748 0.0
endloop
endfacet
facet normal -1.0 -2.13866637495526e-016 0.0
outer loop
vertex 90.0 20.0 15.0
vertex 90.3407417371093 17.4118095489748 0.0
vertex 90.3407417371093 17.4118095489748 15.0
endloop
endfacet
facet normal -0.965925826289068 -0.258819045102521 0.0
outer loop
vertex 90.3407417371093 17.4118095489748 0.0
vertex 90.0 20.0 15.0
vertex 90.0 20.0 0.0
endloop
endfacet
facet normal 0.965925826289068 0.258819045102522 0.0
outer loop
vertex 109.659258262891 22.5881904510252 0.0
vertex 110.0 20.0 15.0
vertex 110.0 20.0 0.0
endloop
endfacet
facet normal 1.0 1.60399978121644e-016 0.0
outer loop
vertex 110.0 20.0 15.0
vertex 109.659258262891 22.5881904510252 0.0
vertex 109.659258262891 22.5881904510252 15.0
endloop
endfacet
facet normal 0.965925826289068 -0.258819045102522 0.0
outer loop
vertex 109.659258262891 17.4118095489748 0.0
vertex 108.660254037844 15.0 15.0
vertex 108.660254037844 15.0 0.0
endloop
endfacet
facet normal 0.866025403784437 -0.500000000000003 0.0
outer loop
vertex 108.660254037844 15.0 15.0
vertex 109.659258262891 17.4118095489748 0.0
vertex 109.659258262891 17.4118095489748 15.0
endloop
endfacet
facet normal 0.866025403784437 -0.500000000000003 0.0
outer loop
vertex 108.660254037844 15.0 0.0
vertex 107.071067811865 12.9289321881345 15.0
vertex 107.071067811865 12.9289321881345 0.0
endloop
endfacet
facet normal 0.707106781186547 -0.707106781186548 0.0
outer loop
vertex 107.071067811865 12.9289321881345 15.0
vertex 108.660254037844 15.0 0.0
vertex 108.660254037844 15.0 15.0
endloop
endfacet
facet normal -0.5 0.866025403784439 0.0
outer loop
vertex 95.0 28.6602540378444 15.0
vertex 97.4118095489748 29.6592582628907 0.0
vertex 95.0 28.6602540378444 0.0
endloop
endfacet
facet normal -0.258819045102521 0.965925826289068 0.0
outer loop
vertex 97.4118095489748 29.6592582628907 0.0
vertex 95.0 28.6602540378444 15.0
vertex 97.4118095489748 29.6592582628907 15.0
endloop
endfacet
facet normal -0.965925826289068 0.25881904510252 0.0
outer loop
vertex 90.3407417371093 22.5881904510252 15.0
vertex 90.0 20.0 0.0
vertex 90.0 20.0 15.0
endloop
endfacet
facet normal -1.0 -2.13866637495526e-016 0.0
outer loop
vertex 90.0 20.0 0.0
vertex 90.3407417371093 22.5881904510252 15.0
vertex 90.3407417371093 22.5881904510252 0.0
endloop
endfacet
facet normal -0.258819045102521 0.965925826289068 0.0
outer loop
vertex 97.4118095489748 29.6592582628907 15.0
vertex 100.0 30.0 0.0
vertex 97.4118095489748 29.6592582628907 0.0
endloop
endfacet
facet normal 0.0 1.0 0.0
outer loop
vertex 100.0 30.0 0.0
vertex 97.4118095489748 29.6592582628907 15.0
vertex 100.0 30.0 15.0
endloop
endfacet
facet normal 0.0 1.0 0.0
outer loop
vertex 100.0 30.0 15.0
vertex 102.588190451025 29.6592582628907 0.0
vertex 100.0 30.0 0.0
endloop
endfacet
facet normal 0.258819045102521 0.965925826289068 0.0
outer loop
vertex 102.588190451025 29.6592582628907 0.0
vertex 100.0 30.0 15.0
vertex 102.588190451025 29.6592582628907 15.0
endloop
endfacet
facet normal 0.258819045102521 0.965925826289068 0.0
outer loop
vertex 102.588190451025 29.6592582628907 15.0
vertex 105.0 28.6602540378444 0.0
vertex 102.588190451025 29.6592582628907 0.0
endloop
endfacet
facet normal 0.499999999999999 0.866025403784439 0.0
outer loop
vertex 105.0 28.6602540378444 0.0
vertex 102.588190451025 29.6592582628907 15.0
vertex 105.0 28.6602540378444 15.0
endloop
endfacet
facet normal 0.499999999999999 0.866025403784439 0.0
outer loop
vertex 105.0 28.6602540378444 15.0
vertex 107.071067811865 27.0710678118655 0.0
vertex 105.0 28.6602540378444 0.0
endloop
endfacet
facet normal 0.70710678118655 0.707106781186545 0.0
outer loop
vertex 107.071067811865 27.0710678118655 0.0
vertex 105.0 28.6602540378444 15.0
vertex 107.071067811865 27.0710678118655 15.0
endloop
endfacet
facet normal 0.70710678118655 0.707106781186545 0.0
outer loop
vertex 107.071067811865 27.0710678118655 0.0
vertex 108.660254037844 25.0 15.0
vertex 108.660254037844 25.0 0.0
endloop
endfacet
facet normal 0.866025403784439 0.5 0.0
outer loop
vertex 108.660254037844 25.0 15.0
vertex 107.071067811865 27.0710678118655 0.0
vertex 107.071067811865 27.0710678118655 15.0
endloop
endfacet
facet normal -0.866025403784438 0.500000000000001 0.0
outer loop
vertex 91.3397459621556 25.0 15.0
vertex 90.3407417371093 22.5881904510252 0.0
vertex 90.3407417371093 22.5881904510252 15.0
endloop
endfacet
facet normal -0.965925826289068 0.25881904510252 0.0
outer loop
vertex 90.3407417371093 22.5881904510252 0.0
vertex 91.3397459621556 25.0 15.0
vertex 91.3397459621556 25.0 0.0
endloop
endfacet
facet normal 0.866025403784439 0.5 0.0
outer loop
vertex 108.660254037844 25.0 0.0
vertex 109.659258262891 22.5881904510252 15.0
vertex 109.659258262891 22.5881904510252 0.0
endloop
endfacet
facet normal 0.965925826289068 0.258819045102522 0.0
outer loop
vertex 109.659258262891 22.5881904510252 15.0
vertex 108.660254037844 25.0 0.0
vertex 108.660254037844 25.0 15.0
endloop
endfacet
facet normal 0.965925826289069 0.258819045102518 0.0
outer loop
vertex 97.5851854342773 19.3529523872437 0.0
vertex 97.8349364905389 18.75 15.0
vertex 97.8349364905389 18.75 0.0
endloop
endfacet
facet normal 0.866025403784439 0.499999999999999 0.0
outer loop
vertex 97.8349364905389 18.75 15.0
vertex 97.5851854342773 19.3529523872437 0.0
vertex 97.5851854342773 19.3529523872437 15.0
endloop
endfacet
facet normal -0.707106781186546 0.707106781186549 0.0
outer loop
vertex 92.9289321881345 27.0710678118655 15.0
vertex 95.0 28.6602540378444 0.0
vertex 92.9289321881345 27.0710678118655 0.0
endloop
endfacet
facet normal -0.5 0.866025403784439 0.0
outer loop
vertex 95.0 28.6602540378444 0.0
vertex 92.9289321881345 27.0710678118655 15.0
vertex 95.0 28.6602540378444 15.0
endloop
endfacet
facet normal -0.707106781186546 0.707106781186549 0.0
outer loop
vertex 92.9289321881345 27.0710678118655 15.0
vertex 91.3397459621556 25.0 0.0
vertex 91.3397459621556 25.0 15.0
endloop
endfacet
facet normal -0.866025403784438 0.500000000000001 0.0
outer loop
vertex 91.3397459621556 25.0 0.0
vertex 92.9289321881345 27.0710678118655 15.0
vertex 92.9289321881345 27.0710678118655 0.0
endloop
endfacet
facet normal 0.28947663838582 0.957185079192548 4.32408253591422e-016
outer loop
vertex 99.3529523872437 17.5851854342773 6.15831761924832
vertex 100.0 17.5 0.0
vertex 99.3529523872437 17.5851854342773 0.0
endloop
endfacet
facet normal -8.64377659877749e-016 1.0 2.19256913825768e-016
outer loop
vertex 100.0 17.5 0.0
vertex 99.3529523872437 17.5851854342773 6.15831761924832
vertex 99.6117714323462 17.5511112605664 6.0511112605664
endloop
endfacet
facet normal -8.64377659877749e-016 1.0 2.19256913825768e-016
outer loop
vertex 100.0 17.5 0.0
vertex 99.6117714323462 17.5511112605664 6.0511112605664
vertex 100.0 17.5 6.0
endloop
endfacet
facet normal -0.965925826289071 -0.258819045102512 0.0
outer loop
vertex 102.414814565723 20.6470476127563 15.0
vertex 102.5 20.0 0.0
vertex 102.5 20.0 15.0
endloop
endfacet
facet normal -1.0 -2.76244406765054e-016 0.0
outer loop
vertex 102.5 20.0 0.0
vertex 102.414814565723 20.6470476127563 15.0
vertex 102.414814565723 20.6470476127563 0.0
endloop
endfacet
facet normal -0.382683432365088 0.923879532511288 3.47739501640047e-016
outer loop
vertex 101.06066017178 17.7565093657927 8.56066017177983
vertex 101.25 17.8349364905389 15.0
vertex 101.25 17.8349364905389 8.31390770355388
endloop
endfacet
facet normal -0.499999999999997 0.86602540378444 1.75634517689474e-016
outer loop
vertex 101.25 17.8349364905389 15.0
vertex 101.06066017178 17.7565093657927 8.56066017177983
vertex 100.75 17.6278297093523 8.79903810567667
endloop
endfacet
facet normal -0.499999999999997 0.86602540378444 1.75634517689474e-016
outer loop
vertex 101.25 17.8349364905389 15.0
vertex 100.75 17.6278297093523 8.79903810567667
vertex 100.647047612756 17.5851854342773 8.84168238075168
endloop
endfacet
facet normal -0.499999999999997 0.86602540378444 1.75634517689474e-016
outer loop
vertex 101.25 17.8349364905389 15.0
vertex 100.647047612756 17.5851854342773 8.84168238075168
vertex 100.647047612756 17.5851854342773 15.0
endloop
endfacet
facet normal -0.561008632588551 0.827809950508645 6.70112669436501e-017
outer loop
vertex 101.25 17.8349364905389 6.68609229644611
vertex 101.767766952966 18.2322330470336 0.0
vertex 101.25 17.8349364905389 0.0
endloop
endfacet
facet normal -0.707106781186544 0.707106781186551 2.64451643543834e-019
outer loop
vertex 101.767766952966 18.2322330470336 0.0
vertex 101.25 17.8349364905389 6.68609229644611
vertex 101.299038105677 17.872564752464 6.75
endloop
endfacet
facet normal -0.707106781186544 0.707106781186551 2.64451643543834e-019
outer loop
vertex 101.767766952966 18.2322330470336 0.0
vertex 101.299038105677 17.872564752464 6.75
vertex 101.448888739434 17.9875491879114 7.11177143234622
endloop
endfacet
facet normal -0.707106781186544 0.707106781186551 2.64451643543834e-019
outer loop
vertex 101.767766952966 18.2322330470336 0.0
vertex 101.448888739434 17.9875491879114 7.11177143234622
vertex 101.5 18.0267682375336 7.5
endloop
endfacet
facet normal -0.707106781186544 0.707106781186551 2.64451643543834e-019
outer loop
vertex 101.767766952966 18.2322330470336 0.0
vertex 101.5 18.0267682375336 7.5
vertex 101.767766952966 18.2322330470336 15.0
endloop
endfacet
facet normal -0.707106781186544 0.707106781186551 2.64451643543834e-019
outer loop
vertex 101.767766952966 18.2322330470336 15.0
vertex 101.5 18.0267682375336 7.5
vertex 101.448888739434 17.9875491879114 7.88822856765378
endloop
endfacet
facet normal -0.707106781186544 0.707106781186551 2.64451643543834e-019
outer loop
vertex 101.767766952966 18.2322330470336 15.0
vertex 101.448888739434 17.9875491879114 7.88822856765378
vertex 101.299038105677 17.872564752464 8.25
endloop
endfacet
facet normal -0.707106781186544 0.707106781186551 2.64451643543834e-019
outer loop
vertex 101.767766952966 18.2322330470336 15.0
vertex 101.299038105677 17.872564752464 8.25
vertex 101.25 17.8349364905389 8.31390770355388
endloop
endfacet
facet normal -0.707106781186544 0.707106781186551 2.64451643543834e-019
outer loop
vertex 101.767766952966 18.2322330470336 15.0
vertex 101.25 17.8349364905389 8.31390770355388
vertex 101.25 17.8349364905389 15.0
endloop
endfacet
facet normal 0.561008632588551 0.827809950508644 9.08464936365469e-017
outer loop
vertex 98.75 17.8349364905389 6.6860922964461
vertex 99.3529523872437 17.5851854342773 0.0
vertex 98.75 17.8349364905389 0.0
endloop
endfacet
facet normal 0.258819045102522 0.965925826289068 3.90176509555189e-016
outer loop
vertex 99.3529523872437 17.5851854342773 0.0
vertex 98.75 17.8349364905389 6.6860922964461
vertex 98.9393398282201 17.7565093657927 6.43933982822019
endloop
endfacet
facet normal 0.258819045102522 0.965925826289068 3.90176509555189e-016
outer loop
vertex 99.3529523872437 17.5851854342773 0.0
vertex 98.9393398282201 17.7565093657927 6.43933982822019
vertex 99.25 17.6278297093523 6.20096189432334
endloop
endfacet
facet normal 0.258819045102522 0.965925826289068 3.90176509555189e-016
outer loop
vertex 99.3529523872437 17.5851854342773 0.0
vertex 99.25 17.6278297093523 6.20096189432334
vertex 99.3529523872437 17.5851854342773 6.15831761924832
endloop
endfacet
facet normal -1.0 -2.76244406765054e-016 0.0
outer loop
vertex 102.5 20.0 15.0
vertex 102.414814565723 19.3529523872437 0.0
vertex 102.414814565723 19.3529523872437 15.0
endloop
endfacet
facet normal -0.965925826289071 0.258819045102511 0.0
outer loop
vertex 102.414814565723 19.3529523872437 0.0
vertex 102.5 20.0 15.0
vertex 102.5 20.0 0.0
endloop
endfacet
facet normal -0.130526192220052 0.99144486137381 -1.4306311525733e-016
outer loop
vertex 100.388228567654 17.5511112605664 8.94888873943359
vertex 100.647047612756 17.5851854342773 15.0
vertex 100.647047612756 17.5851854342773 8.84168238075168
endloop
endfacet
facet normal -0.25881904510252 0.965925826289069 1.03221265426251e-016
outer loop
vertex 100.647047612756 17.5851854342773 15.0
vertex 100.388228567654 17.5511112605664 8.94888873943359
vertex 100.0 17.5 9.0
endloop
endfacet
facet normal -0.25881904510252 0.965925826289069 1.03221265426251e-016
outer loop
vertex 100.647047612756 17.5851854342773 15.0
vertex 100.0 17.5 9.0
vertex 100.0 17.5 15.0
endloop
endfacet
facet normal 0.866025403784439 0.499999999999999 0.0
outer loop
vertex 97.8349364905389 18.75 0.0
vertex 98.2322330470336 18.2322330470336 15.0
vertex 98.2322330470336 18.2322330470336 0.0
endloop
endfacet
facet normal 0.707106781186545 0.70710678118655 -2.37339034838904e-017
outer loop
vertex 98.2322330470336 18.2322330470336 15.0
vertex 97.8349364905389 18.75 0.0
vertex 97.8349364905389 18.75 15.0
endloop
endfacet
facet normal -0.866025403784443 0.499999999999992 0.0
outer loop
vertex 102.165063509461 18.75 15.0
vertex 101.767766952966 18.2322330470336 0.0
vertex 101.767766952966 18.2322330470336 15.0
endloop
endfacet
facet normal -0.707106781186544 0.707106781186551 2.64451643543834e-019
outer loop
vertex 101.767766952966 18.2322330470336 0.0
vertex 102.165063509461 18.75 15.0
vertex 102.165063509461 18.75 0.0
endloop
endfacet
facet normal -0.965925826289071 0.258819045102511 0.0
outer loop
vertex 102.414814565723 19.3529523872437 15.0
vertex 102.165063509461 18.75 0.0
vertex 102.165063509461 18.75 15.0
endloop
endfacet
facet normal -0.866025403784443 0.499999999999992 0.0
outer loop
vertex 102.165063509461 18.75 0.0
vertex 102.414814565723 19.3529523872437 15.0
vertex 102.414814565723 19.3529523872437 0.0
endloop
endfacet
facet normal 0.707106781186545 0.70710678118655 -2.37339034838904e-017
outer loop
vertex 98.2322330470336 18.2322330470336 15.0
vertex 98.75 17.8349364905389 0.0
vertex 98.2322330470336 18.2322330470336 0.0
endloop
endfacet
facet normal 0.499999999999996 0.866025403784441 2.58977503764385e-016
outer loop
vertex 98.75 17.8349364905389 0.0
vertex 98.2322330470336 18.2322330470336 15.0
vertex 98.5 18.0267682375337 7.5
endloop
endfacet
facet normal 0.499999999999996 0.866025403784441 2.58977503764385e-016
outer loop
vertex 98.75 17.8349364905389 0.0
vertex 98.5 18.0267682375337 7.5
vertex 98.5511112605664 17.9875491879114 7.11177143234623
endloop
endfacet
facet normal 0.499999999999996 0.866025403784441 2.58977503764385e-016
outer loop
vertex 98.75 17.8349364905389 0.0
vertex 98.5511112605664 17.9875491879114 7.11177143234623
vertex 98.7009618943234 17.872564752464 6.75000000000001
endloop
endfacet
facet normal 0.499999999999996 0.866025403784441 2.58977503764385e-016
outer loop
vertex 98.75 17.8349364905389 0.0
vertex 98.7009618943234 17.872564752464 6.75000000000001
vertex 98.75 17.8349364905389 6.6860922964461
endloop
endfacet
facet normal 0.608761429008709 0.793353340291244 -4.70617132988902e-017
outer loop
vertex 98.5 18.0267682375337 7.5
vertex 98.2322330470336 18.2322330470336 15.0
vertex 98.5511112605664 17.9875491879114 7.88822856765378
endloop
endfacet
facet normal 0.608761429008709 0.793353340291244 -4.70617132988902e-017
outer loop
vertex 98.5511112605664 17.9875491879114 7.88822856765378
vertex 98.2322330470336 18.2322330470336 15.0
vertex 98.7009618943234 17.872564752464 8.24999999999999
endloop
endfacet
facet normal 0.608761429008709 0.793353340291244 -4.70617132988902e-017
outer loop
vertex 98.7009618943234 17.872564752464 8.24999999999999
vertex 98.2322330470336 18.2322330470336 15.0
vertex 98.75 17.8349364905389 8.31390770355388
endloop
endfacet
facet normal 0.561008632588548 0.827809950508647 -6.26678617017753e-018
outer loop
vertex 98.75 17.8349364905389 8.31390770355388
vertex 98.2322330470336 18.2322330470336 15.0
vertex 98.75 17.8349364905389 15.0
endloop
endfacet
facet normal -2.87261751115288e-015 2.53815257236758e-020 -1.0
outer loop
vertex 100.0 17.5 9.0
vertex 99.6117714323462 10.0511112605664 8.9488887394336
vertex 99.6117714323462 17.5511112605664 8.9488887394336
endloop
endfacet
facet normal 0.248680456922458 1.80502508367724e-016 -0.968585582354413
outer loop
vertex 99.6117714323462 10.0511112605664 8.9488887394336
vertex 100.0 17.5 9.0
vertex 100.0 9.99999999999999 9.0
endloop
endfacet
facet normal 0.382683432365072 3.88853013850196e-016 -0.923879532511294
outer loop
vertex 99.3529523872437 17.5851854342773 8.8416823807517
vertex 99.25 10.0987393731905 8.79903810567666
vertex 99.25 17.6278297093524 8.79903810567665
endloop
endfacet
facet normal 0.49185270330085 3.2258474503942e-016 -0.870678424135826
outer loop
vertex 99.25 10.0987393731905 8.79903810567666
vertex 99.3529523872437 17.5851854342773 8.8416823807517
vertex 99.6117714323462 10.0511112605664 8.9488887394336
endloop
endfacet
facet normal 0.248680456922458 1.80502508367724e-016 -0.968585582354413
outer loop
vertex 99.6117714323462 10.0511112605664 8.9488887394336
vertex 99.3529523872437 17.5851854342773 8.8416823807517
vertex 99.6117714323462 17.5511112605664 8.9488887394336
endloop
endfacet
facet normal -0.268985625245388 3.87761225228679e-016 -0.963144191391584
outer loop
vertex 100.388228567654 17.5511112605664 8.94888873943359
vertex 100.0 9.99999999999999 9.0
vertex 100.0 17.5 9.0
endloop
endfacet
facet normal -2.84612609829969e-015 2.53815257236759e-020 -1.0
outer loop
vertex 100.0 9.99999999999999 9.0
vertex 100.388228567654 17.5511112605664 8.94888873943359
vertex 100.388228567654 10.0511112605664 8.94888873943359
endloop
endfacet
facet normal -0.724006417528108 6.62863779859077e-017 -0.689793235236557
outer loop
vertex 101.06066017178 17.7565093657927 8.56066017177983
vertex 100.75 10.0987393731905 8.79903810567665
vertex 100.75 17.6278297093523 8.79903810567667
endloop
endfacet
facet normal -0.491852703300861 5.77388062663057e-016 -0.87067842413582
outer loop
vertex 100.75 10.0987393731905 8.79903810567665
vertex 101.06066017178 17.7565093657927 8.56066017177983
vertex 101.06066017178 10.1396385607063 8.56066017177982
endloop
endfacet
facet normal -0.24868045692248 -4.38622263063722e-016 0.968585582354407
outer loop
vertex 100.388228567654 10.0511112605664 6.0511112605664
vertex 100.0 17.5 6.0
vertex 100.0 9.99999999999999 6.0
endloop
endfacet
facet normal 4.69166756835858e-016 -8.62971874604776e-020 1.0
outer loop
vertex 100.0 17.5 6.0
vertex 100.388228567654 10.0511112605664 6.0511112605664
vertex 100.388228567654 17.5511112605664 6.0511112605664
endloop
endfacet
facet normal -0.863307826227529 -1.22004559515364e-015 0.504677716145957
outer loop
vertex 101.299038105677 10.1710216110735 6.74999999999999
vertex 101.06066017178 17.7565093657927 6.43933982822018
vertex 101.06066017178 10.1396385607063 6.43933982822017
endloop
endfacet
facet normal -0.724006417528108 -1.38319275228298e-015 0.689793235236556
outer loop
vertex 101.06066017178 17.7565093657927 6.43933982822018
vertex 101.299038105677 10.1710216110735 6.74999999999999
vertex 101.25 17.8349364905389 6.68609229644611
endloop
endfacet
facet normal -0.793353340291245 -1.51598545407521e-015 0.608761429008707
outer loop
vertex 101.25 17.8349364905389 6.68609229644611
vertex 101.299038105677 10.1710216110735 6.74999999999999
vertex 101.299038105677 17.872564752464 6.75
endloop
endfacet
facet normal -0.970226153911707 -6.02250460412229e-017 -0.242200764378847
outer loop
vertex 101.448888739434 17.9875491879114 7.88822856765378
vertex 101.5 10.1974787463811 7.5
vertex 101.448888739434 10.1907498212727 7.88822856765378
endloop
endfacet
facet normal -1.0 -1.75388510433723e-017 1.47205306357004e-014
outer loop
vertex 101.5 10.1974787463811 7.5
vertex 101.448888739434 17.9875491879114 7.88822856765378
vertex 101.5 18.0267682375336 7.5
endloop
endfacet
facet normal -0.701674117043788 -1.34043562675567e-015 0.712498023485553
outer loop
vertex 101.06066017178 10.1396385607063 6.43933982822017
vertex 100.75 17.6278297093524 6.20096189432337
vertex 100.75 10.0987393731905 6.20096189432334
endloop
endfacet
facet normal -0.52494983573524 -1.08651897337701e-015 0.851133168171435
outer loop
vertex 100.75 17.6278297093524 6.20096189432337
vertex 101.06066017178 10.1396385607063 6.43933982822017
vertex 101.06066017178 17.7565093657927 6.43933982822018
endloop
endfacet
facet normal -0.881486956488918 -1.52302205562735e-016 -0.472208370891395
outer loop
vertex 101.299038105677 17.872564752464 8.25
vertex 101.448888739434 10.1907498212727 7.88822856765378
vertex 101.299038105677 10.1710216110735 8.25
endloop
endfacet
facet normal -0.965197347644341 -7.08068878762574e-017 -0.261522618716489
outer loop
vertex 101.448888739434 10.1907498212727 7.88822856765378
vertex 101.299038105677 17.872564752464 8.25
vertex 101.448888739434 17.9875491879114 7.88822856765378
endloop
endfacet
facet normal 0.524949835735245 3.0058300659894e-016 -0.851133168171432
outer loop
vertex 99.25 17.6278297093524 8.79903810567665
vertex 98.9393398282202 10.1396385607063 8.56066017177982
vertex 98.9393398282202 17.7565093657927 8.56066017177982
endloop
endfacet
facet normal 0.701674117043811 -2.73945609701497e-016 -0.712498023485531
outer loop
vertex 98.9393398282202 10.1396385607063 8.56066017177982
vertex 99.25 17.6278297093524 8.79903810567665
vertex 99.25 10.0987393731905 8.79903810567666
endloop
endfacet
facet normal 0.724006417528135 7.5387294789232e-017 0.689793235236528
outer loop
vertex 98.9393398282201 17.7565093657927 6.43933982822019
vertex 98.7009618943233 10.1710216110735 6.75
vertex 98.9393398282202 10.1396385607063 6.43933982822016
endloop
endfacet
facet normal 0.863307826227536 -1.39430862681032e-015 0.504677716145946
outer loop
vertex 98.7009618943233 10.1710216110735 6.75
vertex 98.9393398282201 17.7565093657927 6.43933982822019
vertex 98.75 17.8349364905389 6.6860922964461
endloop
endfacet
facet normal 0.863307826227536 -1.39430862681032e-015 0.504677716145946
outer loop
vertex 98.7009618943233 10.1710216110735 6.75
vertex 98.75 17.8349364905389 6.6860922964461
vertex 98.7009618943234 17.872564752464 6.75000000000001
endloop
endfacet
facet normal 1.0 3.3944190397429e-016 3.65721446751622e-014
outer loop
vertex 98.5 10.1974787463811 7.5
vertex 98.5511112605664 17.9875491879114 7.88822856765378
vertex 98.5511112605664 10.1907498212727 7.88822856765378
endloop
endfacet
facet normal 0.970226153911701 8.16408270012719e-016 -0.242200764378869
outer loop
vertex 98.5511112605664 17.9875491879114 7.88822856765378
vertex 98.5 10.1974787463811 7.5
vertex 98.5 18.0267682375337 7.5
endloop
endfacet
facet normal 8.15954239785574e-016 -8.62971874604771e-020 1.0
outer loop
vertex 100.0 9.99999999999999 6.0
vertex 99.6117714323462 17.5511112605664 6.0511112605664
vertex 99.6117714323462 10.0511112605664 6.0511112605664
endloop
endfacet
facet normal 0.268985625245376 8.73590681299e-017 0.963144191391587
outer loop
vertex 99.6117714323462 17.5511112605664 6.0511112605664
vertex 100.0 9.99999999999999 6.0
vertex 100.0 17.5 6.0
endloop
endfacet
facet normal 0.965197347644333 6.98809225941153e-016 -0.261522618716518
outer loop
vertex 98.5511112605664 10.1907498212727 7.88822856765378
vertex 98.7009618943234 17.872564752464 8.24999999999999
vertex 98.7009618943233 10.1710216110735 8.25
endloop
endfacet
facet normal 0.881486956488908 -3.61369191660751e-016 -0.472208370891413
outer loop
vertex 98.7009618943234 17.872564752464 8.24999999999999
vertex 98.5511112605664 10.1907498212727 7.88822856765378
vertex 98.5511112605664 17.9875491879114 7.88822856765378
endloop
endfacet
facet normal 0.248680456922465 7.44628823707998e-017 0.968585582354411
outer loop
vertex 99.6117714323462 10.0511112605664 6.0511112605664
vertex 99.25 17.6278297093523 6.20096189432334
vertex 99.25 10.0987393731905 6.20096189432334
endloop
endfacet
facet normal 0.524949835735226 7.66255515254766e-017 0.851133168171444
outer loop
vertex 99.25 17.6278297093523 6.20096189432334
vertex 99.6117714323462 10.0511112605664 6.0511112605664
vertex 99.3529523872437 17.5851854342773 6.15831761924832
endloop
endfacet
facet normal 0.382683432365079 1.60279916103147e-016 0.923879532511291
outer loop
vertex 99.3529523872437 17.5851854342773 6.15831761924832
vertex 99.6117714323462 10.0511112605664 6.0511112605664
vertex 99.6117714323462 17.5511112605664 6.0511112605664
endloop
endfacet
facet normal 0.970226153911697 -1.77632637381682e-015 0.242200764378886
outer loop
vertex 98.5511112605664 17.9875491879114 7.11177143234623
vertex 98.5 10.1974787463811 7.5
vertex 98.5511112605664 10.1907498212727 7.11177143234622
endloop
endfacet
facet normal 1.0 3.3944190397429e-016 3.65721446751622e-014
outer loop
vertex 98.5 10.1974787463811 7.5
vertex 98.5511112605664 17.9875491879114 7.11177143234623
vertex 98.5 18.0267682375337 7.5
endloop
endfacet
facet normal 0.881486956488934 -1.83755631268852e-015 0.472208370891365
outer loop
vertex 98.7009618943234 17.872564752464 6.75000000000001
vertex 98.5511112605664 10.1907498212727 7.11177143234622
vertex 98.7009618943233 10.1710216110735 6.75
endloop
endfacet
facet normal 0.965197347644331 -1.94471560566208e-015 0.261522618716525
outer loop
vertex 98.5511112605664 10.1907498212727 7.11177143234622
vertex 98.7009618943234 17.872564752464 6.75000000000001
vertex 98.5511112605664 17.9875491879114 7.11177143234623
endloop
endfacet
facet normal 0.701674117043809 6.4573084664852e-017 0.712498023485533
outer loop
vertex 98.9393398282202 10.1396385607063 6.43933982822016
vertex 99.25 17.6278297093523 6.20096189432334
vertex 98.9393398282201 17.7565093657927 6.43933982822019
endloop
endfacet
facet normal 0.524949835735226 7.66255515254766e-017 0.851133168171444
outer loop
vertex 99.25 17.6278297093523 6.20096189432334
vertex 98.9393398282202 10.1396385607063 6.43933982822016
vertex 99.25 10.0987393731905 6.20096189432334
endloop
endfacet
facet normal -0.965197347644343 -4.69048920670418e-016 0.261522618716481
outer loop
vertex 101.448888739434 10.1907498212727 7.11177143234622
vertex 101.299038105677 17.872564752464 6.75
vertex 101.299038105677 10.1710216110735 6.74999999999999
endloop
endfacet
facet normal -0.881486956488934 -1.12837705064265e-015 0.472208370891364
outer loop
vertex 101.299038105677 17.872564752464 6.75
vertex 101.448888739434 10.1907498212727 7.11177143234622
vertex 101.448888739434 17.9875491879114 7.11177143234622
endloop
endfacet
facet normal -1.0 -1.75388510433723e-017 1.47205306357004e-014
outer loop
vertex 101.5 10.1974787463811 7.5
vertex 101.448888739434 17.9875491879114 7.11177143234622
vertex 101.448888739434 10.1907498212727 7.11177143234622
endloop
endfacet
facet normal -0.970226153911707 -4.04599370758769e-016 0.242200764378844
outer loop
vertex 101.448888739434 17.9875491879114 7.11177143234622
vertex 101.5 10.1974787463811 7.5
vertex 101.5 18.0267682375336 7.5
endloop
endfacet
facet normal 0.258819045102527 0.965925826289067 -7.19468236101792e-017
outer loop
vertex 99.3529523872437 17.5851854342773 15.0
vertex 99.6117714323462 17.5511112605664 8.9488887394336
vertex 99.3529523872437 17.5851854342773 8.8416823807517
endloop
endfacet
facet normal 0.130526192220047 0.991444861373811 -2.76226937557342e-016
outer loop
vertex 99.6117714323462 17.5511112605664 8.9488887394336
vertex 99.3529523872437 17.5851854342773 15.0
vertex 100.0 17.5 9.0
endloop
endfacet
facet normal -2.46106772445476e-015 1.0 -2.1145404507603e-016
outer loop
vertex 100.0 17.5 9.0
vertex 99.3529523872437 17.5851854342773 15.0
vertex 100.0 17.5 15.0
endloop
endfacet
facet normal -0.724006417528108 6.62863779859077e-017 -0.689793235236557
outer loop
vertex 101.06066017178 17.7565093657927 8.56066017177983
vertex 101.299038105677 10.1710216110735 8.25
vertex 101.06066017178 10.1396385607063 8.56066017177982
endloop
endfacet
facet normal -0.863307826227513 -1.57351620303134e-016 -0.504677716145985
outer loop
vertex 101.299038105677 10.1710216110735 8.25
vertex 101.06066017178 17.7565093657927 8.56066017177983
vertex 101.25 17.8349364905389 8.31390770355388
endloop
endfacet
facet normal -0.863307826227513 -1.57351620303134e-016 -0.504677716145985
outer loop
vertex 101.299038105677 10.1710216110735 8.25
vertex 101.25 17.8349364905389 8.31390770355388
vertex 101.299038105677 17.872564752464 8.25
endloop
endfacet
facet normal 0.500000000000001 0.866025403784438 4.36245173622807e-017
outer loop
vertex 98.75 17.8349364905389 15.0
vertex 98.9393398282202 17.7565093657927 8.56066017177982
vertex 98.75 17.8349364905389 8.31390770355388
endloop
endfacet
facet normal 0.382683432365105 0.92387953251128 1.33564320436382e-016
outer loop
vertex 98.9393398282202 17.7565093657927 8.56066017177982
vertex 98.75 17.8349364905389 15.0
vertex 99.25 17.6278297093524 8.79903810567665
endloop
endfacet
facet normal 0.382683432365105 0.92387953251128 1.33564320436382e-016
outer loop
vertex 99.25 17.6278297093524 8.79903810567665
vertex 98.75 17.8349364905389 15.0
vertex 99.3529523872437 17.5851854342773 8.8416823807517
endloop
endfacet
facet normal 0.289476638385827 0.957185079192546 -2.18735950321873e-017
outer loop
vertex 99.3529523872437 17.5851854342773 8.8416823807517
vertex 98.75 17.8349364905389 15.0
vertex 99.3529523872437 17.5851854342773 15.0
endloop
endfacet
facet normal 0.86330782622751 -4.73673611611509e-016 -0.50467771614599
outer loop
vertex 98.7009618943233 10.1710216110735 8.25
vertex 98.9393398282202 17.7565093657927 8.56066017177982
vertex 98.9393398282202 10.1396385607063 8.56066017177982
endloop
endfacet
facet normal 0.72400641752813 -4.06453839445355e-016 -0.689793235236533
outer loop
vertex 98.9393398282202 17.7565093657927 8.56066017177982
vertex 98.7009618943233 10.1710216110735 8.25
vertex 98.75 17.8349364905389 8.31390770355388
endloop
endfacet
facet normal 0.793353340291257 -8.46640622697157e-016 -0.608761429008692
outer loop
vertex 98.75 17.8349364905389 8.31390770355388
vertex 98.7009618943233 10.1710216110735 8.25
vertex 98.7009618943234 17.872564752464 8.24999999999999
endloop
endfacet
facet normal -8.56023556332088e-016 1.0 2.19256913825768e-016
outer loop
vertex 100.0 17.5 6.0
vertex 100.647047612756 17.5851854342773 0.0
vertex 100.0 17.5 0.0
endloop
endfacet
facet normal -0.258819045102521 0.965925826289068 2.59486879544043e-016
outer loop
vertex 100.647047612756 17.5851854342773 0.0
vertex 100.0 17.5 6.0
vertex 100.388228567654 17.5511112605664 6.0511112605664
endloop
endfacet
facet normal -0.258819045102521 0.965925826289068 2.59486879544043e-016
outer loop
vertex 100.647047612756 17.5851854342773 0.0
vertex 100.388228567654 17.5511112605664 6.0511112605664
vertex 100.647047612756 17.5851854342773 6.15831761924832
endloop
endfacet
facet normal -0.289476638385824 0.957185079192547 2.6804779110614e-016
outer loop
vertex 100.647047612756 17.5851854342773 6.15831761924832
vertex 101.25 17.8349364905389 0.0
vertex 100.647047612756 17.5851854342773 0.0
endloop
endfacet
facet normal -0.499999999999999 0.866025403784439 1.47959519668731e-016
outer loop
vertex 101.25 17.8349364905389 0.0
vertex 100.647047612756 17.5851854342773 6.15831761924832
vertex 100.75 17.6278297093524 6.20096189432337
endloop
endfacet
facet normal -0.499999999999999 0.866025403784439 1.47959519668731e-016
outer loop
vertex 101.25 17.8349364905389 0.0
vertex 100.75 17.6278297093524 6.20096189432337
vertex 101.06066017178 17.7565093657927 6.43933982822018
endloop
endfacet
facet normal -0.499999999999999 0.866025403784439 1.47959519668731e-016
outer loop
vertex 101.25 17.8349364905389 0.0
vertex 101.06066017178 17.7565093657927 6.43933982822018
vertex 101.25 17.8349364905389 6.68609229644611
endloop
endfacet
facet normal -0.3826834323651 7.11921575178263e-016 -0.923879532511283
outer loop
vertex 100.647047612756 17.5851854342773 8.84168238075168
vertex 100.388228567654 10.0511112605664 8.94888873943359
vertex 100.388228567654 17.5511112605664 8.94888873943359
endloop
endfacet
facet normal -0.248680456922474 3.30433738877323e-016 -0.968585582354409
outer loop
vertex 100.388228567654 10.0511112605664 8.94888873943359
vertex 100.647047612756 17.5851854342773 8.84168238075168
vertex 100.75 10.0987393731905 8.79903810567665
endloop
endfacet
facet normal -0.491852703300861 5.77388062663057e-016 -0.87067842413582
outer loop
vertex 100.75 10.0987393731905 8.79903810567665
vertex 100.647047612756 17.5851854342773 8.84168238075168
vertex 100.75 17.6278297093523 8.79903810567667
endloop
endfacet
facet normal -0.491852703300853 -1.05483886867479e-015 0.870678424135825
outer loop
vertex 100.75 10.0987393731905 6.20096189432334
vertex 100.388228567654 17.5511112605664 6.0511112605664
vertex 100.388228567654 10.0511112605664 6.0511112605664
endloop
endfacet
facet normal -0.268985625245395 -5.14669049649843e-016 0.963144191391582
outer loop
vertex 100.388228567654 17.5511112605664 6.0511112605664
vertex 100.75 10.0987393731905 6.20096189432334
vertex 100.647047612756 17.5851854342773 6.15831761924832
endloop
endfacet
facet normal -0.382683432365112 -9.44675888128004e-016 0.923879532511277
outer loop
vertex 100.647047612756 17.5851854342773 6.15831761924832
vertex 100.75 10.0987393731905 6.20096189432334
vertex 100.75 17.6278297093524 6.20096189432337
endloop
endfacet
facet normal 0.258819045102521 -0.965925826289068 8.90186269036404e-018
outer loop
vertex 102.588190451025 10.3407417371093 0.0
vertex 101.448888739434 10.1907498212727 7.11177143234622
vertex 100.0 9.99999999999999 0.0
endloop
endfacet
facet normal 0.130526192220052 -0.99144486137381 1.76514120420333e-017
outer loop
vertex 101.448888739434 10.1907498212727 7.11177143234622
vertex 102.588190451025 10.3407417371093 0.0
vertex 102.588190451025 10.3407417371093 15.0
endloop
endfacet
facet normal 2.67333296869407e-016 -1.0 7.95616622562093e-018
outer loop
vertex 100.0 9.99999999999999 0.0
vertex 101.448888739434 10.1907498212727 7.11177143234622
vertex 101.299038105677 10.1710216110735 6.74999999999999
endloop
endfacet
facet normal 2.67333296869407e-016 -1.0 7.95616622562093e-018
outer loop
vertex 100.0 9.99999999999999 0.0
vertex 101.299038105677 10.1710216110735 6.74999999999999
vertex 101.06066017178 10.1396385607063 6.43933982822017
endloop
endfacet
facet normal 2.67333296869407e-016 -1.0 7.95616622562093e-018
outer loop
vertex 100.0 9.99999999999999 0.0
vertex 101.06066017178 10.1396385607063 6.43933982822017
vertex 100.75 10.0987393731905 6.20096189432334
endloop
endfacet
facet normal 2.67333296869407e-016 -1.0 7.95616622562093e-018
outer loop
vertex 100.0 9.99999999999999 0.0
vertex 100.75 10.0987393731905 6.20096189432334
vertex 100.388228567654 10.0511112605664 6.0511112605664
endloop
endfacet
facet normal 2.67333296869407e-016 -1.0 7.95616622562093e-018
outer loop
vertex 100.0 9.99999999999999 0.0
vertex 100.388228567654 10.0511112605664 6.0511112605664
vertex 100.0 9.99999999999999 6.0
endloop
endfacet
facet normal 0.130526192220052 -0.99144486137381 1.76514120420333e-017
outer loop
vertex 101.448888739434 10.1907498212727 7.11177143234622
vertex 102.588190451025 10.3407417371093 15.0
vertex 101.5 10.1974787463811 7.5
endloop
endfacet
facet normal 0.130526192220052 -0.99144486137381 1.76514120420333e-017
outer loop
vertex 101.5 10.1974787463811 7.5
vertex 102.588190451025 10.3407417371093 15.0
vertex 101.448888739434 10.1907498212727 7.88822856765378
endloop
endfacet
facet normal 0.130526192220052 -0.99144486137381 1.76514120420333e-017
outer loop
vertex 101.448888739434 10.1907498212727 7.88822856765378
vertex 102.588190451025 10.3407417371093 15.0
vertex 101.299038105677 10.1710216110735 8.25
endloop
endfacet
facet normal 0.130526192220052 -0.99144486137381 1.76514120420333e-017
outer loop
vertex 101.299038105677 10.1710216110735 8.25
vertex 102.588190451025 10.3407417371093 15.0
vertex 101.06066017178 10.1396385607063 8.56066017177982
endloop
endfacet
facet normal 0.130526192220052 -0.99144486137381 1.76514120420333e-017
outer loop
vertex 101.06066017178 10.1396385607063 8.56066017177982
vertex 102.588190451025 10.3407417371093 15.0
vertex 100.75 10.0987393731905 8.79903810567665
endloop
endfacet
facet normal 0.130526192220052 -0.99144486137381 1.76514120420333e-017
outer loop
vertex 100.75 10.0987393731905 8.79903810567665
vertex 102.588190451025 10.3407417371093 15.0
vertex 100.388228567654 10.0511112605664 8.94888873943359
endloop
endfacet
facet normal 0.130526192220052 -0.99144486137381 1.76514120420333e-017
outer loop
vertex 100.388228567654 10.0511112605664 8.94888873943359
vertex 102.588190451025 10.3407417371093 15.0
vertex 100.0 9.99999999999999 9.0
endloop
endfacet
facet normal 5.10321735505669e-016 -1.0 7.95616622562094e-018
outer loop
vertex 100.0 9.99999999999999 9.0
vertex 102.588190451025 10.3407417371093 15.0
vertex 100.0 9.99999999999999 15.0
endloop
endfacet
facet normal 2.46929872018872e-016 -1.0 7.95616622562092e-018
outer loop
vertex 100.0 9.99999999999999 6.0
vertex 97.4118095489748 10.3407417371093 0.0
vertex 100.0 9.99999999999999 0.0
endloop
endfacet
facet normal -0.25881904510252 -0.965925826289068 -9.45696464743113e-019
outer loop
vertex 97.4118095489748 10.3407417371093 0.0
vertex 100.0 9.99999999999999 6.0
vertex 99.6117714323462 10.0511112605664 6.0511112605664
endloop
endfacet
facet normal -0.25881904510252 -0.965925826289068 -9.45696464743113e-019
outer loop
vertex 97.4118095489748 10.3407417371093 0.0
vertex 99.6117714323462 10.0511112605664 6.0511112605664
vertex 99.25 10.0987393731905 6.20096189432334
endloop
endfacet
facet normal -0.25881904510252 -0.965925826289068 -9.45696464743113e-019
outer loop
vertex 97.4118095489748 10.3407417371093 0.0
vertex 99.25 10.0987393731905 6.20096189432334
vertex 98.9393398282202 10.1396385607063 6.43933982822016
endloop
endfacet
facet normal -0.25881904510252 -0.965925826289068 -9.45696464743113e-019
outer loop
vertex 97.4118095489748 10.3407417371093 0.0
vertex 98.9393398282202 10.1396385607063 6.43933982822016
vertex 98.7009618943233 10.1710216110735 6.75
endloop
endfacet
facet normal -0.25881904510252 -0.965925826289068 -9.45696464743113e-019
outer loop
vertex 97.4118095489748 10.3407417371093 0.0
vertex 98.7009618943233 10.1710216110735 6.75
vertex 98.5511112605664 10.1907498212727 7.11177143234622
endloop
endfacet
facet normal -0.25881904510252 -0.965925826289068 -9.45696464743113e-019
outer loop
vertex 97.4118095489748 10.3407417371093 0.0
vertex 98.5511112605664 10.1907498212727 7.11177143234622
vertex 97.4118095489748 10.3407417371093 15.0
endloop
endfacet
facet normal -0.25881904510252 -0.965925826289068 -9.45696464743113e-019
outer loop
vertex 97.4118095489748 10.3407417371093 15.0
vertex 98.5511112605664 10.1907498212727 7.11177143234622
vertex 98.5 10.1974787463811 7.5
endloop
endfacet
facet normal -0.25881904510252 -0.965925826289068 -9.45696464743113e-019
outer loop
vertex 97.4118095489748 10.3407417371093 15.0
vertex 98.5 10.1974787463811 7.5
vertex 98.5511112605664 10.1907498212727 7.88822856765378
endloop
endfacet
facet normal -0.25881904510252 -0.965925826289068 -9.45696464743113e-019
outer loop
vertex 97.4118095489748 10.3407417371093 15.0
vertex 98.5511112605664 10.1907498212727 7.88822856765378
vertex 98.7009618943233 10.1710216110735 8.25
endloop
endfacet
facet normal -0.25881904510252 -0.965925826289068 -9.45696464743113e-019
outer loop
vertex 97.4118095489748 10.3407417371093 15.0
vertex 98.7009618943233 10.1710216110735 8.25
vertex 98.9393398282202 10.1396385607063 8.56066017177982
endloop
endfacet
facet normal -0.25881904510252 -0.965925826289068 -9.45696464743113e-019
outer loop
vertex 97.4118095489748 10.3407417371093 15.0
vertex 98.9393398282202 10.1396385607063 8.56066017177982
vertex 99.25 10.0987393731905 8.79903810567666
endloop
endfacet
facet normal -0.25881904510252 -0.965925826289068 -9.45696464743113e-019
outer loop
vertex 97.4118095489748 10.3407417371093 15.0
vertex 99.25 10.0987393731905 8.79903810567666
vertex 99.6117714323462 10.0511112605664 8.9488887394336
endloop
endfacet
facet normal -0.25881904510252 -0.965925826289068 -9.45696464743113e-019
outer loop
vertex 97.4118095489748 10.3407417371093 15.0
vertex 99.6117714323462 10.0511112605664 8.9488887394336
vertex 100.0 9.99999999999999 9.0
endloop
endfacet
facet normal -0.25881904510252 -0.965925826289068 -9.45696464743113e-019
outer loop
vertex 97.4118095489748 10.3407417371093 15.0
vertex 100.0 9.99999999999999 9.0
vertex 100.0 9.99999999999999 15.0
endloop
endfacet
endsolid untitled
